<svg id="Layer_1" data-name="Layer 1" xmlns="http://www.w3.org/2000/svg" viewBox="0 0 2520 2160"><defs><style>.cls-1{fill:none;stroke:#fff;stroke-miterlimit:10;stroke-width:6px;}.cls-2{font-size:48.88px;}.cls-2,.cls-24,.cls-26,.cls-27,.cls-9{fill:#fff;}.cls-2,.cls-24,.cls-27,.cls-9{font-family:Montserrat-SemiBold, Montserrat;font-weight:700;}.cls-3{letter-spacing:0em;}.cls-4{letter-spacing:0em;}.cls-5{letter-spacing:0em;}.cls-6{letter-spacing:-0.02em;}.cls-7{letter-spacing:0.01em;}.cls-8{letter-spacing:-0.01em;}.cls-9{font-size:36.66px;}.cls-10{letter-spacing:-0.01em;}.cls-11{letter-spacing:0em;}.cls-12{letter-spacing:0em;}.cls-13{letter-spacing:0em;}.cls-14{letter-spacing:-0.01em;}.cls-15{letter-spacing:0.01em;}.cls-16{letter-spacing:0em;}.cls-17{letter-spacing:-0.01em;}.cls-18{letter-spacing:-0.01em;}.cls-19{letter-spacing:-0.02em;}.cls-20{letter-spacing:0em;}.cls-21{letter-spacing:-0.02em;}.cls-22{letter-spacing:-0.02em;}.cls-23{letter-spacing:0em;}.cls-24,.cls-27{font-size:27.16px;}.cls-25{letter-spacing:-0.01em;}.cls-27{letter-spacing:-0.02em;}.cls-28{letter-spacing:0em;}.cls-29{letter-spacing:0em;}.cls-30{letter-spacing:-0.01em;}.cls-31{letter-spacing:0em;}.cls-32{letter-spacing:-0.01em;}.cls-33{letter-spacing:0em;}.cls-34{letter-spacing:0.01em;}.cls-35{letter-spacing:-0.01em;}</style></defs><title>Lib_Floor2</title><polyline class="cls-1" points="839.67 1902.62 375.58 1902.62 378.33 1416.75 365.58 1416.75 365.58 684.75 375.58 684.75 375.58 183.68 2143.41 183.68 2143.41 684.88 2152.41 684.75 2154.41 1412.75 2143.41 1412.75 2143.41 1902.62 1663.4 1902.62 1663.4 1976.32 841.65 1976.32 841.65 1818.31"/><polyline class="cls-1" points="1626.67 848.39 1669.38 848.39 1669.38 321.75 1435.36 321.75 1435.36 848.39 1478.67 848.39"/><line class="cls-1" x1="1590.67" y1="848.39" x2="1509.67" y2="848.39"/><polyline class="cls-1" points="1435.36 771.75 1549.67 771.75 1669.38 771.75"/><line class="cls-1" x1="1552.37" y1="848.39" x2="1552.37" y2="771.75"/><polyline class="cls-1" points="1435.36 321.75 1078.67 321.75 1078.67 848.39 998.67 848.39"/><line class="cls-1" x1="969.67" y1="848.39" x2="969.67" y2="369.75"/><polyline class="cls-1" points="1078.67 369.75 959.67 369.75 959.67 320.75"/><line class="cls-1" x1="1954.67" y1="183.68" x2="1954.67" y2="284.75"/><line class="cls-1" x1="1782.67" y1="183.68" x2="1782.67" y2="284.75"/><line class="cls-1" x1="1669.38" y1="183.68" x2="1669.38" y2="284.75"/><line class="cls-1" x1="1545.67" y1="183.68" x2="1545.67" y2="284.75"/><line class="cls-1" x1="1491.67" y1="183.68" x2="1491.67" y2="284.75"/><line class="cls-1" x1="1435.36" y1="183.68" x2="1435.36" y2="284.75"/><line class="cls-1" x1="1078.67" y1="183.68" x2="1078.67" y2="284.75"/><line class="cls-1" x1="1024.67" y1="183.68" x2="1024.67" y2="284.75"/><line class="cls-1" x1="959.67" y1="183.68" x2="959.67" y2="284.75"/><polyline class="cls-1" points="1078.5 609.07 1253.94 609.07 1437.67 609.07"/><line class="cls-1" x1="365.59" y1="1017.75" x2="472.67" y2="1017.75"/><line class="cls-1" x1="365.59" y1="1085.75" x2="472.67" y2="1085.75"/><line class="cls-1" x1="396.59" y1="1051.75" x2="452.67" y2="1051.75"/><line class="cls-1" x1="496.67" y1="1085.75" x2="496.67" y2="1017.75"/><text class="cls-2" transform="translate(562.28 512.74)"><tspan class="cls-3">E</tspan><tspan class="cls-4" x="32.51" y="0">ast </tspan><tspan class="cls-5" x="121.57" y="0">A</tspan><tspan x="157.94" y="0">sian</tspan><tspan class="cls-6" x="3.52" y="58.66">C</tspan><tspan x="38.08" y="58.66">olle</tspan><tspan class="cls-7" x="128.27" y="58.66">c</tspan><tspan x="157.01" y="58.66">tion</tspan></text><text class="cls-2" transform="translate(618.65 1094.78)">Music<tspan class="cls-6" x="-52.84" y="58.66">C</tspan><tspan x="-18.28" y="58.66">olle</tspan><tspan class="cls-7" x="71.91" y="58.66">c</tspan><tspan x="100.65" y="58.66">tion</tspan></text><text class="cls-2" transform="translate(558.28 1670.06)">PS <tspan class="cls-8" x="79.73" y="0">3</tspan><tspan class="cls-4" x="107.69" y="0">517 – Z</tspan></text><text class="cls-9" transform="translate(1199.53 1182.86)">G<tspan class="cls-10" x="28.3" y="0">r</tspan><tspan x="43.33" y="0">oup</tspan><tspan x="-7.24" y="44">Rooms</tspan></text><text class="cls-9" transform="translate(1120.01 248.86)">Study <tspan class="cls-3" x="120.07" y="0">L</tspan><tspan x="141.85" y="0">ou</tspan><tspan class="cls-11" x="190.46" y="0">n</tspan><tspan x="215.76" y="0">ge</tspan><tspan class="cls-12" x="89.82" y="44">2</tspan><tspan x="111.05" y="44">0</tspan><tspan class="cls-13" x="135.72" y="44">0</tspan><tspan x="160.21" y="44">1</tspan></text><text class="cls-9" transform="translate(1764.11 585.3)">G<tspan class="cls-14" x="28.3" y="0">o</tspan><tspan class="cls-15" x="51.4" y="0">v</tspan><tspan class="cls-11" x="73.14" y="0">’</tspan><tspan class="cls-16" x="82.27" y="0">t</tspan><tspan x="12.06" y="44">In</tspan><tspan class="cls-17" x="48.87" y="44">f</tspan><tspan x="62.1" y="44">o</tspan><tspan x="12.1" y="87.99">(</tspan><tspan class="cls-18" x="24.82" y="87.99">L</tspan><tspan x="46.3" y="87.99">C)</tspan></text><text class="cls-9" transform="translate(1953.05 607.3)">Math<tspan x="-9.42" y="44">Boo</tspan><tspan class="cls-19" x="65.77" y="44">k</tspan><tspan x="88.47" y="44">s</tspan></text><rect class="cls-1" x="1739.67" y="388.75" width="340" height="459.63"/><text class="cls-9" transform="translate(1844.56 1046.16)">G<tspan class="cls-14" x="28.3" y="0">o</tspan><tspan class="cls-15" x="51.4" y="0">v</tspan><tspan class="cls-11" x="73.14" y="0">’</tspan><tspan class="cls-16" x="82.27" y="0">t</tspan><tspan x="12.06" y="44">In</tspan><tspan class="cls-17" x="48.87" y="44">f</tspan><tspan x="62.1" y="44">o</tspan><tspan x="12.1" y="87.99">(</tspan><tspan class="cls-18" x="24.82" y="87.99">L</tspan><tspan x="46.3" y="87.99">C)</tspan></text><rect class="cls-1" x="1801.85" y="931.76" width="183.23" height="295.34"/><polyline class="cls-1" points="1193.67 931.76 1078.67 931.76 1078.67 1424.15 1201.67 1424.15"/><polyline class="cls-1" points="1312.36 1424.15 1435.36 1424.15 1435.36 931.76 1320.36 931.76 1320.36 960.75"/><polyline class="cls-1" points="1319.36 981.75 1319.36 1006.75 1774.81 1006.75 1774.81 1168.84 1435.36 1168.84"/><text class="cls-2" transform="translate(1722.63 1525.78)">I<tspan class="cls-8" x="15.59" y="0">T</tspan><tspan x="44.53" y="0">C</tspan><tspan x="-105.86" y="58.66">(</tspan><tspan class="cls-5" x="-88.89" y="58.66">A</tspan><tspan class="cls-20" x="-52.52" y="58.66">dditional </tspan><tspan class="cls-21" x="-108.57" y="117.32">C</tspan><tspan x="-74.01" y="117.32">ompu</tspan><tspan class="cls-22" x="75.82" y="117.32">t</tspan><tspan x="95.66" y="117.32">e</tspan><tspan class="cls-23" x="126.07" y="117.32">r</tspan><tspan class="cls-4" x="146.45" y="117.32">s)</tspan></text><text class="cls-24" transform="translate(1097.07 800.91)">El<tspan class="cls-25" x="26.04" y="0">e</tspan><tspan x="42.66" y="0">v A</tspan></text><polyline class="cls-1" points="1078.67 825.25 1198.17 825.25 1198.17 802.41"/><polyline class="cls-1" points="1078.67 684.75 1198.17 684.75 1198.17 735.6"/><polyline class="cls-1" points="1078.67 759.97 1198.17 759.97 1198.17 777.13"/><line class="cls-1" x1="1198.17" y1="631.38" x2="1198.17" y2="660.38"/><line class="cls-1" x1="1318.67" y1="631.38" x2="1318.67" y2="660.38"/><polyline class="cls-1" points="1435.36 684.75 1318.67 684.75 1318.67 742.25"/><polyline class="cls-1" points="1435.36 824.82 1318.67 824.82 1318.67 767.32"/><circle class="cls-26" cx="1413.13" cy="754.22" r="7.41"/><path class="cls-26" d="M1374.36,737.66l26.52,5.6a2.74,2.74,0,0,1,1.74,4.21l-3.37,5.22a2.75,2.75,0,0,0,0,3l3.37,5.22a2.78,2.78,0,0,1-1.74,4.22l-26.52,5.6a2.79,2.79,0,0,1-3.27-2.05,2.81,2.81,0,0,0-3.06-2.09l-6.37.87a2.8,2.8,0,0,1-3.13-2.37l-.28-1.88a2.73,2.73,0,0,0-2.57-2.36l-20.4-1.22a4.09,4.09,0,0,1-3.82-4.11v-2.78a4.11,4.11,0,0,1,3.82-4.11l20.4-1.22a2.74,2.74,0,0,0,2.57-2.36l.28-1.88a2.81,2.81,0,0,1,3.13-2.37l6.37.87a2.79,2.79,0,0,0,3.06-2.09A2.81,2.81,0,0,1,1374.36,737.66Z"/><path class="cls-26" d="M1111.69,713.31l-.45,2a4,4,0,0,0,1.11,3.77l2.83,2.83a4,4,0,0,1,0,5.74l-2.83,2.83a4.16,4.16,0,0,0-1.11,3.77l.45,2a4.08,4.08,0,0,0,4.28,3.18l24.65-2a4.08,4.08,0,0,0,3.46-2.6h0a4.09,4.09,0,0,1,3.56-2.62l31.94-1.94a4,4,0,0,0,3.8-4v-2.77a4,4,0,0,0-3.8-4l-31.94-1.94a4.06,4.06,0,0,1-3.56-2.63,4,4,0,0,0-3.46-2.59l-24.65-2A3.94,3.94,0,0,0,1111.69,713.31Z"/><circle class="cls-26" cx="1102.32" cy="724.76" r="7.36"/><text class="cls-24" transform="translate(1332.91 977.4)">El<tspan class="cls-25" x="26.04" y="0">e</tspan><tspan x="42.66" y="0">v B</tspan></text><text class="cls-24" transform="translate(1094.37 1633.4)">El<tspan class="cls-25" x="26.04" y="0">e</tspan><tspan x="42.66" y="0">v C</tspan></text><text class="cls-24" transform="translate(1332.87 1633.4)">El<tspan class="cls-25" x="26.04" y="0">e</tspan><tspan x="42.66" y="0">v D</tspan></text><polyline class="cls-1" points="1318.67 1560.32 1318.67 1470.33 1435.36 1470.33 1435.36 1729.81 1319.36 1729.81 1319.36 1634.62"/><line class="cls-1" x1="1318.67" y1="1591.42" x2="1435.36" y2="1591.42"/><line class="cls-1" x1="1318.67" y1="1580.75" x2="1318.67" y2="1602.07"/><circle class="cls-26" cx="1413.13" cy="1531.72" r="7.41"/><path class="cls-26" d="M1374.36,1515.16l26.52,5.6a2.74,2.74,0,0,1,1.74,4.21l-3.37,5.22a2.75,2.75,0,0,0,0,3l3.37,5.22a2.77,2.77,0,0,1-1.74,4.21l-26.52,5.61a2.79,2.79,0,0,1-3.27-2.06,2.81,2.81,0,0,0-3.06-2.08l-6.37.87a2.8,2.8,0,0,1-3.13-2.37l-.28-1.88a2.74,2.74,0,0,0-2.57-2.37l-20.4-1.21a4.09,4.09,0,0,1-3.82-4.11v-2.78a4.11,4.11,0,0,1,3.82-4.11l20.4-1.22a2.74,2.74,0,0,0,2.57-2.37l.28-1.87a2.81,2.81,0,0,1,3.13-2.37l6.37.87a2.79,2.79,0,0,0,3.06-2.09A2.81,2.81,0,0,1,1374.36,1515.16Z"/><path class="cls-26" d="M1111.69,1517.8l-.45,2a4,4,0,0,0,1.11,3.77l2.83,2.83a4,4,0,0,1,0,5.74l-2.83,2.84a4.13,4.13,0,0,0-1.11,3.76l.45,2a4.08,4.08,0,0,0,4.28,3.18l24.65-2a4.09,4.09,0,0,0,3.46-2.59h0a4.09,4.09,0,0,1,3.56-2.63l31.94-1.94a4,4,0,0,0,3.8-4v-2.76a4,4,0,0,0-3.8-4l-31.94-1.93a4.09,4.09,0,0,1-3.56-2.63,4,4,0,0,0-3.46-2.59l-24.65-2A3.92,3.92,0,0,0,1111.69,1517.8Z"/><circle class="cls-26" cx="1102.32" cy="1529.24" r="7.36"/><polyline class="cls-1" points="1195.36 1560.32 1195.36 1470.33 1078.67 1470.33 1078.67 1729.81 1194.67 1729.81 1194.67 1634.62"/><line class="cls-1" x1="1195.36" y1="1591.42" x2="1078.67" y2="1591.42"/><line class="cls-1" x1="1195.36" y1="1580.75" x2="1195.36" y2="1602.07"/><line class="cls-1" x1="1318.67" y1="1652.69" x2="1435.36" y2="1652.69"/><line class="cls-1" x1="1080.08" y1="1652.69" x2="1196.76" y2="1652.69"/><polyline class="cls-1" points="1428.33 1976.32 1428.33 1788.31 1080.08 1788.31 1080.08 1976.32"/><line class="cls-1" x1="1455.32" y1="1818.31" x2="1641.31" y2="1818.31"/><line class="cls-1" x1="1663.4" y1="1902.62" x2="1663.4" y2="1818.31"/><line class="cls-1" x1="870.67" y1="1818.31" x2="1056.66" y2="1818.31"/><line class="cls-1" x1="2152.15" y1="1017.75" x2="2050.06" y2="1017.75"/><line class="cls-1" x1="2151.15" y1="1085.75" x2="2050.06" y2="1085.75"/><line class="cls-1" x1="2126.15" y1="1051.75" x2="2070.06" y2="1051.75"/><line class="cls-1" x1="2026.06" y1="1085.75" x2="2026.06" y2="1017.75"/><path class="cls-26" d="M983.1,213.37l1.65-.37a3.29,3.29,0,0,1,3.09.91l2.33,2.32a3.31,3.31,0,0,0,4.71,0l2.32-2.32a3.41,3.41,0,0,1,3.1-.91l1.64.37a3.34,3.34,0,0,1,2.61,3.52l-1.67,20.23a3.34,3.34,0,0,1-2.13,2.83h0a3.39,3.39,0,0,0-2.16,2.93L997,269.09a3.34,3.34,0,0,1-3.32,3.13h-2.27a3.31,3.31,0,0,1-3.32-3.13l-1.59-26.21a3.38,3.38,0,0,0-2.16-2.93,3.31,3.31,0,0,1-2.13-2.83l-1.67-20.23A3.23,3.23,0,0,1,983.1,213.37Z"/><circle class="cls-26" cx="992.49" cy="205.68" r="6.04"/><circle class="cls-26" cx="1518.64" cy="205.72" r="6.08"/><path class="cls-26" d="M1532.24,237.54l-4.6-21.77a2.25,2.25,0,0,0-3.46-1.42l-4.28,2.77a2.28,2.28,0,0,1-2.46,0l-4.29-2.77a2.27,2.27,0,0,0-3.45,1.42l-4.6,21.77a2.29,2.29,0,0,0,1.68,2.69,2.31,2.31,0,0,1,1.72,2.51l-.72,5.23a2.3,2.3,0,0,0,2,2.57l1.54.23a2.25,2.25,0,0,1,1.94,2.11l1,16.74a3.36,3.36,0,0,0,3.37,3.15h2.29a3.39,3.39,0,0,0,3.37-3.15l1-16.74a2.25,2.25,0,0,1,1.94-2.11l1.54-.23a2.31,2.31,0,0,0,2-2.57l-.72-5.23a2.28,2.28,0,0,1,1.72-2.51A2.33,2.33,0,0,0,1532.24,237.54Z"/><text class="cls-27" transform="translate(1468.92 1892.01)">C<tspan class="cls-28" x="19.2" y="0">onf Room</tspan><tspan class="cls-29"><tspan x="45.56" y="32.59">2</tspan><tspan class="cls-30" x="61.28" y="32.59">0</tspan><tspan class="cls-31" x="79.29" y="32.59">3</tspan><tspan class="cls-28" x="94.96" y="32.59">2</tspan></tspan></text><text class="cls-24" transform="translate(877.49 1883.33)">Music<tspan x="-21.29" y="32.59">Lib</tspan><tspan class="cls-32" x="21.45" y="32.59">r</tspan><tspan x="32.64" y="32.59">a</tspan><tspan class="cls-33" x="49.13" y="32.59">r</tspan><tspan x="60.4" y="32.59">ian</tspan><tspan class="cls-29" x="11.01" y="65.18">2</tspan><tspan class="cls-31" x="26.74" y="65.18">0</tspan><tspan x="44.88" y="65.18">12</tspan></text><text class="cls-24" transform="translate(1038.35 1915.92)"><tspan class="cls-29" x="-30.01" y="32.59">2</tspan><tspan class="cls-31" x="-14.28" y="32.59">0</tspan><tspan x="3.86" y="32.59">13</tspan></text><text class="cls-24" transform="translate(988.52 824.1)"><tspan class="cls-29">2</tspan><tspan x="15.72" y="0">006</tspan></text><text class="cls-24" transform="translate(1028.88 750.11) rotate(-90)">Music Ref &amp; Rese<tspan class="cls-34" x="238.09" y="0">r</tspan><tspan class="cls-35" x="249.9" y="0">v</tspan><tspan class="cls-28" x="265.19" y="0">e</tspan></text><text class="cls-9" transform="translate(1560.74 253.94)"><tspan class="cls-12">2</tspan><tspan x="21.23" y="0">060</tspan></text><text class="cls-9" transform="translate(1680.87 253.94)"><tspan class="cls-12">2</tspan><tspan x="21.23" y="0">059</tspan></text><text class="cls-9" transform="translate(1822.06 253.94)"><tspan class="cls-12">2</tspan><tspan x="21.23" y="0">058</tspan></text><text class="cls-9" transform="translate(2003.5 253.94)"><tspan class="cls-12">2</tspan><tspan x="21.23" y="0">0</tspan><tspan class="cls-18" x="45.9" y="0">5</tspan><tspan x="66.84" y="0">7</tspan></text></svg>