<svg id="Layer_1" data-name="Layer 1" xmlns="http://www.w3.org/2000/svg" viewBox="0 0 2520 2160"><defs><style>.cls-1{fill:none;stroke:#fff;stroke-miterlimit:10;stroke-width:6px;}.cls-2{font-size:48.88px;}.cls-15,.cls-2,.cls-28,.cls-30,.cls-38,.cls-47,.cls-7{fill:#fff;}.cls-15,.cls-2,.cls-28,.cls-30,.cls-38,.cls-7{font-family:Montserrat-SemiBold, Montserrat;font-weight:700;}.cls-3{letter-spacing:-0.01em;}.cls-4{letter-spacing:0em;}.cls-5{letter-spacing:0em;}.cls-6{letter-spacing:0em;}.cls-7{font-size:36.66px;}.cls-8{letter-spacing:-0.02em;}.cls-9{letter-spacing:0.01em;}.cls-10{letter-spacing:0em;}.cls-11{letter-spacing:-0.01em;}.cls-12{letter-spacing:0em;}.cls-13{letter-spacing:-0.01em;}.cls-14{letter-spacing:0em;}.cls-15{font-size:27.16px;}.cls-16{letter-spacing:-0.02em;}.cls-17{letter-spacing:0em;}.cls-18{letter-spacing:0em;}.cls-19{letter-spacing:-0.01em;}.cls-20{letter-spacing:-0.02em;}.cls-21{letter-spacing:0em;}.cls-22{letter-spacing:0.03em;}.cls-23{letter-spacing:-0.01em;}.cls-24{letter-spacing:-0.02em;}.cls-25{letter-spacing:-0.05em;}.cls-26{letter-spacing:-0.02em;}.cls-27{letter-spacing:-0.02em;}.cls-28{font-size:33px;}.cls-29{letter-spacing:-0.01em;}.cls-30{font-size:21px;}.cls-31{letter-spacing:0em;}.cls-32{letter-spacing:0em;}.cls-33{letter-spacing:0em;}.cls-34{letter-spacing:-0.01em;}.cls-35{letter-spacing:0.01em;}.cls-36{letter-spacing:-0.01em;}.cls-37{letter-spacing:0em;}.cls-38{font-size:48.88px;}.cls-39{letter-spacing:-0.01em;}.cls-40{letter-spacing:0em;}.cls-41{letter-spacing:-0.01em;}.cls-42{letter-spacing:0em;}.cls-43{letter-spacing:0em;}.cls-44{letter-spacing:0.01em;}.cls-45{letter-spacing:-0.01em;}.cls-46{letter-spacing:0em;}</style></defs><title>Lib_Floor3</title><line class="cls-1" x1="1663.4" y1="1902.62" x2="1663.4" y2="1779.87"/><polyline class="cls-1" points="840.68 1810.39 1026.67 1810.39 1026.67 1976.32"/><polyline class="cls-1" points="839.67 1902.62 375.58 1902.62 378.33 1416.75 365.58 1416.75 365.58 684.75 375.58 684.75 375.58 183.68 2143.41 183.68 2143.41 684.88 2152.41 684.75 2154.41 1412.75 2143.41 1412.75 2143.41 1902.62 1663.4 1902.62 1663.4 1976.32 841.65 1976.32 841.65 1781.75"/><polyline class="cls-1" points="408.67 1416.75 498.67 1416.75 498.67 1144.75"/><polyline class="cls-1" points="498.67 1114.08 498.67 960.75 1196.67 960.75 1196.67 1114.08"/><line class="cls-1" x1="476.67" y1="1009.75" x2="1196.67" y2="1009.75"/><line class="cls-1" x1="842.67" y1="1114.08" x2="842.67" y2="1009.75"/><polyline class="cls-1" points="842.67 1144.75 842.67 1256.27 960.67 1256.27 960.67 1355.04"/><line class="cls-1" x1="960.67" y1="1392.92" x2="960.67" y2="1490.75"/><line class="cls-1" x1="1196.67" y1="1144.75" x2="1196.67" y2="1545.08"/><polyline class="cls-1" points="1196.67 1490.75 841.67 1490.75 841.67 1509.75"/><line class="cls-1" x1="841.67" y1="1533.75" x2="841.67" y2="1758.75"/><polyline class="cls-1" points="1080.67 1490.75 1080.67 1733.75 1237.67 1733.75"/><line class="cls-1" x1="1080.67" y1="1592.75" x2="1196.67" y2="1592.75"/><line class="cls-1" x1="1196.67" y1="1567.75" x2="1196.67" y2="1606.75"/><polyline class="cls-1" points="1196.67 1624.25 1196.67 1662.5 1080.67 1661.75"/><line class="cls-1" x1="1196.67" y1="1680.25" x2="1196.67" y2="1719.25"/><line class="cls-1" x1="1080.67" y1="1647.75" x2="842.67" y2="1647.75"/><polyline class="cls-1" points="1019.67 1647.75 1019.67 1743.75 1056.66 1743.75"/><polyline class="cls-1" points="990.67 1723.75 990.67 1743.75 842.67 1743.75"/><line class="cls-1" x1="841.67" y1="1723.75" x2="376.54" y2="1723.75"/><polyline class="cls-1" points="788.66 1723.75 788.66 1782.31 760.17 1782.31"/><line class="cls-1" x1="809.67" y1="1810.39" x2="842.67" y2="1810.39"/><polyline class="cls-1" points="760.17 1810.39 793.17 1810.39 793.17 1902.62"/><line class="cls-1" x1="730.34" y1="1810.39" x2="730.34" y2="1902.62"/><polyline class="cls-1" points="639.34 1810.39 672.34 1810.39 672.34 1902.62"/><line class="cls-1" x1="707.67" y1="1810.39" x2="672.34" y2="1810.39"/><line class="cls-1" x1="613" y1="1810.39" x2="613" y2="1902.62"/><line class="cls-1" x1="495.67" y1="1810.39" x2="495.67" y2="1902.62"/><polyline class="cls-1" points="523.34 1810.39 556.34 1810.39 556.34 1902.62"/><line class="cls-1" x1="591.67" y1="1810.39" x2="556.34" y2="1810.39"/><polyline class="cls-1" points="473 1810.39 437.67 1810.39 437.67 1902.62"/><line class="cls-1" x1="416" y1="1810.39" x2="375.67" y2="1810.39"/><polyline class="cls-1" points="639.34 1779.87 672.34 1779.87 672.34 1722.64"/><line class="cls-1" x1="707.67" y1="1779.87" x2="672.34" y2="1779.87"/><polyline class="cls-1" points="522.17 1779.87 555.17 1779.87 555.17 1722.64"/><line class="cls-1" x1="590.5" y1="1779.87" x2="555.17" y2="1779.87"/><line class="cls-1" x1="730.34" y1="1722.28" x2="730.34" y2="1784.51"/><line class="cls-1" x1="613" y1="1722.28" x2="613" y2="1784.51"/><line class="cls-1" x1="495.67" y1="1722.28" x2="495.67" y2="1784.51"/><line class="cls-1" x1="1275.67" y1="1733.75" x2="1506.67" y2="1733.75"/><polyline class="cls-1" points="1542.67 1733.75 1669.67 1733.75 1669.67 1336.75 1317.67 1336.75 1317.67 1552.75"/><line class="cls-1" x1="1317.67" y1="1336.75" x2="1317.67" y2="1149.75"/><polyline class="cls-1" points="1669.67 1336.75 1669.67 926.75 1317.67 926.75 1317.67 948.75"/><polyline class="cls-1" points="1317.67 980.75 1317.67 1009.75 1317.67 1114.08"/><polyline class="cls-1" points="1438.67 926.75 1438.67 1009.75 1317.67 1009.75"/><line class="cls-1" x1="1317.67" y1="1573.75" x2="1317.67" y2="1606.75"/><line class="cls-1" x1="1317.67" y1="1628.75" x2="1317.67" y2="1733.75"/><polyline class="cls-1" points="1317.67 1468.75 1438.67 1468.75 1438.67 1652.69 1317.67 1652.69"/><line class="cls-1" x1="1317.67" y1="1592.75" x2="1438.67" y2="1592.75"/><line class="cls-1" x1="1052.67" y1="1810.39" x2="1243.67" y2="1810.39"/><polyline class="cls-1" points="1275.67 1810.39 1406.67 1810.39 1499.67 1810.39 1499.67 1976.32"/><line class="cls-1" x1="1523.67" y1="1810.39" x2="1663.4" y2="1810.39"/><line class="cls-1" x1="1404.67" y1="1864.75" x2="1404.67" y2="1810.39"/><polyline class="cls-1" points="1499.67 1902.62 1404.67 1902.62 1404.67 1887.36"/><line class="cls-1" x1="1368.67" y1="1921.75" x2="1368.67" y2="1976.32"/><polyline class="cls-1" points="1382.67 1902.62 1382.67 1921.75 1287.67 1921.75 1287.67 1902.62 1275.67 1902.62"/><line class="cls-1" x1="1260" y1="1976.22" x2="1260" y2="1902.62"/><line class="cls-1" x1="1138.67" y1="1902.62" x2="1241.67" y2="1902.62"/><line class="cls-1" x1="1138.67" y1="1976.32" x2="1138.67" y2="1810.39"/><line class="cls-1" x1="1669.67" y1="843.39" x2="1669.67" y2="183.68"/><polyline class="cls-1" points="1424.67 183.68 1424.67 315.75 1448.67 315.75 1448.67 357.75"/><polyline class="cls-1" points="1669.67 357.75 1424.67 357.75 1424.67 574.75"/><polyline class="cls-1" points="1638.67 843.39 1436.67 843.39 1317.67 843.39 1317.67 736.75"/><polyline class="cls-1" points="1317.67 616.59 1317.67 574.75 1438.67 574.75 1438.67 843.39"/><line class="cls-1" x1="1317.67" y1="771.75" x2="1438.67" y2="771.75"/><polyline class="cls-1" points="1438.67 604.59 1317.67 604.59 1274.67 604.59"/><polyline class="cls-1" points="1317.67 716.75 1317.67 680.75 1438.67 680.75"/><line class="cls-1" x1="1317.67" y1="630.59" x2="1317.67" y2="661.75"/><line class="cls-1" x1="498.67" y1="1080" x2="365.59" y2="1080"/><line class="cls-1" x1="365.59" y1="1009.75" x2="445.37" y2="1009.75"/><line class="cls-1" x1="421.67" y1="955.75" x2="421.67" y2="1010.75"/><polyline class="cls-1" points="498.67 834.75 498.67 847.75 498.67 926.75 1196.67 926.75 1196.67 903.75"/><line class="cls-1" x1="1082.67" y1="847.75" x2="498.67" y2="847.75"/><line class="cls-1" x1="1084.67" y1="770.75" x2="1084.67" y2="925.75"/><line class="cls-1" x1="1196.67" y1="885.75" x2="1196.67" y2="812.75"/><line class="cls-1" x1="1196.67" y1="793.75" x2="1196.67" y2="713.75"/><polyline class="cls-1" points="1196.67 767.75 1073.67 767.75 1073.67 574.75 1196.67 574.75 1196.67 602.75"/><polyline class="cls-1" points="1196.67 692.75 1196.67 680.75 1073.67 680.75"/><line class="cls-1" x1="1196.67" y1="624.59" x2="1196.67" y2="659.75"/><line class="cls-1" x1="1242.67" y1="604.59" x2="1075.67" y2="604.59"/><line class="cls-1" x1="1196.67" y1="828.09" x2="1082.67" y2="828.09"/><text class="cls-2" transform="translate(1098.31 405.22)">G<tspan class="cls-3" x="37.74" y="0">r</tspan><tspan class="cls-4" x="57.88" y="0">a</tspan><tspan x="87.79" y="0">dy Study</tspan><tspan x="79.73" y="58.66">Room</tspan><tspan x="103" y="117.32">31</tspan><tspan class="cls-5" x="150.07" y="117.32">3</tspan><tspan class="cls-6" x="178.28" y="117.32">2</tspan></text><line class="cls-1" x1="1082.67" y1="489.84" x2="1082.67" y2="574.75"/><line class="cls-1" x1="1082.67" y1="327.84" x2="1082.67" y2="460.75"/><line class="cls-1" x1="1082.67" y1="183.68" x2="1082.67" y2="303.06"/><polyline class="cls-1" points="1023 183.68 1023 283.42 1033.67 283.42"/><line class="cls-1" x1="1045.67" y1="283.42" x2="1061" y2="283.42"/><line class="cls-1" x1="1001.67" y1="280.09" x2="964.34" y2="280.09"/><line class="cls-1" x1="964.34" y1="183.68" x2="964.34" y2="313.42"/><path class="cls-1" d="M1082.67,357.75H916.34V273.23H498.67V812.75"/><line class="cls-1" x1="964.34" y1="250.75" x2="928.34" y2="250.75"/><line class="cls-1" x1="908.67" y1="250.75" x2="872.67" y2="250.75"/><polyline class="cls-1" points="811 250.75 847 250.75 847 183.68"/><polyline class="cls-1" points="754.67 250.75 790.67 250.75 790.67 183.68"/><line class="cls-1" x1="732.67" y1="250.75" x2="696.67" y2="250.75"/><line class="cls-1" x1="665.34" y1="250.75" x2="674.34" y2="250.75"/><line class="cls-1" x1="683" y1="250.75" x2="674.34" y2="250.75"/><polyline class="cls-1" points="549.34 250.75 558.34 250.75 558.34 183.68"/><line class="cls-1" x1="567" y1="250.75" x2="558.34" y2="250.75"/><polyline class="cls-1" points="425.33 250.75 436.33 250.75 436.33 183.68"/><line class="cls-1" x1="475" y1="250.75" x2="436.34" y2="250.75"/><line class="cls-1" x1="537" y1="250.75" x2="494" y2="250.75"/><line class="cls-1" x1="651.67" y1="250.75" x2="580" y2="250.75"/><polyline class="cls-1" points="436.33 470.99 436.33 273.23 425.33 273.23"/><line class="cls-1" x1="436.34" y1="492.55" x2="436.34" y2="556.09"/><line class="cls-1" x1="436.34" y1="572.82" x2="436.34" y2="636.36"/><line class="cls-1" x1="436.34" y1="654.99" x2="436.34" y2="718.52"/><line class="cls-1" x1="436.34" y1="731.47" x2="436.34" y2="824.09"/><line class="cls-1" x1="436.34" y1="837.11" x2="436.34" y2="854.09"/><polyline class="cls-1" points="436.33 870.09 436.33 925.75 421.67 925.75 421.67 939.42"/><line class="cls-1" x1="847" y1="850.09" x2="847" y2="925.75"/><text class="cls-7" transform="translate(975.79 1078.1)">Special<tspan class="cls-8" x="-36.57" y="44">C</tspan><tspan x="-10.65" y="44">olle</tspan><tspan class="cls-9" x="56.99" y="44">c</tspan><tspan class="cls-10" x="78.55" y="44">tions</tspan><tspan x="-44.73" y="87.99">&amp; Uni</tspan><tspan class="cls-11" x="55.91" y="87.99">v</tspan><tspan class="cls-10" x="76.55" y="87.99">e</tspan><tspan class="cls-12" x="99.35" y="87.99">r</tspan><tspan x="114.64" y="87.99">si</tspan><tspan class="cls-13" x="144.12" y="87.99">t</tspan><tspan x="159.3" y="87.99">y</tspan><tspan x="-12.94" y="131.99">A</tspan><tspan class="cls-13" x="14.52" y="131.99">r</tspan><tspan class="cls-14" x="29.55" y="131.99">c</tspan><tspan x="50.67" y="131.99">hi</tspan><tspan class="cls-11" x="86.38" y="131.99">v</tspan><tspan class="cls-10" x="107.02" y="131.99">es</tspan><tspan x="21.04" y="175.98">3060</tspan></text><text class="cls-15" transform="translate(868.64 897.96)"><tspan class="cls-16">C</tspan><tspan class="cls-17" x="19.2" y="0">onf Rm 30</tspan><tspan class="cls-18" x="162.86" y="0">5</tspan><tspan x="178.59" y="0">2</tspan></text><text class="cls-15" transform="translate(1097.57 805.8)">El<tspan class="cls-19" x="26.04" y="0">e</tspan><tspan x="42.66" y="0">v A</tspan></text><text class="cls-7" transform="translate(1452.46 1112.46)">Map<tspan class="cls-8" x="-53.8" y="44">C</tspan><tspan x="-27.88" y="44">olle</tspan><tspan class="cls-9" x="39.76" y="44">c</tspan><tspan class="cls-10" x="61.32" y="44">tion</tspan><tspan x="9.59" y="87.99">3111</tspan></text><text class="cls-15" transform="translate(1334.91 977.4)">El<tspan class="cls-19" x="26.04" y="0">e</tspan><tspan x="42.66" y="0">v B</tspan></text><text class="cls-15" transform="translate(1451.03 254.86)"><tspan class="cls-20">F</tspan><tspan class="cls-21" x="16.84" y="0">a</tspan><tspan x="33.46" y="0">cu</tspan><tspan class="cls-22" x="67.73" y="0">l</tspan><tspan class="cls-23" x="76.28" y="0">t</tspan><tspan x="87.53" y="0">y Study</tspan><tspan x="54.34" y="32.59">Room</tspan><tspan x="65.88" y="65.18">3134</tspan></text><text class="cls-7" transform="translate(1510.11 1505.45)">I<tspan class="cls-11" x="11.69" y="0">o</tspan><tspan class="cls-24" x="34.79" y="0">w</tspan><tspan x="67.86" y="0">a</tspan><tspan class="cls-25" x="-43.59" y="44">W</tspan><tspan x="-3.67" y="44">o</tspan><tspan class="cls-4" x="19.98" y="44">m</tspan><tspan x="58.77" y="44">e</tspan><tspan class="cls-14" x="81.57" y="44">n</tspan><tspan class="cls-26" x="106.5" y="44">’</tspan><tspan class="cls-10" x="114.83" y="44">s</tspan><tspan x="-35.76" y="87.99">A</tspan><tspan class="cls-13" x="-8.3" y="87.99">r</tspan><tspan class="cls-14" x="6.73" y="87.99">c</tspan><tspan x="27.85" y="87.99">hi</tspan><tspan class="cls-11" x="63.55" y="87.99">v</tspan><tspan class="cls-10" x="84.19" y="87.99">es</tspan><tspan x="-1.89" y="131.99">3094</tspan></text><text class="cls-7" transform="translate(417.84 896.27) rotate(-90)">Special <tspan class="cls-27" x="145.88" y="0">C</tspan><tspan x="171.8" y="0">olle</tspan><tspan class="cls-9" x="239.44" y="0">c</tspan><tspan x="261" y="0">tions Staff Offi</tspan><tspan class="cls-3" x="534.39" y="0">c</tspan><tspan x="555.39" y="0">es</tspan></text><text class="cls-28" transform="translate(569.84 231.46)">Staff Offi<tspan class="cls-29" x="152.56" y="0">c</tspan><tspan x="171.47" y="0">es</tspan></text><text class="cls-15" transform="translate(1095.37 1639.78)">El<tspan class="cls-19" x="26.04" y="0">e</tspan><tspan x="42.66" y="0">v C</tspan></text><text class="cls-15" transform="translate(1334.02 1632.4)">El<tspan class="cls-19" x="26.04" y="0">e</tspan><tspan x="42.66" y="0">v D</tspan></text><text class="cls-7" transform="translate(933.67 1861.45)"><tspan x="-45.63" y="44">3083</tspan></text><text class="cls-30" transform="translate(1171.58 1838.21)">S<tspan class="cls-31" x="13.21" y="0">c</tspan><tspan class="cls-32" x="25.31" y="0">h</tspan><tspan class="cls-33" x="39.79" y="0">ool of Lib</tspan><tspan class="cls-34" x="138.89" y="0">r</tspan><tspan x="147.54" y="0">a</tspan><tspan class="cls-35" x="160.29" y="0">r</tspan><tspan x="169.43" y="0">y &amp;</tspan><tspan x="-8.21" y="25.2">In</tspan><tspan class="cls-36" x="12.87" y="25.2">f</tspan><tspan x="20.45" y="25.2">o</tspan><tspan class="cls-37" x="34" y="25.2">r</tspan><tspan x="42.71" y="25.2">mation Scie</tspan><tspan class="cls-32" x="170.81" y="25.2">n</tspan><tspan class="cls-36" x="185.3" y="25.2">c</tspan><tspan x="197.33" y="25.2">e</tspan><tspan x="74.69" y="50.4">3087</tspan></text><text class="cls-38" transform="translate(1755.64 976.99)"><tspan class="cls-39">C</tspan><tspan x="34.8" y="0">u</tspan><tspan class="cls-40" x="68.09" y="0">r</tspan><tspan class="cls-41" x="88.38" y="0">r</tspan><tspan x="108.42" y="0">ent</tspan><tspan x="-12.15" y="58.66">&amp; Bou</tspan><tspan class="cls-42" x="137.86" y="58.66">n</tspan><tspan x="171.59" y="58.66">d</tspan><tspan x="-10.14" y="117.31">Jou</tspan><tspan class="cls-40" x="80.43" y="117.31">r</tspan><tspan class="cls-43" x="100.72" y="117.31">nals</tspan><tspan x="36.29" y="175.97">A – Z</tspan><tspan x="36.54" y="234.62">30</tspan><tspan class="cls-41" x="97.88" y="234.62">9</tspan><tspan x="128.04" y="234.62">3</tspan></text><text class="cls-7" transform="translate(1729.84 726.45) rotate(-90)">T<tspan class="cls-4" x="22.07" y="0">h</tspan><tspan x="47.37" y="0">eses &amp; Disse</tspan><tspan class="cls-44" x="278.3" y="0">r</tspan><tspan x="294.25" y="0">tations</tspan><tspan x="67.55" y="44">30</tspan><tspan class="cls-45" x="113.56" y="44">9</tspan><tspan x="136.18" y="44">3 </tspan><tspan class="cls-25" x="167.64" y="44">W</tspan><tspan x="207.56" y="44">est </tspan><tspan class="cls-25" x="274.91" y="44">W</tspan><tspan class="cls-46" x="314.84" y="44">all</tspan></text><circle class="cls-47" cx="1415.07" cy="727.13" r="7.41"/><path class="cls-47" d="M1376.3,710.57l26.52,5.6a2.75,2.75,0,0,1,1.74,4.21l-3.37,5.22a2.71,2.71,0,0,0,0,3l3.37,5.22a2.78,2.78,0,0,1-1.74,4.21l-26.52,5.61a2.79,2.79,0,0,1-3.27-2.06,2.81,2.81,0,0,0-3.06-2.08l-6.37.87a2.8,2.8,0,0,1-3.13-2.37l-.28-1.88a2.75,2.75,0,0,0-2.58-2.37l-20.39-1.21a4.09,4.09,0,0,1-3.83-4.11v-2.79a4.11,4.11,0,0,1,3.83-4.1l20.39-1.22a2.75,2.75,0,0,0,2.58-2.37l.28-1.88a2.81,2.81,0,0,1,3.13-2.36l6.37.87a2.79,2.79,0,0,0,3.06-2.09A2.8,2.8,0,0,1,1376.3,710.57Z"/><path class="cls-47" d="M1107.69,715.59l-.45,2a4,4,0,0,0,1.11,3.76l2.83,2.84a4,4,0,0,1,0,5.74l-2.83,2.83a4.16,4.16,0,0,0-1.11,3.77l.45,2a4.07,4.07,0,0,0,4.28,3.18l24.65-2a4.07,4.07,0,0,0,3.46-2.59h0a4.09,4.09,0,0,1,3.56-2.62l31.94-1.94a4,4,0,0,0,3.8-4v-2.77a4,4,0,0,0-3.8-4l-31.94-1.94a4.07,4.07,0,0,1-3.56-2.63,4,4,0,0,0-3.46-2.59l-24.65-2A3.94,3.94,0,0,0,1107.69,715.59Z"/><circle class="cls-47" cx="1098.32" cy="727.03" r="7.36"/><path class="cls-47" d="M985.38,211l1.53-.34a3.07,3.07,0,0,1,2.87.84l2.16,2.16a3.08,3.08,0,0,0,4.37,0l2.17-2.16a3.16,3.16,0,0,1,2.87-.84l1.53.34a3.11,3.11,0,0,1,2.42,3.27L1003.75,233a3.11,3.11,0,0,1-2,2.64h0a3.12,3.12,0,0,0-2,2.71l-1.48,24.35a3.09,3.09,0,0,1-3.08,2.9H993.1a3.07,3.07,0,0,1-3.08-2.9l-1.48-24.35a3.11,3.11,0,0,0-2-2.71,3.06,3.06,0,0,1-2-2.64L983,214.26A3,3,0,0,1,985.38,211Z"/><circle class="cls-47" cx="994.1" cy="203.85" r="5.61"/><circle class="cls-47" cx="1415.07" cy="1554.22" r="7.41"/><path class="cls-47" d="M1376.3,1537.65l26.52,5.6a2.75,2.75,0,0,1,1.74,4.21l-3.37,5.22a2.72,2.72,0,0,0,0,3l3.37,5.22a2.78,2.78,0,0,1-1.74,4.21l-26.52,5.6a2.78,2.78,0,0,1-3.27-2,2.82,2.82,0,0,0-3.06-2.09l-6.37.87a2.79,2.79,0,0,1-3.13-2.37l-.28-1.88a2.75,2.75,0,0,0-2.58-2.36l-20.39-1.22a4.08,4.08,0,0,1-3.83-4.11v-2.78a4.11,4.11,0,0,1,3.83-4.11l20.39-1.22a2.73,2.73,0,0,0,2.58-2.36l.28-1.88a2.81,2.81,0,0,1,3.13-2.37l6.37.87a2.77,2.77,0,0,0,3.06-2.09A2.81,2.81,0,0,1,1376.3,1537.65Z"/><path class="cls-47" d="M1107.69,1542.68l-.45,2a4,4,0,0,0,1.11,3.77l2.83,2.83a4,4,0,0,1,0,5.74l-2.83,2.84a4.13,4.13,0,0,0-1.11,3.76l.45,2a4.08,4.08,0,0,0,4.28,3.18l24.65-2a4.09,4.09,0,0,0,3.46-2.59h0a4.09,4.09,0,0,1,3.56-2.63l31.94-1.94a4,4,0,0,0,3.8-4v-2.77a4,4,0,0,0-3.8-4l-31.94-1.94a4.06,4.06,0,0,1-3.56-2.62,4,4,0,0,0-3.46-2.59l-24.65-2A3.92,3.92,0,0,0,1107.69,1542.68Z"/><circle class="cls-47" cx="1098.32" cy="1554.12" r="7.36"/><line class="cls-1" x1="2047.67" y1="1010.75" x2="2153.31" y2="1010.75"/><line class="cls-1" x1="2047.67" y1="1078.18" x2="2153.31" y2="1078.18"/><line class="cls-1" x1="2033" y1="1011.85" x2="2033" y2="1077.09"/></svg>