<?xml version="1.0" encoding="utf-8"?>
<!-- Generator: Adobe Illustrator 22.1.0, SVG Export Plug-In . SVG Version: 6.00 Build 0)  -->
<svg version="1.1" id="Layer_1" xmlns="http://www.w3.org/2000/svg" xmlns:xlink="http://www.w3.org/1999/xlink" x="0px" y="0px"
	 viewBox="0 0 3840 2160" style="enable-background:new 0 0 3840 2160;" xml:space="preserve">
<style type="text/css">
	.st0{display:none;fill:#27A8E0;}
	.st1{fill:#FFFFFF;}
	.st2{fill:none;}
	.st3{fill:none;stroke:#FFFFFF;stroke-width:6;stroke-miterlimit:10;}
	.st4{font-family:'Montserrat-SemiBold';}
	.st5{font-size:185px;}
	.st6{font-size:90px;}
	.st7{font-size:115px;}
	.st8{font-size:67.9732px;}
	.st9{font-size:48.8836px;}
	.st10{font-size:36.6627px;}
	.st11{font-size:27.1575px;}
	.st12{font-size:33px;}
	.st13{font-size:21px;}
	.st14{font-size:48.88px;}
</style>
<rect class="st0" width="3840" height="2161.3"/>
<text transform="matrix(1 0 0 1 406.7379 321.1724)" class="st4 st5">3rd Floor</text>
<text transform="matrix(1 0 0 1 543.6525 492.9534)" class="st4 st6">Main Library</text>
<text transform="matrix(1 0 0 1 651.1432 1030.8438)"><tspan x="0" y="0" class="st4 st7">Floors</tspan><tspan x="-170.7" y="165.6" class="st4 st7">1</tspan><tspan x="-126.9" y="165.6" class="st1 st4 st7">  </tspan><tspan x="-63.4" y="165.6" class="st4 st7"> 2   </tspan><tspan x="130.5" y="165.6" class="st1 st4 st7">3</tspan><tspan x="197.4" y="165.6" class="st4 st7">   4   5</tspan></text>
<g>
	<g>
		<g>
			<g>
				<line class="st2" x1="759.1" y1="1825.2" x2="902.7" y2="1968.8"/>
			</g>
			<g>
				<line class="st2" x1="759.1" y1="1968.8" x2="902.7" y2="1825.2"/>
			</g>
		</g>
		<g>
			<g>
				<path d="M832.3,1996.2c-25.2,0-50.4-9.6-69.6-28.8c-18.6-18.6-28.8-43.3-28.8-69.6c0-26.3,10.2-51,28.8-69.6l0,0l0,0
					c18.6-18.6,43.3-28.8,69.6-28.8c26.3,0,51,10.2,69.6,28.8c18.6,18.6,28.8,43.3,28.8,69.6c0,26.3-10.2,51-28.8,69.6
					C882.7,1986.6,857.5,1996.2,832.3,1996.2z M832.3,1819.3c-21,0-40.7,8.2-55.5,23l0,0c-14.8,14.8-23,34.6-23,55.5
					c0,21,8.2,40.7,23,55.5c15.3,15.3,35.4,23,55.5,23c20.1,0,40.2-7.7,55.5-23c14.8-14.8,23-34.6,23-55.5c0-21-8.2-40.7-23-55.5
					C873,1827.5,853.3,1819.3,832.3,1819.3z M769.8,1835.3L769.8,1835.3L769.8,1835.3z"/>
			</g>
			<g>
				<polygon points="833.2,1910.5 871.6,1934.1 830.3,1842.6 792.1,1934.1 				"/>
			</g>
		</g>
	</g>
	<text transform="matrix(1 0 0 1 804.7946 1780.3926)" class="st4 st8">N</text>
</g>
<line class="st3" x1="2919.1" y1="1882.9" x2="2919.1" y2="1760.1"/>
<polyline class="st3" points="2096.4,1790.6 2282.4,1790.6 2282.4,1956.6 "/>
<image style="display:none;overflow:visible;opacity:0.35;" width="1256" height="1210" xlink:href="39640368A22C176F.png"  transform="matrix(1.6322 0 0 1.6322 1490.6716 40)">
</image>
<polyline class="st3" points="2095.4,1882.9 1631.3,1882.9 1634,1397 1621.3,1397 1621.3,665 1631.3,665 1631.3,163.9 3399.1,163.9 
	3399.1,665.1 3408.1,665 3410.1,1393 3399.1,1393 3399.1,1882.9 2919.1,1882.9 2919.1,1956.6 2097.4,1956.6 2097.4,1762 "/>
<polyline class="st3" points="1664.4,1397 1754.4,1397 1754.4,1125 "/>
<polyline class="st3" points="1754.4,1094.3 1754.4,941 2452.4,941 2452.4,1094.3 "/>
<line class="st3" x1="1732.4" y1="990" x2="2452.4" y2="990"/>
<line class="st3" x1="2098.4" y1="1094.3" x2="2098.4" y2="990"/>
<polyline class="st3" points="2098.4,1125 2098.4,1236.5 2216.4,1236.5 2216.4,1335.3 "/>
<line class="st3" x1="2216.4" y1="1373.2" x2="2216.4" y2="1471"/>
<line class="st3" x1="2452.4" y1="1125" x2="2452.4" y2="1525.3"/>
<polyline class="st3" points="2452.4,1471 2097.4,1471 2097.4,1490 "/>
<line class="st3" x1="2097.4" y1="1514" x2="2097.4" y2="1739"/>
<polyline class="st3" points="2336.4,1471 2336.4,1714 2493.4,1714 "/>
<line class="st3" x1="2336.4" y1="1573" x2="2452.4" y2="1573"/>
<line class="st3" x1="2452.4" y1="1548" x2="2452.4" y2="1587"/>
<polyline class="st3" points="2452.4,1604.5 2452.4,1642.8 2336.4,1642 "/>
<line class="st3" x1="2452.4" y1="1660.5" x2="2452.4" y2="1699.5"/>
<line class="st3" x1="2336.4" y1="1628" x2="2098.4" y2="1628"/>
<polyline class="st3" points="2275.4,1628 2275.4,1724 2312.4,1724 "/>
<polyline class="st3" points="2246.4,1704 2246.4,1724 2098.4,1724 "/>
<line class="st3" x1="2097.4" y1="1704" x2="1632.3" y2="1704"/>
<polyline class="st3" points="2044.4,1704 2044.4,1762.6 2015.9,1762.6 "/>
<line class="st3" x1="2065.4" y1="1790.6" x2="2098.4" y2="1790.6"/>
<polyline class="st3" points="2015.9,1790.6 2048.9,1790.6 2048.9,1882.9 "/>
<line class="st3" x1="1986" y1="1790.6" x2="1986" y2="1882.9"/>
<g>
	<polyline class="st3" points="1895,1790.6 1928,1790.6 1928,1882.9 	"/>
	<line class="st3" x1="1963.4" y1="1790.6" x2="1928" y2="1790.6"/>
</g>
<line class="st3" x1="1868.7" y1="1790.6" x2="1868.7" y2="1882.9"/>
<line class="st3" x1="1751.4" y1="1790.6" x2="1751.4" y2="1882.9"/>
<g>
	<polyline class="st3" points="1779,1790.6 1812,1790.6 1812,1882.9 	"/>
	<line class="st3" x1="1847.4" y1="1790.6" x2="1812" y2="1790.6"/>
</g>
<g>
	<polyline class="st3" points="1728.7,1790.6 1693.4,1790.6 1693.4,1882.9 	"/>
</g>
<line class="st3" x1="1671.7" y1="1790.6" x2="1631.4" y2="1790.6"/>
<g>
	<polyline class="st3" points="1895,1760.1 1928,1760.1 1928,1702.9 	"/>
	<line class="st3" x1="1963.4" y1="1760.1" x2="1928" y2="1760.1"/>
</g>
<g>
	<polyline class="st3" points="1777.9,1760.1 1810.9,1760.1 1810.9,1702.9 	"/>
	<line class="st3" x1="1846.2" y1="1760.1" x2="1810.9" y2="1760.1"/>
</g>
<g>
	<line class="st3" x1="1986" y1="1702.5" x2="1986" y2="1764.8"/>
	<line class="st3" x1="1868.7" y1="1702.5" x2="1868.7" y2="1764.8"/>
	<line class="st3" x1="1751.4" y1="1702.5" x2="1751.4" y2="1764.8"/>
</g>
<line class="st3" x1="2531.4" y1="1714" x2="2762.4" y2="1714"/>
<polyline class="st3" points="2798.4,1714 2925.4,1714 2925.4,1317 2573.4,1317 2573.4,1533 "/>
<line class="st3" x1="2573.4" y1="1317" x2="2573.4" y2="1130"/>
<polyline class="st3" points="2925.4,1317 2925.4,907 2573.4,907 2573.4,929 "/>
<polyline class="st3" points="2573.4,961 2573.4,990 2573.4,1094.3 "/>
<polyline class="st3" points="2694.4,907 2694.4,990 2573.4,990 "/>
<line class="st3" x1="2573.4" y1="1554" x2="2573.4" y2="1587"/>
<line class="st3" x1="2573.4" y1="1609" x2="2573.4" y2="1714"/>
<polyline class="st3" points="2573.4,1449 2694.4,1449 2694.4,1632.9 2573.4,1632.9 "/>
<line class="st3" x1="2573.4" y1="1573" x2="2694.4" y2="1573"/>
<line class="st3" x1="2308.4" y1="1790.6" x2="2499.4" y2="1790.6"/>
<polyline class="st3" points="2531.4,1790.6 2662.4,1790.6 2755.4,1790.6 2755.4,1956.6 "/>
<line class="st3" x1="2779.4" y1="1790.6" x2="2919.1" y2="1790.6"/>
<line class="st3" x1="2660.4" y1="1845" x2="2660.4" y2="1790.6"/>
<polyline class="st3" points="2755.4,1882.9 2660.4,1882.9 2660.4,1867.6 "/>
<line class="st3" x1="2624.4" y1="1902" x2="2624.4" y2="1956.6"/>
<polyline class="st3" points="2638.4,1882.9 2638.4,1902 2543.4,1902 2543.4,1882.9 2531.4,1882.9 "/>
<line class="st3" x1="2515.7" y1="1956.5" x2="2515.7" y2="1882.9"/>
<line class="st3" x1="2394.4" y1="1882.9" x2="2497.4" y2="1882.9"/>
<line class="st3" x1="2394.4" y1="1956.6" x2="2394.4" y2="1790.6"/>
<line class="st3" x1="2925.4" y1="823.6" x2="2925.4" y2="163.9"/>
<polyline class="st3" points="2680.4,163.9 2680.4,296 2704.4,296 2704.4,338 "/>
<polyline class="st3" points="2925.4,338 2680.4,338 2680.4,555 "/>
<polyline class="st3" points="2894.4,823.6 2692.4,823.6 2573.4,823.6 2573.4,717 "/>
<polyline class="st3" points="2573.4,596.8 2573.4,555 2694.4,555 2694.4,823.6 "/>
<line class="st3" x1="2573.4" y1="752" x2="2694.4" y2="752"/>
<polyline class="st3" points="2694.4,584.8 2573.4,584.8 2530.4,584.8 "/>
<polyline class="st3" points="2573.4,697 2573.4,661 2694.4,661 "/>
<line class="st3" x1="2573.4" y1="610.8" x2="2573.4" y2="642"/>
<line class="st3" x1="1754.4" y1="1060.2" x2="1621.3" y2="1060.2"/>
<line class="st3" x1="1621.3" y1="990" x2="1701.1" y2="990"/>
<line class="st3" x1="1677.4" y1="936" x2="1677.4" y2="991"/>
<polyline class="st3" points="1754.4,815 1754.4,828 1754.4,907 2452.4,907 2452.4,884 "/>
<line class="st3" x1="2338.4" y1="828" x2="1754.4" y2="828"/>
<line class="st3" x1="2340.4" y1="751" x2="2340.4" y2="906"/>
<line class="st3" x1="2452.4" y1="866" x2="2452.4" y2="793"/>
<line class="st3" x1="2452.4" y1="774" x2="2452.4" y2="694"/>
<polyline class="st3" points="2452.4,748 2329.4,748 2329.4,555 2452.4,555 2452.4,583 "/>
<polyline class="st3" points="2452.4,673 2452.4,661 2329.4,661 "/>
<line class="st3" x1="2452.4" y1="604.8" x2="2452.4" y2="640"/>
<line class="st3" x1="2498.4" y1="584.8" x2="2331.4" y2="584.8"/>
<line class="st3" x1="2452.4" y1="808.3" x2="2338.4" y2="808.3"/>
<g>
	<text transform="matrix(1 0 0 1 2353.9536 385.469)"><tspan x="0" y="0" class="st1 st4 st9">Grady Study </tspan><tspan x="79.8" y="58.7" class="st1 st4 st9">Room </tspan><tspan x="102.9" y="117.3" class="st1 st4 st9">3132</tspan></text>
</g>
<line class="st3" x1="2338.4" y1="470.1" x2="2338.4" y2="555"/>
<line class="st3" x1="2338.4" y1="308.1" x2="2338.4" y2="441"/>
<line class="st3" x1="2338.4" y1="163.9" x2="2338.4" y2="283.3"/>
<polyline class="st3" points="2278.7,163.9 2278.7,263.7 2289.4,263.7 "/>
<line class="st3" x1="2301.4" y1="263.7" x2="2316.7" y2="263.7"/>
<line class="st3" x1="2257.4" y1="260.3" x2="2220" y2="260.3"/>
<line class="st3" x1="2220" y1="163.9" x2="2220" y2="293.7"/>
<path class="st3" d="M2338.4,338H2172v-84.5h-417.7c0,0,0,538.2,0,539.5"/>
<line class="st3" x1="2220" y1="231" x2="2184" y2="231"/>
<line class="st3" x1="2164.4" y1="231" x2="2128.4" y2="231"/>
<polyline class="st3" points="2066.7,231 2102.7,231 2102.7,163.9 "/>
<polyline class="st3" points="2010.4,231 2046.4,231 2046.4,163.9 "/>
<line class="st3" x1="1988.4" y1="231" x2="1952.4" y2="231"/>
<g>
	<line class="st3" x1="1921" y1="231" x2="1930" y2="231"/>
	<line class="st3" x1="1938.7" y1="231" x2="1930" y2="231"/>
</g>
<g>
	<polyline class="st3" points="1805,231 1814,231 1814,163.9 	"/>
	<line class="st3" x1="1822.7" y1="231" x2="1814" y2="231"/>
</g>
<g>
	<polyline class="st3" points="1681,231 1692,231 1692,163.9 	"/>
	<line class="st3" x1="1730.7" y1="231" x2="1692" y2="231"/>
</g>
<line class="st3" x1="1792.7" y1="231" x2="1749.7" y2="231"/>
<line class="st3" x1="1907.4" y1="231" x2="1835.7" y2="231"/>
<polyline class="st3" points="1692,451.2 1692,253.5 1681,253.5 "/>
<g>
	<line class="st3" x1="1692" y1="472.8" x2="1692" y2="536.3"/>
</g>
<g>
	<line class="st3" x1="1692" y1="553.1" x2="1692" y2="616.6"/>
</g>
<g>
	<line class="st3" x1="1692" y1="635.2" x2="1692" y2="698.8"/>
</g>
<g>
	<line class="st3" x1="1692" y1="711.7" x2="1692" y2="804.3"/>
</g>
<g>
	<line class="st3" x1="1692" y1="817.4" x2="1692" y2="834.3"/>
</g>
<polyline class="st3" points="1692,850.3 1692,906 1677.4,906 1677.4,919.7 "/>
<line class="st3" x1="2102.7" y1="830.3" x2="2102.7" y2="906"/>
<g>
	<text transform="matrix(1 0 0 1 2231.5024 1058.3424)"><tspan x="0" y="0" class="st1 st4 st10">Special </tspan><tspan x="-36.8" y="44" class="st1 st4 st10">Collections </tspan><tspan x="-45.2" y="88" class="st1 st4 st10">&amp; University </tspan><tspan x="-13.5" y="132" class="st1 st4 st10">Archives </tspan><tspan x="21" y="176" class="st1 st4 st10">3060</tspan></text>
</g>
<g>
	<text transform="matrix(1 0 0 1 2124.0137 878.2086)" class="st1 st4 st11">Conf Rm 3052</text>
</g>
<g>
	<text transform="matrix(1 0 0 1 2353.1475 786.0425)" class="st1 st4 st11">Elev A</text>
</g>
<g>
	<text transform="matrix(1 0 0 1 2708.1738 1092.7091)"><tspan x="0" y="0" class="st1 st4 st10">Map </tspan><tspan x="-54" y="44" class="st1 st4 st10">Collection </tspan><tspan x="9.6" y="88" class="st1 st4 st10">3111</tspan></text>
</g>
<g>
	<text transform="matrix(1 0 0 1 2590.4844 957.651)" class="st1 st4 st11">Elev B</text>
</g>
<g>
	<text transform="matrix(1 0 0 1 2706.7998 235.1073)"><tspan x="0" y="0" class="st1 st4 st11">Faculty Study </tspan><tspan x="54.3" y="32.6" class="st1 st4 st11">Room </tspan><tspan x="65.8" y="65.2" class="st1 st4 st11">3134</tspan></text>
</g>
<g>
	<text transform="matrix(1 0 0 1 2765.2383 1485.6979)"><tspan x="0" y="0" class="st1 st4 st10">Iowa </tspan><tspan x="-44.3" y="44" class="st1 st4 st10">Women’s</tspan><tspan x="-35.7" y="88" class="st1 st4 st10">Archives </tspan><tspan x="-1.3" y="132" class="st1 st4 st10">3094</tspan></text>
</g>
<g>
	<text transform="matrix(0 -1 1 0 1673.549 876.9058)" class="st1 st4 st10">Special Collections Staff Offices</text>
</g>
<g>
	<text transform="matrix(1 0 0 1 1825.4237 211.7088)" class="st1 st4 st12">Staff Offices</text>
</g>
<g>
	<text transform="matrix(1 0 0 1 2350.9463 1620.0281)" class="st1 st4 st11">Elev C</text>
</g>
<g>
	<text transform="matrix(1 0 0 1 2589.6016 1612.6423)" class="st1 st4 st11">Elev D</text>
</g>
<g>
	<text transform="matrix(1 0 0 1 2189.3865 1841.696)"><tspan x="0" y="0" class="st1 st4 st10"> </tspan><tspan x="-45.6" y="44" class="st1 st4 st10">3083</tspan></text>
</g>
<g>
	<text transform="matrix(1 0 0 1 2427.3628 1818.4602)"><tspan x="0" y="0" class="st1 st4 st13">School of Library &amp;</tspan><tspan x="-8.5" y="25.2" class="st1 st4 st13">Information Science </tspan><tspan x="74.6" y="50.4" class="st1 st4 st13">3087</tspan></text>
</g>
<g>
	<text transform="matrix(1 0 0 1 3010.6221 957.2314)"><tspan x="0" y="0" class="st1 st4 st14">Current </tspan><tspan x="-11.3" y="58.7" class="st1 st4 st14">&amp; Bound </tspan><tspan x="-9.5" y="117.3" class="st1 st4 st14">Journals </tspan><tspan x="37" y="176" class="st1 st4 st14">A – Z </tspan><tspan x="37" y="234.6" class="st1 st4 st14">3093</tspan></text>
</g>
<g>
	<text transform="matrix(0 -1 1 0 2985.5522 706.3291)"><tspan x="0" y="0" class="st1 st4 st10">Theses &amp; Dissertations </tspan><tspan x="65" y="44" class="st1 st4 st10">3093 West Wall</tspan></text>
</g>
<g>
	<g>
		<circle class="st1" cx="2670.8" cy="707.4" r="7.4"/>
		<path class="st1" d="M2632,690.8l26.5,5.6c1.9,0.4,2.8,2.6,1.7,4.2l-3.4,5.2c-0.6,0.9-0.6,2.1,0,3l3.4,5.2c1,1.6,0.1,3.8-1.7,4.2
			l-26.5,5.6c-1.5,0.3-2.9-0.6-3.3-2.1c-0.3-1.4-1.7-2.3-3.1-2.1l-6.4,0.9c-1.5,0.2-2.9-0.8-3.1-2.4l-0.3-1.9
			c-0.2-1.3-1.3-2.3-2.6-2.4l-20.4-1.2c-2.2-0.1-3.8-1.9-3.8-4.1v-1.4v-1.4c0-2.2,1.7-4,3.8-4.1l20.4-1.2c1.3-0.1,2.4-1.1,2.6-2.4
			l0.3-1.9c0.2-1.5,1.6-2.5,3.1-2.4l6.4,0.9c1.4,0.2,2.7-0.7,3.1-2.1C2629.1,691.4,2630.6,690.5,2632,690.8z"/>
	</g>
	<g>
		<g>
			<path class="st1" d="M2363.4,695.8l-0.4,2c-0.3,1.3,0.1,2.8,1.1,3.8l2.8,2.8c1.6,1.6,1.6,4.1,0,5.7l-2.8,2.8
				c-1,1-1.4,2.4-1.1,3.8l0.4,2c0.4,2,2.3,3.4,4.3,3.2l24.6-2c1.6-0.1,2.9-1.1,3.5-2.6l0,0c0.6-1.5,2-2.5,3.6-2.6l31.9-1.9
				c2.1-0.1,3.8-1.9,3.8-4v-1.4V706c0-2.1-1.7-3.9-3.8-4l-31.9-1.9c-1.6-0.1-3-1.1-3.6-2.6c-0.6-1.5-1.9-2.5-3.5-2.6l-24.6-2
				C2365.7,692.5,2363.9,693.8,2363.4,695.8z"/>
			<circle class="st1" cx="2354" cy="707.3" r="7.4"/>
		</g>
	</g>
</g>
<g>
	<g>
		<path class="st1" d="M2241.1,191.2l1.5-0.3c1-0.2,2.1,0.1,2.9,0.8l2.2,2.2c1.2,1.2,3.2,1.2,4.4,0l2.2-2.2c0.7-0.7,1.8-1.1,2.9-0.8
			l1.5,0.3c1.5,0.3,2.6,1.7,2.4,3.3l-1.6,18.8c-0.1,1.2-0.9,2.2-2,2.6l0,0c-1.1,0.4-1.9,1.5-2,2.7L2254,243
			c-0.1,1.6-1.4,2.9-3.1,2.9h-1.1h-1.1c-1.6,0-3-1.3-3.1-2.9l-1.5-24.3c-0.1-1.2-0.8-2.3-2-2.7c-1.1-0.4-1.9-1.4-2-2.6l-1.6-18.8
			C2238.5,193,2239.6,191.6,2241.1,191.2z"/>
		<circle class="st1" cx="2249.8" cy="184.1" r="5.6"/>
	</g>
</g>
<g>
	<g>
		<circle class="st1" cx="2670.8" cy="1534.5" r="7.4"/>
		<path class="st1" d="M2632,1517.9l26.5,5.6c1.9,0.4,2.8,2.6,1.7,4.2l-3.4,5.2c-0.6,0.9-0.6,2.1,0,3l3.4,5.2c1,1.6,0.1,3.8-1.7,4.2
			l-26.5,5.6c-1.5,0.3-2.9-0.6-3.3-2.1c-0.3-1.4-1.7-2.3-3.1-2.1l-6.4,0.9c-1.5,0.2-2.9-0.8-3.1-2.4l-0.3-1.9
			c-0.2-1.3-1.3-2.3-2.6-2.4l-20.4-1.2c-2.2-0.1-3.8-1.9-3.8-4.1v-1.4v-1.4c0-2.2,1.7-4,3.8-4.1l20.4-1.2c1.3-0.1,2.4-1.1,2.6-2.4
			l0.3-1.9c0.2-1.5,1.6-2.5,3.1-2.4l6.4,0.9c1.4,0.2,2.7-0.7,3.1-2.1C2629.1,1518.5,2630.6,1517.6,2632,1517.9z"/>
	</g>
	<g>
		<g>
			<path class="st1" d="M2363.4,1522.9l-0.4,2c-0.3,1.3,0.1,2.8,1.1,3.8l2.8,2.8c1.6,1.6,1.6,4.1,0,5.7l-2.8,2.8
				c-1,1-1.4,2.4-1.1,3.8l0.4,2c0.4,2,2.3,3.4,4.3,3.2l24.6-2c1.6-0.1,2.9-1.1,3.5-2.6l0,0c0.6-1.5,2-2.5,3.6-2.6l31.9-1.9
				c2.1-0.1,3.8-1.9,3.8-4v-1.4v-1.4c0-2.1-1.7-3.9-3.8-4l-31.9-1.9c-1.6-0.1-3-1.1-3.6-2.6c-0.6-1.5-1.9-2.5-3.5-2.6l-24.6-2
				C2365.7,1519.6,2363.9,1520.9,2363.4,1522.9z"/>
			<circle class="st1" cx="2354" cy="1534.4" r="7.4"/>
		</g>
	</g>
</g>
<g>
	<line class="st3" x1="3303.4" y1="991" x2="3409" y2="991"/>
	<line class="st3" x1="3303.4" y1="1058.4" x2="3409" y2="1058.4"/>
</g>
<line class="st3" x1="3288.7" y1="992.1" x2="3288.7" y2="1057.3"/>
<image style="display:none;overflow:visible;opacity:0.42;" width="2184" height="1042" xlink:href="39640368A22C176D.png"  transform="matrix(2.141 0 0 2.141 2991.4619 -103.774)">
</image>
</svg>
