<?xml version="1.0" encoding="utf-8"?>
<!-- Generator: Adobe Illustrator 22.1.0, SVG Export Plug-In . SVG Version: 6.00 Build 0)  -->
<svg version="1.1" id="Layer_1" xmlns="http://www.w3.org/2000/svg" xmlns:xlink="http://www.w3.org/1999/xlink" x="0px" y="0px"
	 viewBox="0 0 3840 2160" style="enable-background:new 0 0 3840 2160;" xml:space="preserve">
<style type="text/css">
	.st0{display:none;fill:#27A8E0;}
	.st1{fill:#FFFFFF;}
	.st2{fill:none;}
	.st3{fill:none;stroke:#FFFFFF;stroke-width:6;stroke-miterlimit:10;}
	.st4{font-family:'Montserrat-SemiBold';}
	.st5{font-size:185px;}
	.st6{font-size:90px;}
	.st7{font-size:115px;}
	.st8{font-size:67.9732px;}
	.st9{font-size:48.8836px;}
	.st10{font-size:36.6627px;}
	.st11{font-size:27.1575px;}
</style>
<rect class="st0" width="3840" height="2161.3"/>
<image style="display:none;overflow:visible;opacity:0.32;" width="2160" height="2396" xlink:href="395B985BE81DC324.png"  transform="matrix(1.6064 0 0 1.6064 51.4622 -1830.7828)">
</image>
<text transform="matrix(1 0 0 1 382.2257 321.1724)" class="st4 st5">2nd Floor</text>
<text transform="matrix(1 0 0 1 543.6525 492.9534)" class="st4 st6">Main Library</text>
<text transform="matrix(1 0 0 1 651.1432 1030.8438)"><tspan x="0" y="0" class="st4 st7">Floors</tspan><tspan x="-170.7" y="165.6" class="st4 st7">1</tspan><tspan x="-126.9" y="165.6" class="st1 st4 st7">  </tspan><tspan x="-63.4" y="165.6" class="st4 st7"> </tspan><tspan x="-31.7" y="165.6" class="st1 st4 st7">2</tspan><tspan x="35.3" y="165.6" class="st4 st7">   3   4   5</tspan></text>
<g>
	<g>
		<g>
			<g>
				<line class="st2" x1="759.1" y1="1825.2" x2="902.7" y2="1968.8"/>
			</g>
			<g>
				<line class="st2" x1="759.1" y1="1968.8" x2="902.7" y2="1825.2"/>
			</g>
		</g>
		<g>
			<g>
				<path d="M832.3,1996.2c-25.2,0-50.4-9.6-69.6-28.8c-18.6-18.6-28.8-43.3-28.8-69.6c0-26.3,10.2-51,28.8-69.6l0,0l0,0
					c18.6-18.6,43.3-28.8,69.6-28.8c26.3,0,51,10.2,69.6,28.8c18.6,18.6,28.8,43.3,28.8,69.6c0,26.3-10.2,51-28.8,69.6
					C882.7,1986.6,857.5,1996.2,832.3,1996.2z M832.3,1819.3c-21,0-40.7,8.2-55.5,23l0,0c-14.8,14.8-23,34.6-23,55.5
					c0,21,8.2,40.7,23,55.5c15.3,15.3,35.4,23,55.5,23c20.1,0,40.2-7.7,55.5-23c14.8-14.8,23-34.6,23-55.5c0-21-8.2-40.7-23-55.5
					C873,1827.5,853.3,1819.3,832.3,1819.3z M769.8,1835.3L769.8,1835.3L769.8,1835.3z"/>
			</g>
			<g>
				<polygon points="833.2,1910.5 871.6,1934.1 830.3,1842.6 792.1,1934.1 				"/>
			</g>
		</g>
	</g>
	<text transform="matrix(1 0 0 1 804.7946 1780.3926)" class="st4 st8">N</text>
</g>
<polyline class="st3" points="2095.4,1882.9 1631.3,1882.9 1634,1397 1621.3,1397 1621.3,665 1631.3,665 1631.3,163.9 3399.1,163.9 
	3399.1,665.1 3408.1,665 3410.1,1393 3399.1,1393 3399.1,1882.9 2919.1,1882.9 2919.1,1956.6 2097.4,1956.6 2097.4,1798.6 "/>
<polyline class="st3" points="2882.4,828.6 2925.1,828.6 2925.1,302 2691.1,302 2691.1,828.6 2734.4,828.6 "/>
<line class="st3" x1="2846.4" y1="828.6" x2="2765.4" y2="828.6"/>
<polyline class="st3" points="2691.1,752 2805.4,752 2925.1,752 "/>
<line class="st3" x1="2808.1" y1="828.6" x2="2808.1" y2="752"/>
<polyline class="st3" points="2691.1,302 2334.4,302 2334.4,828.6 2254.4,828.6 "/>
<line class="st3" x1="2225.4" y1="828.6" x2="2225.4" y2="350"/>
<polyline class="st3" points="2334.4,350 2215.4,350 2215.4,301 "/>
<line class="st3" x1="3210.4" y1="163.9" x2="3210.4" y2="265"/>
<line class="st3" x1="3038.4" y1="163.9" x2="3038.4" y2="265"/>
<line class="st3" x1="2925.1" y1="163.9" x2="2925.1" y2="265"/>
<line class="st3" x1="2801.4" y1="163.9" x2="2801.4" y2="265"/>
<line class="st3" x1="2747.4" y1="163.9" x2="2747.4" y2="265"/>
<line class="st3" x1="2691.1" y1="163.9" x2="2691.1" y2="265"/>
<line class="st3" x1="2334.4" y1="163.9" x2="2334.4" y2="265"/>
<line class="st3" x1="2280.4" y1="163.9" x2="2280.4" y2="265"/>
<line class="st3" x1="2215.4" y1="163.9" x2="2215.4" y2="265"/>
<polyline class="st3" points="2334.2,589.3 2509.7,589.3 2693.4,589.3 "/>
<g>
	<line class="st3" x1="1621.3" y1="998" x2="1728.4" y2="998"/>
	<line class="st3" x1="1621.3" y1="1066" x2="1728.4" y2="1066"/>
	<line class="st3" x1="1652.3" y1="1032" x2="1708.4" y2="1032"/>
	<line class="st3" x1="1752.4" y1="1066" x2="1752.4" y2="998"/>
</g>
<g>
	<text transform="matrix(1 0 0 1 1817.7523 492.9819)"><tspan x="0" y="0" class="st1 st4 st9">East Asian</tspan><tspan x="3.4" y="58.7" class="st1 st4 st9">Collection</tspan></text>
</g>
<g>
	<text transform="matrix(1 0 0 1 1874.3585 1075.0304)"><tspan x="0" y="0" class="st1 st4 st9">Music</tspan><tspan x="-53.2" y="58.7" class="st1 st4 st9">Collection</tspan></text>
</g>
<g>
	<text transform="matrix(1 0 0 1 1813.7446 1650.3018)" class="st1 st4 st9">PS 3517 – Z</text>
</g>
<g>
	<text transform="matrix(1 0 0 1 2455.0645 1163.1073)"><tspan x="0" y="0" class="st1 st4 st10">Group</tspan><tspan x="-7.1" y="44" class="st1 st4 st10">Rooms</tspan></text>
</g>
<g>
	<text transform="matrix(1 0 0 1 2375.7229 229.1072)"><tspan x="0" y="0" class="st1 st4 st10">Study Lounge </tspan><tspan x="89.7" y="44" class="st1 st4 st10">2001</tspan></text>
</g>
<g>
	<text transform="matrix(1 0 0 1 3019.9099 565.546)"><tspan x="0" y="0" class="st1 st4 st10">Gov’t </tspan><tspan x="11.8" y="44" class="st1 st4 st10">Info </tspan><tspan x="11.8" y="88" class="st1 st4 st10">(LC)</tspan></text>
</g>
<g>
	<text transform="matrix(1 0 0 1 3208.7629 587.5436)"><tspan x="0" y="0" class="st1 st4 st10">Math </tspan><tspan x="-9.7" y="44" class="st1 st4 st10">Books</tspan></text>
</g>
<rect x="2995.4" y="369" class="st3" width="340" height="459.6"/>
<g>
	<text transform="matrix(1 0 0 1 3100.3635 1026.4031)"><tspan x="0" y="0" class="st1 st4 st10">Gov’t </tspan><tspan x="11.8" y="44" class="st1 st4 st10">Info </tspan><tspan x="11.8" y="88" class="st1 st4 st10">(LC)</tspan></text>
</g>
<rect x="3057.6" y="912" class="st3" width="183.2" height="295.3"/>
<polyline class="st3" points="2449.4,912 2334.4,912 2334.4,1404.4 2457.4,1404.4 "/>
<polyline class="st3" points="2568.1,1404.4 2691.1,1404.4 2691.1,912 2576.1,912 2576.1,941 "/>
<polyline class="st3" points="2575.1,962 2575.1,987 3030.5,987 3030.5,1149.1 2691.1,1149.1 "/>
<g>
	<text transform="matrix(1 0 0 1 2978.1028 1506.0304)"><tspan x="0" y="0" class="st1 st4 st9">ITC </tspan><tspan x="-105.7" y="58.7" class="st1 st4 st9">(Additional  </tspan><tspan x="-109.3" y="117.3" class="st1 st4 st9">Computers)</tspan></text>
</g>
<g>
	<text transform="matrix(1 0 0 1 2352.6477 781.1591)" class="st1 st4 st11">Elev A</text>
</g>
<polyline class="st3" points="2334.4,805.5 2453.9,805.5 2453.9,782.7 "/>
<polyline class="st3" points="2334.4,665 2453.9,665 2453.9,715.8 "/>
<polyline class="st3" points="2334.4,740.2 2453.9,740.2 2453.9,757.4 "/>
<line class="st3" x1="2453.9" y1="611.6" x2="2453.9" y2="640.6"/>
<line class="st3" x1="2574.4" y1="611.6" x2="2574.4" y2="640.6"/>
<polyline class="st3" points="2691.1,665 2574.4,665 2574.4,722.5 "/>
<polyline class="st3" points="2691.1,805.1 2574.4,805.1 2574.4,747.6 "/>
<g>
	<circle class="st1" cx="2668.8" cy="734.5" r="7.4"/>
	<path class="st1" d="M2630.1,717.9l26.5,5.6c1.9,0.4,2.8,2.6,1.7,4.2l-3.4,5.2c-0.6,0.9-0.6,2.1,0,3l3.4,5.2c1,1.6,0.1,3.8-1.7,4.2
		l-26.5,5.6c-1.5,0.3-2.9-0.6-3.3-2.1c-0.3-1.4-1.7-2.3-3.1-2.1l-6.4,0.9c-1.5,0.2-2.9-0.8-3.1-2.4l-0.3-1.9
		c-0.2-1.3-1.3-2.3-2.6-2.4l-20.4-1.2c-2.2-0.1-3.8-1.9-3.8-4.1v-1.4V733c0-2.2,1.7-4,3.8-4.1l20.4-1.2c1.3-0.1,2.4-1.1,2.6-2.4
		l0.3-1.9c0.2-1.5,1.6-2.5,3.1-2.4l6.4,0.9c1.4,0.2,2.7-0.7,3.1-2.1C2627.2,718.5,2628.6,717.6,2630.1,717.9z"/>
</g>
<g>
	<g>
		<path class="st1" d="M2367.4,693.6l-0.4,2c-0.3,1.3,0.1,2.8,1.1,3.8l2.8,2.8c1.6,1.6,1.6,4.1,0,5.7l-2.8,2.8c-1,1-1.4,2.4-1.1,3.8
			l0.4,2c0.4,2,2.3,3.4,4.3,3.2l24.6-2c1.6-0.1,2.9-1.1,3.5-2.6l0,0c0.6-1.5,2-2.5,3.6-2.6l31.9-1.9c2.1-0.1,3.8-1.9,3.8-4v-1.4
			v-1.4c0-2.1-1.7-3.9-3.8-4l-31.9-1.9c-1.6-0.1-3-1.1-3.6-2.6c-0.6-1.5-1.9-2.5-3.5-2.6l-24.6-2
			C2369.7,690.2,2367.9,691.6,2367.4,693.6z"/>
		<circle class="st1" cx="2358" cy="705" r="7.4"/>
	</g>
</g>
<g>
	<text transform="matrix(1 0 0 1 2588.4844 957.651)" class="st1 st4 st11">Elev B</text>
</g>
<g>
	<text transform="matrix(1 0 0 1 2349.9463 1613.6431)" class="st1 st4 st11">Elev C</text>
</g>
<g>
	<text transform="matrix(1 0 0 1 2588.446 1613.6426)" class="st1 st4 st11">Elev D</text>
</g>
<g>
	<polyline class="st3" points="2574.4,1540.6 2574.4,1450.6 2691.1,1450.6 2691.1,1710.1 2575.1,1710.1 2575.1,1614.9 	"/>
	<line class="st3" x1="2574.4" y1="1571.7" x2="2691.1" y2="1571.7"/>
	<line class="st3" x1="2574.4" y1="1561" x2="2574.4" y2="1582.3"/>
</g>
<g>
	<circle class="st1" cx="2668.8" cy="1512" r="7.4"/>
	<path class="st1" d="M2630.1,1495.4l26.5,5.6c1.9,0.4,2.8,2.6,1.7,4.2l-3.4,5.2c-0.6,0.9-0.6,2.1,0,3l3.4,5.2
		c1,1.6,0.1,3.8-1.7,4.2l-26.5,5.6c-1.5,0.3-2.9-0.6-3.3-2.1c-0.3-1.4-1.7-2.3-3.1-2.1l-6.4,0.9c-1.5,0.2-2.9-0.8-3.1-2.4l-0.3-1.9
		c-0.2-1.3-1.3-2.3-2.6-2.4l-20.4-1.2c-2.2-0.1-3.8-1.9-3.8-4.1v-1.4v-1.4c0-2.2,1.7-4,3.8-4.1l20.4-1.2c1.3-0.1,2.4-1.1,2.6-2.4
		l0.3-1.9c0.2-1.5,1.6-2.5,3.1-2.4l6.4,0.9c1.4,0.2,2.7-0.7,3.1-2.1C2627.2,1496,2628.6,1495.1,2630.1,1495.4z"/>
</g>
<g>
	<g>
		<path class="st1" d="M2367.4,1498l-0.4,2c-0.3,1.3,0.1,2.8,1.1,3.8l2.8,2.8c1.6,1.6,1.6,4.1,0,5.7l-2.8,2.8c-1,1-1.4,2.4-1.1,3.8
			l0.4,2c0.4,2,2.3,3.4,4.3,3.2l24.6-2c1.6-0.1,2.9-1.1,3.5-2.6l0,0c0.6-1.5,2-2.5,3.6-2.6l31.9-1.9c2.1-0.1,3.8-1.9,3.8-4v-1.4
			v-1.4c0-2.1-1.7-3.9-3.8-4l-31.9-1.9c-1.6-0.1-3-1.1-3.6-2.6c-0.6-1.5-1.9-2.5-3.5-2.6l-24.6-2
			C2369.7,1494.7,2367.9,1496,2367.4,1498z"/>
		<circle class="st1" cx="2358" cy="1509.5" r="7.4"/>
	</g>
</g>
<g>
	<polyline class="st3" points="2451.1,1540.6 2451.1,1450.6 2334.4,1450.6 2334.4,1710.1 2450.4,1710.1 2450.4,1614.9 	"/>
	<line class="st3" x1="2451.1" y1="1571.7" x2="2334.4" y2="1571.7"/>
	<line class="st3" x1="2451.1" y1="1561" x2="2451.1" y2="1582.3"/>
</g>
<line class="st3" x1="2574.4" y1="1632.9" x2="2691.1" y2="1632.9"/>
<line class="st3" x1="2335.8" y1="1632.9" x2="2452.5" y2="1632.9"/>
<polyline class="st3" points="2684,1956.6 2684,1768.6 2335.8,1768.6 2335.8,1956.6 "/>
<line class="st3" x1="2711" y1="1798.6" x2="2897" y2="1798.6"/>
<line class="st3" x1="2919.1" y1="1882.9" x2="2919.1" y2="1798.6"/>
<line class="st3" x1="2126.4" y1="1798.6" x2="2312.4" y2="1798.6"/>
<g>
	<line class="st3" x1="3407.9" y1="998" x2="3305.8" y2="998"/>
	<line class="st3" x1="3406.9" y1="1066" x2="3305.8" y2="1066"/>
	<line class="st3" x1="3381.9" y1="1032" x2="3325.8" y2="1032"/>
	<line class="st3" x1="3281.8" y1="1066" x2="3281.8" y2="998"/>
</g>
<g>
	<g>
		<path class="st1" d="M2238.8,193.6l1.6-0.4c1.1-0.3,2.3,0.1,3.1,0.9l2.3,2.3c1.3,1.3,3.4,1.3,4.7,0l2.3-2.3c0.8-0.8,2-1.1,3.1-0.9
			l1.6,0.4c1.6,0.4,2.8,1.9,2.6,3.5l-1.7,20.2c-0.1,1.3-0.9,2.4-2.1,2.8l0,0c-1.2,0.5-2.1,1.6-2.2,2.9l-1.6,26.2
			c-0.1,1.8-1.6,3.1-3.3,3.1h-1.1h-1.1c-1.8,0-3.2-1.4-3.3-3.1l-1.6-26.2c-0.1-1.3-0.9-2.4-2.2-2.9c-1.2-0.5-2-1.6-2.1-2.8
			l-1.7-20.2C2236.1,195.5,2237.2,194,2238.8,193.6z"/>
		<circle class="st1" cx="2248.2" cy="185.9" r="6"/>
	</g>
</g>
<g>
	<circle class="st1" cx="2774.4" cy="186" r="6.1"/>
	<path class="st1" d="M2788,217.8l-4.6-21.8c-0.3-1.6-2.1-2.3-3.5-1.4l-4.3,2.8c-0.7,0.5-1.7,0.5-2.5,0l-4.3-2.8
		c-1.3-0.9-3.1-0.1-3.5,1.4l-4.6,21.8c-0.3,1.2,0.5,2.4,1.7,2.7c1.1,0.3,1.9,1.4,1.7,2.5l-0.7,5.2c-0.2,1.2,0.7,2.4,1.9,2.6l1.5,0.2
		c1.1,0.1,1.9,1,1.9,2.1l1,16.7c0.1,1.8,1.6,3.1,3.4,3.1h1.1h1.1c1.8,0,3.3-1.4,3.4-3.1l1-16.7c0.1-1.1,0.9-2,1.9-2.1l1.5-0.2
		c1.2-0.2,2.1-1.3,1.9-2.6l-0.7-5.2c-0.1-1.1,0.6-2.2,1.7-2.5C2787.5,220.2,2788.2,219,2788,217.8z"/>
</g>
<g>
	<text transform="matrix(1 0 0 1 2724.3652 1872.2588)"><tspan x="0" y="0" class="st1 st4 st11">Conf Room </tspan><tspan x="45.6" y="32.6" class="st1 st4 st11">2032</tspan></text>
</g>
<g>
	<text transform="matrix(1 0 0 1 2133.2063 1863.5739)"><tspan x="0" y="0" class="st1 st4 st11">Music </tspan><tspan x="-21.5" y="32.6" class="st1 st4 st11">Librarian </tspan><tspan x="10.9" y="65.2" class="st1 st4 st11">2012</tspan></text>
</g>
<g>
	<text transform="matrix(1 0 0 1 2294.0581 1896.1627)"><tspan x="0" y="0" class="st1 st4 st11"> </tspan><tspan x="-30.1" y="32.6" class="st1 st4 st11">2013</tspan></text>
</g>
<g>
	<text transform="matrix(1 0 0 1 2244.1885 804.3438)" class="st1 st4 st11">2006</text>
</g>
<g>
	<text transform="matrix(0 -1 1 0 2284.5908 730.3574)" class="st1 st4 st11">Music Ref &amp; Reserve</text>
</g>
<g>
	<text transform="matrix(1 0 0 1 2816.4006 234.1858)" class="st1 st4 st10">2060</text>
</g>
<g>
	<text transform="matrix(1 0 0 1 2936.5322 234.1857)" class="st1 st4 st10">2059</text>
</g>
<g>
	<text transform="matrix(1 0 0 1 3077.7192 234.1857)" class="st1 st4 st10">2058</text>
</g>
<g>
	<text transform="matrix(1 0 0 1 3258.9209 234.1858)" class="st1 st4 st10">2057</text>
</g>
</svg>
