<?xml version="1.0" encoding="utf-8"?>
<!-- Generator: Adobe Illustrator 22.1.0, SVG Export Plug-In . SVG Version: 6.00 Build 0)  -->
<svg version="1.1" id="Layer_1" xmlns="http://www.w3.org/2000/svg" xmlns:xlink="http://www.w3.org/1999/xlink" x="0px" y="0px"
	 viewBox="0 0 3840 2160" style="enable-background:new 0 0 3840 2160;" xml:space="preserve">
<style type="text/css">
	.st0{display:none;fill:#27A8E0;}
	.st1{fill:#FFFFFF;}
	.st2{fill:none;}
	.st3{fill:none;stroke:#FFFFFF;stroke-width:6;stroke-miterlimit:10;}
	.st4{font-family:'Montserrat-SemiBold';}
	.st5{font-size:185px;}
	.st6{font-size:90px;}
	.st7{font-size:115px;}
	.st8{font-size:67.9732px;}
	.st9{font-size:48.8836px;}
	.st10{font-size:27.1575px;}
	.st11{font-size:48.88px;}
	.st12{font-size:36.6627px;}
</style>
<rect class="st0" width="3840" height="2161.3"/>
<text transform="matrix(1 0 0 1 397.581 321.1704)" class="st4 st5">4th Floor</text>
<text transform="matrix(1 0 0 1 543.6533 492.9549)" class="st4 st6">Main Library</text>
<text transform="matrix(1 0 0 1 651.1442 1030.8416)"><tspan x="0" y="0" class="st4 st7">Floors</tspan><tspan x="-170.7" y="165.6" class="st4 st7">1</tspan><tspan x="-126.9" y="165.6" class="st1 st4 st7">  </tspan><tspan x="-63.4" y="165.6" class="st4 st7"> 2   3   </tspan><tspan x="292.6" y="165.6" class="st1 st4 st7">4</tspan><tspan x="370.7" y="165.6" class="st4 st7">   5</tspan></text>
<g>
	<g>
		<g>
			<g>
				<line class="st2" x1="759.1" y1="1825.2" x2="902.7" y2="1968.8"/>
			</g>
			<g>
				<line class="st2" x1="759.1" y1="1968.8" x2="902.7" y2="1825.2"/>
			</g>
		</g>
		<g>
			<g>
				<path d="M832.3,1996.2c-25.2,0-50.4-9.6-69.6-28.8c-18.6-18.6-28.8-43.3-28.8-69.6c0-26.3,10.2-51,28.8-69.6l0,0l0,0
					c18.6-18.6,43.3-28.8,69.6-28.8c26.3,0,51,10.2,69.6,28.8c18.6,18.6,28.8,43.3,28.8,69.6c0,26.3-10.2,51-28.8,69.6
					C882.7,1986.6,857.5,1996.2,832.3,1996.2z M832.3,1819.3c-21,0-40.7,8.2-55.5,23l0,0c-14.8,14.8-23,34.6-23,55.5
					c0,21,8.2,40.7,23,55.5c15.3,15.3,35.4,23,55.5,23c20.1,0,40.2-7.7,55.5-23c14.8-14.8,23-34.6,23-55.5c0-21-8.2-40.7-23-55.5
					C873,1827.5,853.3,1819.3,832.3,1819.3z M769.8,1835.3L769.8,1835.3L769.8,1835.3z"/>
			</g>
			<g>
				<polygon points="833.2,1910.5 871.6,1934.1 830.3,1842.6 792.1,1934.1 				"/>
			</g>
		</g>
	</g>
	<text transform="matrix(1 0 0 1 804.7946 1780.3906)" class="st4 st8">N</text>
</g>
<polyline class="st3" points="2261.8,2021.9 3041.9,2021.9 3041.9,1295.8 3659.9,1295.8 3659.9,338 2735.8,338 2735.8,231 
	2262.8,231 2263.9,338 1339.8,338 1339.8,1295.8 1957.8,1295.8 1957.8,2021.9 2737.9,2021.9 2737.9,1790.6 2737.9,1767.1 "/>
<line class="st3" x1="2474.2" y1="231" x2="2474.2" y2="345.1"/>
<line class="st3" x1="2525.2" y1="231" x2="2525.2" y2="345.1"/>
<line class="st3" x1="2474.2" y1="326.9" x2="2525.2" y2="326.9"/>
<line class="st3" x1="2735.8" y1="338" x2="2577.7" y2="338"/>
<polyline class="st3" points="2737.9,1790.6 2643.6,1790.6 2474.2,1790.6 "/>
<polyline class="st3" points="2437.1,1790.6 2371.6,1790.6 2262.7,1790.6 "/>
<line class="st3" x1="2420.8" y1="1762.6" x2="2420.8" y2="2021.9"/>
<line class="st3" x1="2262.7" y1="1762.6" x2="2262.7" y2="2021.9"/>
<g>
	<polyline class="st3" points="2262.7,1722.3 2262.7,1291.6 2420.8,1291.6 	"/>
	<polyline class="st3" points="2420.8,933.1 2420.8,1704.1 2262.7,1704.1 	"/>
	<line class="st3" x1="2262.7" y1="1387.6" x2="2420.8" y2="1387.6"/>
	<line class="st3" x1="2262.7" y1="1520.1" x2="2420.8" y2="1520.1"/>
	<line class="st3" x1="2262.7" y1="1605.1" x2="2420.8" y2="1605.1"/>
	<polyline class="st3" points="2420.8,976.9 2262.7,976.9 2262.7,861.1 2420.8,861.1 	"/>
	<line class="st3" x1="2420.8" y1="832.6" x2="2420.8" y2="906.1"/>
	<polyline class="st3" points="2420.8,790.6 2420.8,773.7 2420.8,367.6 	"/>
	<line class="st3" x1="2262.7" y1="763.6" x2="2420.8" y2="763.6"/>
	<polyline class="st3" points="2420.8,552.1 2262.7,552.1 2262.7,438.1 2262.7,338 2420.8,338 	"/>
	<line class="st3" x1="2420.8" y1="438.1" x2="2262.7" y2="438.1"/>
</g>
<g>
	<polyline class="st3" points="2735.8,1722.3 2735.8,1291.6 2577.7,1291.6 	"/>
	<line class="st3" x1="2735.8" y1="1387.6" x2="2577.7" y2="1387.6"/>
	<line class="st3" x1="2735.8" y1="1520.1" x2="2577.7" y2="1520.1"/>
	<line class="st3" x1="2735.8" y1="1605.1" x2="2577.7" y2="1605.1"/>
	<polyline class="st3" points="2735.8,1704.1 2577.7,1704.1 2577.7,933.1 2577.7,906.1 2577.7,832.6 2673.7,832.6 	"/>
	<line class="st3" x1="2577.7" y1="689.7" x2="2577.7" y2="367.6"/>
	<line class="st3" x1="2577.7" y1="766.7" x2="2577.7" y2="723.7"/>
	<line class="st3" x1="2735.8" y1="763.6" x2="2577.7" y2="763.6"/>
	<polyline class="st3" points="2577.7,438.1 2735.8,438.1 2735.8,338 2577.7,338 	"/>
</g>
<polyline class="st3" points="2705.2,832.6 2735.8,832.6 2735.8,1291.6 "/>
<polyline class="st3" points="2577.7,648.3 2735.8,648.3 2735.8,790.6 "/>
<g>
	<g>
		<polyline class="st3" points="3480.4,848 3480.4,869.4 3661.4,869.4 		"/>
		<polyline class="st3" points="3480.4,791.3 3480.4,770 3661.4,770 		"/>
	</g>
	<line class="st3" x1="3480.4" y1="808.3" x2="3480.4" y2="831"/>
</g>
<g>
	<g>
		<polyline class="st3" points="1519.8,848 1519.8,869.4 1338.8,869.4 		"/>
		<polyline class="st3" points="1519.8,791.3 1519.8,770 1338.8,770 		"/>
	</g>
	<line class="st3" x1="1519.8" y1="808.3" x2="1519.8" y2="831"/>
</g>
<polyline class="st3" points="3041.9,1295.8 3041.9,1216.2 3661.4,1216.2 "/>
<polyline class="st3" points="1957.4,1295.8 1957.4,1216.2 1337.9,1216.2 "/>
<line class="st3" x1="3623.4" y1="819.7" x2="3527.4" y2="819.7"/>
<line class="st3" x1="1477.3" y1="819.7" x2="1381.3" y2="819.7"/>
<rect x="2570.7" y="273" class="st3" width="119.7" height="19.1"/>
<rect x="2308.4" y="273" class="st3" width="119.7" height="19.1"/>
<line class="st3" x1="3661.4" y1="404.8" x2="2735.8" y2="404.8"/>
<line class="st3" x1="2265.3" y1="404.8" x2="1339.8" y2="404.8"/>
<g>
	<g>
		<g>
			<text transform="matrix(1 0 0 1 1961.5133 865.6096)" class="st1 st4 st9">PS 3515</text>
		</g>
		<polygon class="st1" points="2069.6,944.1 2053.5,960.3 2037.3,944.1 2037.3,933.4 2049.6,945.7 2049.6,898.6 2057.4,898.6 
			2057.4,945.6 2069.6,933.4 		"/>
		<g>
			<text transform="matrix(1 0 0 1 2035.7184 1030.6096)" class="st1 st4 st9">P</text>
		</g>
	</g>
	<g>
		<g>
			<text transform="matrix(1 0 0 1 2892.738 865.6096)" class="st1 st4 st9">E</text>
		</g>
		<polygon class="st1" points="2925.3,944.1 2909.1,960.3 2892.9,944.1 2892.9,933.4 2905.2,945.7 2905.2,898.6 2913.1,898.6 
			2913.1,945.6 2925.3,933.4 		"/>
		<g>
			<text transform="matrix(1 0 0 1 2889.3162 1030.6096)" class="st1 st4 st9">N</text>
		</g>
	</g>
</g>
<g>
	<g>
		<circle class="st1" cx="2703" cy="389.9" r="8.6"/>
		<path class="st1" d="M2657.8,370.6l30.9,6.5c2.2,0.5,3.3,3,2,4.9l-3.9,6.1c-0.7,1.1-0.7,2.4,0,3.5l3.9,6.1c1.2,1.9,0.2,4.4-2,4.9
			l-30.9,6.5c-1.7,0.4-3.4-0.7-3.8-2.4c-0.4-1.6-1.9-2.6-3.6-2.4l-7.4,1c-1.7,0.2-3.4-1-3.7-2.8l-0.3-2.2c-0.2-1.5-1.5-2.7-3-2.8
			l-23.8-1.4c-2.5-0.2-4.5-2.2-4.5-4.8v-1.6v-1.6c0-2.5,1.9-4.6,4.5-4.8l23.8-1.4c1.5-0.1,2.8-1.3,3-2.8l0.3-2.2
			c0.2-1.7,1.9-3,3.7-2.8l7.4,1c1.6,0.2,3.2-0.8,3.6-2.4C2654.5,371.2,2656.1,370.2,2657.8,370.6z"/>
	</g>
	<g>
		<g>
			<path class="st1" d="M2308.4,376.4l-0.5,2.3c-0.4,1.6,0.1,3.2,1.3,4.4l3.3,3.3c1.9,1.9,1.9,4.8,0,6.7l-3.3,3.3
				c-1.1,1.1-1.6,2.8-1.3,4.4l0.5,2.3c0.5,2.3,2.7,3.9,5,3.7l28.7-2.4c1.8-0.2,3.4-1.3,4-3l0,0c0.6-1.7,2.3-2.9,4.1-3.1l37.2-2.3
				c2.5-0.2,4.4-2.2,4.4-4.7v-1.6v-1.6c0-2.5-1.9-4.6-4.4-4.7l-37.2-2.3c-1.9-0.1-3.5-1.3-4.1-3.1c-0.6-1.7-2.2-2.9-4-3l-28.7-2.4
				C2311,372.5,2308.9,374.1,2308.4,376.4z"/>
			<circle class="st1" cx="2297.4" cy="389.7" r="8.6"/>
		</g>
	</g>
</g>
<g>
	<g>
		<circle class="st1" cx="2702.4" cy="1457.1" r="8.6"/>
		<path class="st1" d="M2657.2,1437.8l30.9,6.5c2.2,0.5,3.3,3,2,4.9l-3.9,6.1c-0.7,1.1-0.7,2.4,0,3.5l3.9,6.1c1.2,1.9,0.2,4.4-2,4.9
			l-30.9,6.5c-1.7,0.4-3.4-0.7-3.8-2.4c-0.4-1.6-1.9-2.6-3.6-2.4l-7.4,1c-1.7,0.2-3.4-1-3.7-2.8l-0.3-2.2c-0.2-1.5-1.5-2.7-3-2.8
			l-23.8-1.4c-2.5-0.2-4.5-2.2-4.5-4.8v-1.6v-1.6c0-2.5,1.9-4.6,4.5-4.8l23.8-1.4c1.5-0.1,2.8-1.3,3-2.8l0.3-2.2
			c0.2-1.7,1.9-3,3.7-2.8l7.4,1c1.6,0.2,3.2-0.8,3.6-2.4C2653.9,1438.5,2655.5,1437.4,2657.2,1437.8z"/>
	</g>
	<g>
		<g>
			<path class="st1" d="M2307.8,1443.6l-0.5,2.3c-0.4,1.6,0.1,3.2,1.3,4.4l3.3,3.3c1.9,1.9,1.9,4.8,0,6.7l-3.3,3.3
				c-1.1,1.1-1.6,2.8-1.3,4.4l0.5,2.3c0.5,2.3,2.7,3.9,5,3.7l28.7-2.4c1.8-0.2,3.4-1.3,4-3l0,0c0.6-1.7,2.3-2.9,4.1-3.1l37.2-2.3
				c2.5-0.2,4.4-2.2,4.4-4.7v-1.6v-1.6c0-2.5-1.9-4.6-4.4-4.7l-37.2-2.3c-1.9-0.1-3.5-1.3-4.1-3.1c-0.6-1.7-2.2-2.9-4-3l-28.7-2.4
				C2310.4,1439.7,2308.3,1441.3,2307.8,1443.6z"/>
			<circle class="st1" cx="2296.8" cy="1457" r="8.6"/>
		</g>
	</g>
</g>
<rect x="2298" y="1647.4" class="st3" width="87.4" height="11.9"/>
<g>
	<text transform="matrix(1 0 0 1 2613.3547 717.7065)" class="st1 st4 st10">Elev B</text>
</g>
<g>
	<text transform="matrix(1 0 0 1 2299.8157 1573.3206)" class="st1 st4 st10">Elev C</text>
</g>
<g>
	<text transform="matrix(1 0 0 1 2610.4714 1573.321)" class="st1 st4 st10">Elev D</text>
</g>
<g>
	<text transform="matrix(0 -1 1 0 2644.4766 1218.9016)"><tspan x="0" y="0" class="st1 st4 st11">Bookstacks </tspan><tspan x="-2.3" y="58.7" class="st1 st4 st11">Office 4068</tspan></text>
</g>
<g>
	<text transform="matrix(1 0 0 1 1427.1464 388.8623)" class="st1 st4 st9">Research Studies 4022 – 4005</text>
</g>
<g>
	<text transform="matrix(1 0 0 1 2822.655 388.8621)" class="st1 st4 st9">Research Studies 4093 – 4076</text>
</g>
<g>
	<text transform="matrix(1 0 0 1 2593.6243 1672.3398)" class="st1 st4 st9">4041</text>
</g>
<g>
	<text transform="matrix(1 0 0 1 2279.6199 1929.7849)" class="st1 st4 st9">4037</text>
</g>
<g>
	<text transform="matrix(1 0 0 1 2468.1301 1877.7209)"><tspan x="0" y="0" class="st1 st4 st12">Humanities </tspan><tspan x="63.9" y="44" class="st1 st4 st12">Iowa </tspan><tspan x="62.6" y="88" class="st1 st4 st12">4039</tspan></text>
</g>
<g>
	<text transform="matrix(1 0 0 1 3105.5938 1271.5471)" class="st1 st4 st9">Studies 4053 – 4064</text>
</g>
<g>
	<text transform="matrix(1 0 0 1 1393.0066 1271.5471)" class="st1 st4 st9">Studies 4025 – 4036</text>
</g>
</svg>
