<?xml version="1.0" encoding="utf-8"?>
<!-- Generator: Adobe Illustrator 22.1.0, SVG Export Plug-In . SVG Version: 6.00 Build 0)  -->
<svg version="1.1" id="Layer_1" xmlns="http://www.w3.org/2000/svg" xmlns:xlink="http://www.w3.org/1999/xlink" x="0px" y="0px"
	 viewBox="0 0 3840 2160" style="enable-background:new 0 0 3840 2160;" xml:space="preserve">
<style type="text/css">
	.st0{display:none;fill:#27A8E0;}
	.st1{font-family:'Montserrat-SemiBold';}
	.st2{font-size:185px;}
	.st3{font-size:90px;}
	.st4{font-size:115px;}
	.st5{fill:#FFFFFF;}
	.st6{fill:none;}
	.st7{font-size:67.9732px;}
	.st8{font-size:48.8836px;}
	.st9{font-size:36.6627px;}
	.st10{font-size:28.5154px;}
	.st11{font-size:27.1575px;}
	.st12{fill:none;stroke:#FFFFFF;stroke-width:6;stroke-miterlimit:10;}
</style>
<rect x="0" class="st0" width="3840" height="2161.3"/>
<text transform="matrix(1 0 0 1 440.869 321.1724)" class="st1 st2">1st Floor</text>
<text transform="matrix(1 0 0 1 543.6522 492.9534)" class="st1 st3">Main Library</text>
<text transform="matrix(1 0 0 1 651.1429 1030.8438)"><tspan x="0" y="0" class="st1 st4">Floors</tspan><tspan x="-170.7" y="165.6" class="st5 st1 st4">1  </tspan><tspan x="-63.4" y="165.6" class="st1 st4"> 2   3   4   5</tspan></text>
<g>
	<g>
		<g>
			<g>
				<line class="st6" x1="759.1" y1="1825.2" x2="902.7" y2="1968.8"/>
			</g>
			<g>
				<line class="st6" x1="759.1" y1="1968.8" x2="902.7" y2="1825.2"/>
			</g>
		</g>
		<g>
			<g>
				<path d="M832.3,1996.2c-25.2,0-50.4-9.6-69.6-28.8c-18.6-18.6-28.8-43.3-28.8-69.6c0-26.3,10.2-51,28.8-69.6l0,0l0,0
					c18.6-18.6,43.3-28.8,69.6-28.8c26.3,0,51,10.2,69.6,28.8c18.6,18.6,28.8,43.3,28.8,69.6c0,26.3-10.2,51-28.8,69.6
					C882.7,1986.6,857.5,1996.2,832.3,1996.2z M832.3,1819.3c-21,0-40.7,8.2-55.5,23l0,0c-14.8,14.8-23,34.6-23,55.5
					c0,21,8.2,40.7,23,55.5c15.3,15.3,35.4,23,55.5,23c20.1,0,40.2-7.7,55.5-23c14.8-14.8,23-34.6,23-55.5c0-21-8.2-40.7-23-55.5
					C873,1827.5,853.3,1819.3,832.3,1819.3z M769.8,1835.3L769.8,1835.3L769.8,1835.3z"/>
			</g>
			<g>
				<polygon points="833.2,1910.5 871.6,1934.1 830.3,1842.6 792.1,1934.1 				"/>
			</g>
		</g>
	</g>
	<text transform="matrix(1 0 0 1 804.7943 1780.3926)" class="st1 st7">N</text>
</g>
<text transform="matrix(1 0 0 1 1681.2972 261.2995)"><tspan x="0" y="0" class="st5 st1 st8">The Studio</tspan><tspan x="0" y="58.7" class="st5 st1 st8">1015</tspan></text>
<text transform="matrix(1 0 0 1 1880.5433 437.8517)"><tspan x="0" y="0" class="st5 st1 st9">Classroom </tspan><tspan x="41.5" y="44" class="st5 st1 st9">1015-A</tspan></text>
<text transform="matrix(1 0 0 1 1935.9774 692.4289)"><tspan x="0" y="0" class="st5 st1 st9">TILE  </tspan><tspan x="-54.1" y="44" class="st5 st1 st9">Classroom</tspan><tspan x="4.5" y="88" class="st5 st1 st9">1022</tspan></text>
<text transform="matrix(1 0 0 1 2127.7542 754.404)"><tspan x="0" y="0" class="st5 st1 st9">Staff Offices </tspan><tspan x="74.8" y="44" class="st5 st1 st9">1026</tspan></text>
<text transform="matrix(1 0 0 1 2431.9412 450.7907)"><tspan x="0" y="0" class="st5 st1 st9">Gallery</tspan><tspan x="26.9" y="44" class="st5 st1 st9">1001</tspan></text>
<text transform="matrix(1 0 0 1 2395.4236 264.0153)" class="st5 st1 st9">North Lobby</text>
<text transform="matrix(1 0 0 1 2677.2224 453.5065)"><tspan x="0" y="0" class="st5 st1 st9">Shambaugh </tspan><tspan x="12.6" y="44" class="st5 st1 st9">Auditorium </tspan><tspan x="84.1" y="88" class="st5 st1 st9">1120</tspan></text>
<text transform="matrix(1 0 0 1 3114.2722 545.8893)"><tspan x="0" y="0" class="st5 st1 st9">TILE</tspan><tspan x="-59.1" y="44" class="st5 st1 st9">Classroom</tspan><tspan x="1.4" y="88" class="st5 st1 st9">1140</tspan></text>
<text transform="matrix(1 0 0 1 1823.0228 1083.6628)"><tspan x="0" y="0" class="st5 st1 st9">Staff </tspan><tspan x="-23.3" y="44" class="st5 st1 st9">Offices</tspan><tspan x="7" y="88" class="st5 st1 st9">1031</tspan></text>
<text transform="matrix(1 0 0 1 2058.2219 1217.2253)"><tspan x="0" y="0" class="st5 st1 st9">Reference </tspan><tspan x="1.4" y="44" class="st5 st1 st9">Collection</tspan></text>
<text transform="matrix(1 0 0 1 2444.5964 1315.9958)"><tspan x="0" y="0" class="st5 st1 st9">Service </tspan><tspan x="-29" y="44" class="st5 st1 st9">Commons</tspan></text>
<text transform="matrix(1 0 0 1 2446.4148 1914.1296)" class="st5 st1 st9">South Lobby</text>
<text transform="matrix(1 0 0 1 2773.8787 1575.324)"><tspan x="0" y="0" class="st5 st1 st10">Food for </tspan><tspan x="-1.3" y="34.2" class="st5 st1 st10">Thought </tspan><tspan x="28.5" y="68.4" class="st5 st1 st10">Cafe</tspan></text>
<g>
	<text transform="matrix(1 0 0 1 3028.8962 307.5768)" class="st5 st1 st11">1153</text>
	<text transform="matrix(1 0 0 1 3103.5798 307.5778)" class="st5 st1 st11">1152</text>
</g>
<g>
	<text transform="matrix(1 0 0 1 3031.6257 466.4973)" class="st5 st1 st11">1151</text>
	<text transform="matrix(1 0 0 1 3102.3445 466.4982)" class="st5 st1 st11">1150</text>
</g>
<g>
	<text transform="matrix(1 0 0 1 3030.2283 709.5085)" class="st5 st1 st11">1133</text>
	<text transform="matrix(1 0 0 1 3104.9128 709.5085)" class="st5 st1 st11">1132</text>
</g>
<g>
	<text transform="matrix(1 0 0 1 3031.1912 876.0749)" class="st5 st1 st11">1131</text>
	<text transform="matrix(1 0 0 1 3101.9089 876.0749)" class="st5 st1 st11">1130</text>
</g>
<g>
	<text transform="matrix(1 0 0 1 3325.2273 763.3669)" class="st5 st1 st11">F</text>
</g>
<g>
	<text transform="matrix(1 0 0 1 3324.7791 1353.8787)" class="st5 st1 st11">E</text>
</g>
<text transform="matrix(1 0 0 1 2735.2605 1025.5554)"><tspan x="0" y="0" class="st5 st1 st9">Learning </tspan><tspan x="-13.2" y="44" class="st5 st1 st9">Commons</tspan></text>
<text transform="matrix(1 0 0 1 3032.3855 1031.2361)"><tspan x="0" y="0" class="st5 st1 st11">Madison </tspan><tspan x="-5.2" y="32.6" class="st5 st1 st11">St. Lobby</tspan></text>
<g>
	<text transform="matrix(1 0 0 1 3080.74 1476.0867)" class="st5 st1 st11">D</text>
</g>
<g>
	<text transform="matrix(1 0 0 1 2748.5525 1248.4568)" class="st5 st1 st11">C</text>
</g>
<g>
	<text transform="matrix(1 0 0 1 2748.0906 1385.1082)" class="st5 st1 st11">B</text>
</g>
<g>
	<text transform="matrix(1 0 0 1 2264.2297 1771.3474)" class="st5 st1 st11">A</text>
</g>
<g>
	<text transform="matrix(1 0 0 1 2129.4158 1848.3142)" class="st5 st1 st11">1103</text>
</g>
<g>
	<text transform="matrix(1 0 0 1 2129.3884 1929.7878)" class="st5 st1 st11">1105</text>
</g>
<text transform="matrix(1 0 0 1 2568.5623 1075.031)"><tspan x="0" y="0" class="st5 st1 st11">Service</tspan><tspan x="15.5" y="32.6" class="st5 st1 st11">Desk</tspan></text>
<g>
	<text transform="matrix(1 0 0 1 3030.8376 1196.9197)" class="st5 st1 st11">1117</text>
	<text transform="matrix(1 0 0 1 3104.9236 1196.9197)" class="st5 st1 st11">1118</text>
</g>
<g>
	<text transform="matrix(1 0 0 1 3031.1638 1355.2351)" class="st5 st1 st11">1115</text>
	<text transform="matrix(1 0 0 1 3104.5564 1355.2351)" class="st5 st1 st11">1114</text>
</g>
<g>
	<text transform="matrix(1 0 0 1 3031.1931 1595.5798)" class="st5 st1 st11">1113</text>
	<text transform="matrix(1 0 0 1 3105.8748 1595.5798)" class="st5 st1 st11">1112</text>
</g>
<g>
	<text transform="matrix(1 0 0 1 3033.9207 1762.5984)" class="st5 st1 st11">1111</text>
	<text transform="matrix(1 0 0 1 3104.6375 1762.5984)" class="st5 st1 st11">1110</text>
</g>
<g>
	<text transform="matrix(1 0 0 1 2348.7527 1598.3816)" class="st5 st1 st11">Elev C</text>
</g>
<g>
	<text transform="matrix(1 0 0 1 2586.3044 1598.3806)" class="st5 st1 st11">Elev D</text>
</g>
<circle class="st5" cx="2667.7" cy="738" r="7.4"/>
<path class="st5" d="M2625.7,723.4c-0.3,1.4-1.7,2.3-3.1,2.1l-6.4-0.9c-1.5-0.2-2.9,0.9-3.1,2.4l-0.3,1.9c-0.2,1.3-1.3,2.3-2.6,2.4
	l-20.4,1.2c-2.2,0.1-3.8,1.9-3.8,4.1v1.4v1.4c0,2.2,1.7,4,3.8,4.1l20.4,1.2c1.3,0.1,2.4,1.1,2.6,2.4l0.3,1.9
	c0.2,1.5,1.6,2.6,3.1,2.4l6.4-0.9c1.4-0.2,2.7,0.7,3.1,2.1c0.4,1.5,1.8,2.4,3.3,2.1l26.5-5.6c1.9-0.4,2.8-2.6,1.7-4.2l-3.4-5.2
	c-0.6-0.9-0.6-2.1,0-3l3.4-5.2c1.1-1.6,0.2-3.8-1.7-4.2l-26.5-5.6C2627.5,721.2,2626.1,722.1,2625.7,723.4z"/>
<g>
	<g>
		<circle class="st5" cx="2721.3" cy="875" r="7.4"/>
		<path class="st5" d="M2760.1,858.4l-26.5,5.6c-1.9,0.4-2.8,2.6-1.7,4.2l3.4,5.2c0.6,0.9,0.6,2.1,0,3l-3.4,5.2
			c-1,1.6-0.1,3.8,1.7,4.2l26.5,5.6c1.5,0.3,2.9-0.6,3.3-2.1c0.3-1.4,1.7-2.3,3.1-2.1l6.4,0.9c1.5,0.2,2.9-0.8,3.1-2.4l0.3-1.9
			c0.2-1.3,1.3-2.3,2.6-2.4l20.4-1.2c2.2-0.1,3.8-1.9,3.8-4.1v-1.4v-1.4c0-2.2-1.7-4-3.8-4.1l-20.4-1.2c-1.3-0.1-2.4-1.1-2.6-2.4
			l-0.3-1.9c-0.2-1.5-1.6-2.5-3.1-2.4l-6.4,0.9c-1.4,0.2-2.7-0.7-3.1-2.1C2763,859,2761.5,858.1,2760.1,858.4z"/>
	</g>
	<g>
		<g>
			<path class="st5" d="M2731.3,774l-0.4,2c-0.3,1.3,0.1,2.8,1.1,3.8l2.8,2.8c1.6,1.6,1.6,4.1,0,5.7l-2.8,2.8c-1,1-1.4,2.4-1.1,3.8
				l0.4,2c0.4,2,2.3,3.4,4.3,3.2l24.6-2c1.6-0.1,2.9-1.1,3.5-2.6l0,0c0.6-1.5,2-2.5,3.6-2.6l31.9-1.9c2.1-0.1,3.8-1.9,3.8-4v-1.4
				v-1.4c0-2.1-1.7-3.9-3.8-4l-31.9-1.9c-1.6-0.1-3-1.1-3.6-2.6c-0.6-1.5-1.9-2.5-3.5-2.6l-24.6-2
				C2733.6,770.7,2731.7,772,2731.3,774z"/>
			<circle class="st5" cx="2721.9" cy="785.5" r="7.4"/>
		</g>
	</g>
</g>
<g>
	<g>
		<path class="st5" d="M2653.4,814.5l-24.6,2c-1.6,0.1-2.9,1.1-3.5,2.6c-0.6,1.5-2,2.5-3.6,2.6l-31.9,1.9c-2.1,0.1-3.8,1.9-3.8,4
			v1.4v1.4c0,2.1,1.7,3.9,3.8,4l31.9,1.9c1.6,0.1,3,1.1,3.6,2.6l0,0c0.6,1.5,1.9,2.5,3.5,2.6l24.6,2c2,0.2,3.8-1.2,4.3-3.2l0.4-2
			c0.3-1.4-0.1-2.8-1.1-3.8l-2.8-2.8c-1.6-1.6-1.6-4.1,0-5.7l2.8-2.8c1-1,1.4-2.4,1.1-3.8l-0.4-2
			C2657.3,815.6,2655.5,814.3,2653.4,814.5z"/>
		<circle class="st5" cx="2667.1" cy="829.1" r="7.4"/>
	</g>
</g>
<g>
	<text transform="matrix(1 0 0 1 2421.0261 789.0475)" class="st5 st1 st11">A</text>
</g>
<polygon class="st12" points="2101.3,854.3 1858.3,854.3 1858.3,593.6 1858.3,303.2 2101.3,303.2 "/>
<line class="st12" x1="2101.3" y1="578.8" x2="1858.3" y2="578.8"/>
<line class="st12" x1="1858.3" y1="735.8" x2="1621.3" y2="735.8"/>
<polyline class="st12" points="2101.3,329.9 2264.3,329.9 2264.3,303.2 2332.4,303.2 2332.4,329.9 2332.4,652.8 2451,652.8 
	2451,686.4 2451,719 "/>
<polyline class="st12" points="2332.4,332.8 2665.3,332.8 2665.3,578.8 "/>
<polyline class="st12" points="2332.4,578.8 2693.9,578.8 2693.9,922.5 2872.4,922.5 2872.4,815.8 "/>
<polyline class="st12" points="2332.4,987.7 2332.4,1461.7 1979.8,1461.7 1754.6,1461.7 1754.6,987.7 1983.8,987.7 "/>
<line class="st12" x1="1979.8" y1="984.2" x2="1979.8" y2="1882.9"/>
<line class="st12" x1="1621.3" y1="987.7" x2="1754.6" y2="987.7"/>
<line class="st12" x1="1621.3" y1="1059.5" x2="1754.6" y2="1059.5"/>
<line class="st12" x1="1621.3" y1="1144" x2="1754.6" y2="1144"/>
<line class="st12" x1="1618.7" y1="1224.7" x2="1753.4" y2="1224.7"/>
<line class="st12" x1="1867" y1="1224.7" x2="1979.8" y2="1224.7"/>
<line class="st12" x1="1755.7" y1="1224.7" x2="1818.3" y2="1224.7"/>
<line class="st12" x1="1625.7" y1="1709.6" x2="1973.4" y2="1709.6"/>
<rect x="2332.4" y="652.8" class="st12" width="118.5" height="39.5"/>
<polyline class="st12" points="2385.8,697.3 2385.8,750.6 2451,750.6 "/>
<polyline class="st12" points="2411.4,753.3 2411.4,808.9 2391.7,828.6 2357.1,828.6 "/>
<line class="st12" x1="2326.5" y1="828.6" x2="2106.3" y2="828.6"/>
<line class="st12" x1="2451" y1="735.8" x2="2451" y2="772.3"/>
<line class="st12" x1="2451" y1="789.6" x2="2451" y2="826.2"/>
<line class="st12" x1="2411.4" y1="808.9" x2="2451" y2="808.9"/>
<rect x="2564.5" y="692.3" class="st12" width="129.4" height="89.9"/>
<rect x="2564.5" y="783.7" class="st12" width="129.4" height="89.9"/>
<polyline class="st12" points="2564.5,692.3 2564.5,652.8 2690,652.8 "/>
<polyline class="st12" points="2564.5,873.6 2564.5,903.5 2564.5,936 "/>
<polyline class="st12" points="2564.5,991 2644.5,991 2644.5,915.7 2564.5,915.7 "/>
<polyline class="st12" points="2564.5,967.4 2564.5,1034.1 2690,1034.1 "/>
<line class="st12" x1="2693.9" y1="922.5" x2="2693.9" y2="1072.6"/>
<line class="st12" x1="2693.9" y1="1168.6" x2="2693.9" y2="1700.4"/>
<line class="st12" x1="2332.4" y1="1461.7" x2="2332.4" y2="1701.7"/>
<polyline class="st12" points="2709.5,1478 2756.1,1478 2756.1,1701.7 2216.4,1701.7 2216.4,1796.6 "/>
<line class="st12" x1="2216.4" y1="1882.9" x2="2216.4" y2="1977.1"/>
<g>
	<polyline class="st12" points="2332.4,1549.1 2451,1549.1 2451,1629.4 2451,1705.6 	"/>
	<line class="st12" x1="2332.4" y1="1629.4" x2="2451" y2="1629.4"/>
</g>
<g>
	<polyline class="st12" points="2691.2,1549.1 2570,1549.1 2570,1629.4 2570,1704.2 	"/>
	<line class="st12" x1="2692.6" y1="1629.4" x2="2570" y2="1629.4"/>
</g>
<polyline class="st12" points="2106.3,183.9 2106.3,260.2 2222.8,260.2 2222.8,183.9 "/>
<line class="st12" x1="2276.1" y1="182.9" x2="2276.1" y2="260.2"/>
<line class="st12" x1="2332.4" y1="176.9" x2="2332.4" y2="260.2"/>
<polyline class="st12" points="2665.3,356.5 2716.1,356.5 2716.1,312.1 2880.6,312.1 2880.6,356.5 2922.1,356.5 2922.1,744.7 
	2950.2,744.7 2950.2,828.6 2913.2,828.6 "/>
<polyline class="st12" points="2699.1,740.6 2871,740.6 2871,783.7 "/>
<polyline class="st12" points="2950.2,783.7 2836.9,783.7 2836.9,800.6 "/>
<line class="st12" x1="2699.1" y1="831" x2="2846.5" y2="831"/>
<line class="st12" x1="2821" y1="835.1" x2="2821" y2="865.4"/>
<g>
	<polygon class="st12" points="3167,332.8 3016.9,332.8 3016.9,260.2 3092,260.2 3167,260.2 	"/>
	<line class="st12" x1="3092" y1="332.8" x2="3092" y2="260.2"/>
</g>
<g>
	<polygon class="st12" points="3167,492.1 3016.9,492.1 3016.9,419.5 3092,419.5 3167,419.5 	"/>
	<line class="st12" x1="3092" y1="492.1" x2="3092" y2="419.5"/>
</g>
<polygon class="st12" points="3167,733.6 3016.9,733.6 3016.9,661 3092,661 3167,661 "/>
<line class="st12" x1="3092" y1="733.6" x2="3092" y2="661"/>
<g>
	<polygon class="st12" points="3167,901.7 3016.9,901.7 3016.9,829.1 3092,829.1 3167,829.1 	"/>
	<line class="st12" x1="3092" y1="901.7" x2="3092" y2="829.1"/>
</g>
<g>
	<polygon class="st12" points="3167,1224.7 3016.9,1224.7 3016.9,1152.1 3092,1152.1 3167,1152.1 	"/>
	<line class="st12" x1="3092" y1="1224.7" x2="3092" y2="1152.1"/>
</g>
<g>
	<polygon class="st12" points="3167,1382.2 3016.9,1382.2 3016.9,1309.6 3092,1309.6 3167,1309.6 	"/>
	<line class="st12" x1="3092" y1="1382.2" x2="3092" y2="1309.6"/>
</g>
<g>
	<polygon class="st12" points="3167,1621.7 3016.9,1621.7 3016.9,1549.1 3092,1549.1 3167,1549.1 	"/>
	<line class="st12" x1="3092" y1="1621.7" x2="3092" y2="1549.1"/>
</g>
<g>
	<polygon class="st12" points="3167,1789.9 3016.9,1789.9 3016.9,1717.3 3092,1717.3 3167,1717.3 	"/>
	<line class="st12" x1="3092" y1="1789.9" x2="3092" y2="1717.3"/>
</g>
<polyline class="st12" points="2871,1172.5 2916.2,1172.5 2916.2,1309.6 "/>
<line class="st12" x1="2916.2" y1="1395.6" x2="2916.2" y2="1549.1"/>
<polyline class="st12" points="2916.2,1636.6 2916.2,1790.6 2871,1790.6 "/>
<line class="st12" x1="2836.9" y1="1789.9" x2="2756.1" y2="1789.9"/>
<polyline class="st12" points="2688.5,1753.6 2688.5,1790.6 2332.4,1790.6 2332.4,1753.6 "/>
<polyline class="st12" points="3404.7,987.7 3253.1,987.7 3253.1,1059.5 3404.7,1059.5 "/>
<polyline class="st12" points="3253.1,1134.8 3253.1,1172.3 3404.7,1172.3 "/>
<line class="st12" x1="3253.1" y1="1094.3" x2="3253.1" y2="1059.5"/>
<polygon class="st12" points="3353.1,720.8 3314.7,720.8 3295.4,754.1 3314.7,787.4 3353.1,787.4 3372.3,754.1 "/>
<polygon class="st12" points="3353.1,1312.6 3314.7,1312.6 3295.4,1345.9 3314.7,1379.2 3353.1,1379.2 3372.3,1345.9 "/>
<polygon class="st12" points="3111.2,1435 3072.7,1435 3053.5,1468.3 3072.7,1501.6 3111.2,1501.6 3130.4,1468.3 "/>
<polygon class="st12" points="2777.7,1205.9 2739.2,1205.9 2720,1239.2 2739.2,1272.5 2777.7,1272.5 2796.9,1239.2 "/>
<polygon class="st12" points="2777.7,1342.5 2739.2,1342.5 2720,1375.8 2739.2,1409.1 2777.7,1409.1 2796.9,1375.8 "/>
<polygon class="st12" points="2293.6,1730.4 2255.2,1730.4 2235.9,1763.7 2255.2,1797 2293.6,1797 2312.9,1763.7 "/>
<line class="st12" x1="3039.5" y1="661" x2="3039.5" y2="495.3"/>
<line class="st12" x1="3275.8" y1="663.7" x2="3275.8" y2="488.5"/>
<line class="st12" x1="3279.9" y1="492.1" x2="3115.5" y2="492.1"/>
<line class="st12" x1="3277.9" y1="660.6" x2="3115.5" y2="660.6"/>
<g>
	<text transform="matrix(1 0 0 1 2575.8337 948.1125)"><tspan x="0" y="0" class="st5 st1 st11">Elev </tspan><tspan x="19" y="32.6" class="st5 st1 st11">B</tspan></text>
</g>
<polyline class="st12" points="2446.4,1976.3 2091.9,1976.3 2092.6,1790 2216.4,1790.6 2216.4,1882.9 2093.2,1882.9 "/>
<line class="st12" x1="2546.5" y1="1976.3" x2="2480" y2="1976.3"/>
<polyline class="st12" points="3403.9,1134.8 3404.6,1412.8 3393.6,1412.8 3393.6,1902.6 2913.6,1902.6 2913.6,1976.3 
	2584.4,1976.3 "/>
<polyline class="st12" points="2574.9,183.7 3393.6,183.7 3393.6,684.9 3402.6,684.8 3403.8,1094.3 "/>
<line class="st12" x1="2480" y1="183.7" x2="2546.5" y2="183.7"/>
<polyline class="st12" points="2089.9,1902.6 1625.8,1902.6 1628.5,1416.8 1615.8,1416.8 1615.8,684.8 1625.8,684.8 1625.8,183.7 
	2451,183.7 "/>
<g transform="translate(0,-952.36218)">
	<path d="M2365.1,1038.3c-0.2,0-0.5,0.1-0.7,0.1c-34.5,0.4-62.6,26.6-62.6,59.2c0,10.7,3.1,20.7,8.4,29.3v0.1c0,0.1,0,0.1,0.1,0.2
		c0.1,0.1,0.1,0.2,0.2,0.3c0,0,0,0,0.1,0.1l53,85.8c0.6,1.1,2,1.4,3.1,0.7c0.3-0.2,0.6-0.4,0.7-0.7l52.4-85.8c0-0.1,0-0.1,0.1-0.2
		h0.1v-0.1c0,0,0,0,0.1-0.1c0.1-0.1,0.1-0.2,0.2-0.4c0,0,0,0,0-0.1c5.2-8.6,8.3-18.6,8.3-29.2c0-32.6-28.1-58.8-62.6-59.2
		c-0.1,0-0.3-0.1-0.4-0.1C2365.3,1038.3,2365.3,1038.3,2365.1,1038.3C2365.2,1038.3,2365.1,1038.3,2365.1,1038.3L2365.1,1038.3z
		 M2365.1,1065.5c18.9,0,34.3,15.4,34.3,34.3c0,18.9-15.4,34.3-34.3,34.3s-34.3-15.4-34.3-34.3
		C2330.8,1080.9,2346.2,1065.5,2365.1,1065.5z"/>
</g>
</svg>
