<?xml version="1.0" encoding="utf-8"?>
<!-- Generator: Adobe Illustrator 22.1.0, SVG Export Plug-In . SVG Version: 6.00 Build 0)  -->
<svg version="1.1" id="Layer_1" xmlns="http://www.w3.org/2000/svg" xmlns:xlink="http://www.w3.org/1999/xlink" x="0px" y="0px"
	 viewBox="0 0 3840 2160" style="enable-background:new 0 0 3840 2160;" xml:space="preserve">
<style type="text/css">
	.st0{fill:#FFFFFF;}
	.st1{font-family:'Montserrat-SemiBold';}
	.st2{font-size:27.1575px;}
	.st3{display:none;fill:#27A8E0;}
	.st4{fill:none;}
	.st5{fill:none;stroke:#FFFFFF;stroke-width:6;stroke-miterlimit:10;}
	.st6{font-size:185px;}
	.st7{font-size:90px;}
	.st8{font-size:115px;}
	.st9{font-size:67.9732px;}
	.st10{font-size:48.8836px;}
	.st11{font-size:36.6627px;}
</style>
<g>
	<text transform="matrix(1 0 0 1 2308.8394 1685.0886)"><tspan x="0" y="0" class="st0 st1 st2">Conf </tspan><tspan x="-1.2" y="32.6" class="st0 st1 st2">5030</tspan></text>
</g>
<rect y="0" class="st3" width="3840" height="2161.3"/>
<image style="display:none;overflow:visible;opacity:0.4;" width="1180" height="954" xlink:href="3974D9821648C001.png"  transform="matrix(2.0594 0 0 2.0594 1249.2416 150.7301)">
</image>
<text transform="matrix(1 0 0 1 406.3671 321.1704)" class="st1 st6">5th Floor</text>
<text transform="matrix(1 0 0 1 543.6533 492.9549)" class="st1 st7">Main Library</text>
<text transform="matrix(1 0 0 1 651.1445 1030.8416)"><tspan x="0" y="0" class="st1 st8">Floors</tspan><tspan x="-170.7" y="165.6" class="st1 st8">1</tspan><tspan x="-126.9" y="165.6" class="st0 st1 st8">  </tspan><tspan x="-63.4" y="165.6" class="st1 st8"> 2   3   </tspan><tspan x="292.6" y="165.6" class="st1 st8">4</tspan><tspan x="370.7" y="165.6" class="st1 st8">   </tspan><tspan x="465.9" y="165.6" class="st0 st1 st8">5</tspan></text>
<g>
	<g>
		<g>
			<g>
				<line class="st4" x1="759.1" y1="1825.2" x2="902.7" y2="1968.8"/>
			</g>
			<g>
				<line class="st4" x1="759.1" y1="1968.8" x2="902.7" y2="1825.2"/>
			</g>
		</g>
		<g>
			<g>
				<path d="M832.3,1996.2c-25.2,0-50.4-9.6-69.6-28.8c-18.6-18.6-28.8-43.3-28.8-69.6c0-26.3,10.2-51,28.8-69.6l0,0l0,0
					c18.6-18.6,43.3-28.8,69.6-28.8c26.3,0,51,10.2,69.6,28.8c18.6,18.6,28.8,43.3,28.8,69.6c0,26.3-10.2,51-28.8,69.6
					C882.7,1986.6,857.5,1996.2,832.3,1996.2z M832.3,1819.3c-21,0-40.7,8.2-55.5,23l0,0c-14.8,14.8-23,34.6-23,55.5
					c0,21,8.2,40.7,23,55.5c15.3,15.3,35.4,23,55.5,23c20.1,0,40.2-7.7,55.5-23c14.8-14.8,23-34.6,23-55.5c0-21-8.2-40.7-23-55.5
					C873,1827.5,853.3,1819.3,832.3,1819.3z M769.8,1835.3L769.8,1835.3L769.8,1835.3z"/>
			</g>
			<g>
				<polygon points="833.2,1910.5 871.6,1934.1 830.3,1842.6 792.1,1934.1 				"/>
			</g>
		</g>
	</g>
	<text transform="matrix(1 0 0 1 804.7944 1780.3906)" class="st1 st9">N</text>
</g>
<polyline class="st5" points="1339.8,402 1339.8,1217.8 1504.4,1217.8 1504.8,1295.8 1957.8,1295.8 1957.8,1904.4 2060.4,1904.4 
	2060.4,2021.9 2737.9,2021.9 "/>
<polyline class="st5" points="3494.9,404.8 3494.9,338 2735.8,338 2735.8,231 2262.8,231 2263.9,338 1504.8,338 1505.4,404.8 "/>
<line class="st5" x1="2420.8" y1="231" x2="2420.8" y2="310.4"/>
<line class="st5" x1="2577.7" y1="310.4" x2="2577.7" y2="231"/>
<line class="st5" x1="2735.8" y1="338" x2="2577.7" y2="338"/>
<line class="st5" x1="2262.7" y1="1780.6" x2="2262.7" y2="2021.9"/>
<g>
	<line class="st5" x1="1925.4" y1="763.6" x2="2420.8" y2="763.6"/>
	<polyline class="st5" points="2420.8,552.1 2262.7,552.1 2262.7,438.1 2262.7,338 2420.8,338 2420.8,404.8 	"/>
	<polyline class="st5" points="2420.8,669.1 2420.8,438.1 2262.7,438.1 	"/>
	<line class="st5" x1="2420.8" y1="716.4" x2="2420.8" y2="1178.3"/>
</g>
<g>
	<polyline class="st5" points="2577.7,1404.8 2577.7,933.1 2577.7,906.1 2577.7,832.6 2673.7,832.6 	"/>
	<line class="st5" x1="2577.7" y1="1479.8" x2="2577.7" y2="1434.8"/>
	<line class="st5" x1="2577.7" y1="1575.8" x2="2577.7" y2="1508.3"/>
	<line class="st5" x1="2577.7" y1="1658.4" x2="2577.7" y2="1611.8"/>
	<polyline class="st5" points="2577.7,1247.1 2735.8,1247.1 2735.8,1751.1 2577.7,1751.1 2577.7,1675.1 	"/>
	<line class="st5" x1="2577.7" y1="766.7" x2="2577.7" y2="723.7"/>
	<line class="st5" x1="2735.8" y1="763.6" x2="2577.7" y2="763.6"/>
	<polyline class="st5" points="2577.7,689.7 2577.7,438.1 2735.8,438.1 2735.8,338 2577.7,338 2577.7,404.8 	"/>
</g>
<polyline class="st5" points="2577.7,648.3 2735.8,648.3 2735.8,782.6 "/>
<g>
	<g>
		<polyline class="st5" points="3480.4,848 3480.4,869.4 3661.4,869.4 		"/>
		<polyline class="st5" points="3480.4,791.3 3480.4,770 3661.4,770 		"/>
	</g>
	<line class="st5" x1="3480.4" y1="808.3" x2="3480.4" y2="831"/>
</g>
<g>
	<g>
		<polyline class="st5" points="1556.2,798.3 1556.2,848 1341.9,848 		"/>
		<line class="st5" x1="1520.4" y1="748.6" x2="1341.9" y2="748.6"/>
		<polyline class="st5" points="1556.2,798.3 1556.2,748.6 1542.9,748.6 		"/>
	</g>
</g>
<polyline class="st5" points="3041.9,1295.8 3041.9,1216.2 3658.2,1216.2 3659.9,402 "/>
<line class="st5" x1="3623.4" y1="819.7" x2="3527.4" y2="819.7"/>
<line class="st5" x1="1497" y1="798.3" x2="1401" y2="798.3"/>
<line class="st5" x1="3661.4" y1="404.8" x2="2735.8" y2="404.8"/>
<line class="st5" x1="2265.3" y1="404.8" x2="1339.8" y2="404.8"/>
<g>
	<g>
		<g>
			<text transform="matrix(1 0 0 1 2890.8071 865.6096)" class="st0 st1 st10">A</text>
		</g>
		<polygon class="st0" points="2925.3,944.1 2909.1,960.3 2892.9,944.1 2892.9,933.4 2905.2,945.7 2905.2,898.6 2913.1,898.6 
			2913.1,945.6 2925.3,933.4 		"/>
		<g>
			<text transform="matrix(1 0 0 1 2888.9253 1030.6096)" class="st0 st1 st10">D</text>
		</g>
	</g>
</g>
<g>
	<g>
		<circle class="st0" cx="2703" cy="389.9" r="8.6"/>
		<path class="st0" d="M2657.8,370.6l30.9,6.5c2.2,0.5,3.3,3,2,4.9l-3.9,6.1c-0.7,1.1-0.7,2.4,0,3.5l3.9,6.1c1.2,1.9,0.2,4.4-2,4.9
			l-30.9,6.5c-1.7,0.4-3.4-0.7-3.8-2.4c-0.4-1.6-1.9-2.6-3.6-2.4l-7.4,1c-1.7,0.2-3.4-1-3.7-2.8l-0.3-2.2c-0.2-1.5-1.5-2.7-3-2.8
			l-23.8-1.4c-2.5-0.2-4.5-2.2-4.5-4.8v-1.6v-1.6c0-2.5,1.9-4.6,4.5-4.8l23.8-1.4c1.5-0.1,2.8-1.3,3-2.8l0.3-2.2
			c0.2-1.7,1.9-3,3.7-2.8l7.4,1c1.6,0.2,3.2-0.8,3.6-2.4C2654.5,371.2,2656.1,370.2,2657.8,370.6z"/>
	</g>
	<g>
		<g>
			<path class="st0" d="M2308.4,376.4l-0.5,2.3c-0.4,1.6,0.1,3.2,1.3,4.4l3.3,3.3c1.9,1.9,1.9,4.8,0,6.7l-3.3,3.3
				c-1.1,1.1-1.6,2.8-1.3,4.4l0.5,2.3c0.5,2.3,2.7,3.9,5,3.7l28.7-2.4c1.8-0.2,3.4-1.3,4-3l0,0c0.6-1.7,2.3-2.9,4.1-3.1l37.2-2.3
				c2.5-0.2,4.4-2.2,4.4-4.7v-1.6v-1.6c0-2.5-1.9-4.6-4.4-4.7l-37.2-2.3c-1.9-0.1-3.5-1.3-4.1-3.1c-0.6-1.7-2.2-2.9-4-3l-28.7-2.4
				C2311,372.5,2308.9,374.1,2308.4,376.4z"/>
			<circle class="st0" cx="2297.4" cy="389.7" r="8.6"/>
		</g>
	</g>
</g>
<g>
	<circle class="st0" cx="2688.9" cy="1295.9" r="8.6"/>
	<path class="st0" d="M2643.7,1276.6l30.9,6.5c2.2,0.5,3.3,3,2,4.9l-3.9,6.1c-0.7,1.1-0.7,2.4,0,3.5l3.9,6.1c1.2,1.9,0.2,4.4-2,4.9
		l-30.9,6.5c-1.7,0.4-3.4-0.7-3.8-2.4c-0.4-1.6-1.9-2.6-3.6-2.4l-7.4,1c-1.7,0.2-3.4-1-3.7-2.8l-0.3-2.2c-0.2-1.5-1.5-2.7-3-2.8
		l-23.8-1.4c-2.5-0.2-4.5-2.2-4.5-4.8v-1.6v-1.6c0-2.5,1.9-4.6,4.5-4.8l23.8-1.4c1.5-0.1,2.8-1.3,3-2.8l0.3-2.2
		c0.2-1.7,1.9-3,3.7-2.8l7.4,1c1.6,0.2,3.2-0.8,3.6-2.4C2640.3,1277.3,2642,1276.2,2643.7,1276.6z"/>
</g>
<g>
	<g>
		<path class="st0" d="M2305.2,1284.7l-0.5,2.3c-0.4,1.6,0.1,3.2,1.3,4.4l3.3,3.3c1.9,1.9,1.9,4.8,0,6.7l-3.3,3.3
			c-1.1,1.1-1.6,2.8-1.3,4.4l0.5,2.3c0.5,2.3,2.7,3.9,5,3.7l28.7-2.4c1.8-0.2,3.4-1.3,4-3l0,0c0.6-1.7,2.3-2.9,4.1-3.1l37.2-2.3
			c2.5-0.2,4.4-2.2,4.4-4.7v-1.6v-1.6c0-2.5-1.9-4.6-4.4-4.7l-37.2-2.3c-1.9-0.1-3.5-1.3-4.1-3.1c-0.6-1.7-2.2-2.9-4-3l-28.7-2.4
			C2307.9,1280.8,2305.7,1282.4,2305.2,1284.7z"/>
		<circle class="st0" cx="2294.3" cy="1298" r="8.6"/>
	</g>
</g>
<g>
	<text transform="matrix(1 0 0 1 2613.3545 717.7068)" class="st0 st1 st2">Elev B</text>
</g>
<g>
	<text transform="matrix(1 0 0 1 1609.7252 383.8623)" class="st0 st1 st11">Research Studies 5016 – 5001</text>
</g>
<g>
	<text transform="matrix(1 0 0 1 2836.2925 383.8621)" class="st0 st1 st11">Research Studies 5085 – 5070</text>
</g>
<g>
	<text transform="matrix(1 0 0 1 2400.5469 1884.7864)"><tspan x="0" y="0" class="st0 st1 st10">Administration </tspan><tspan x="51.6" y="58.7" class="st0 st1 st10">Office 5031</tspan></text>
</g>
<g>
	<text transform="matrix(1 0 0 1 3083.0327 1269.5471)" class="st0 st1 st11">Studies 5049 – 5058</text>
</g>
<polyline class="st5" points="2261.8,2021.9 2909.1,2021.9 2909.1,1908.4 3041.9,1908.4 3041.9,1295.8 3494.9,1295.8 3494.9,1216.2 
	"/>
<g>
	<text transform="matrix(1 0 0 1 1675.1664 515.5417)" class="st0 st1 st10">Folios E – F</text>
</g>
<g>
	<text transform="matrix(1 0 0 1 1387.3527 1021.3772)"><tspan x="0" y="0" class="st0 st1 st11">Conservation </tspan><tspan x="44.5" y="44" class="st0 st1 st11">Lab 5017</tspan></text>
</g>
<g>
	<text transform="matrix(1 0 0 1 2221.3525 1053.8274)"><tspan x="0" y="0" class="st0 st1 st11">Staff </tspan><tspan x="-23.3" y="44" class="st0 st1 st11">Offices </tspan><tspan x="-2.1" y="88" class="st0 st1 st11">5020</tspan></text>
</g>
<line class="st5" x1="1597.4" y1="763.6" x2="1888.7" y2="763.6"/>
<line class="st5" x1="1689.4" y1="763.6" x2="1689.4" y2="1147.7"/>
<line class="st5" x1="1689.4" y1="1198.4" x2="1689.4" y2="1295.8"/>
<g>
	<text transform="matrix(1 0 0 1 1692.226 649.7644)" class="st0 st1 st10">Gov’t Info</text>
</g>
<polyline class="st5" points="2735.8,821.7 2735.8,955.7 2577.7,955.7 "/>
<line class="st5" x1="2511.3" y1="1635.8" x2="2737.9" y2="1635.8"/>
<polyline class="st5" points="2420.8,1224.8 2420.8,1247.1 2420.8,1404.8 "/>
<polyline class="st5" points="2262.7,1647.8 2262.7,1344.8 2262.7,1247.1 2420.8,1247.1 "/>
<line class="st5" x1="2420.8" y1="1343.3" x2="2262.7" y2="1343.3"/>
<line class="st5" x1="2420.8" y1="1434.8" x2="2420.8" y2="1479.8"/>
<polyline class="st5" points="2420.8,1508.3 2420.8,1553.3 2262.7,1553.3 "/>
<line class="st5" x1="2420.8" y1="1575.8" x2="2420.8" y2="1611.8"/>
<line class="st5" x1="2479.3" y1="1635.8" x2="2264.7" y2="1635.8"/>
<line class="st5" x1="2264.7" y1="1457.3" x2="2420.8" y2="1457.3"/>
<line class="st5" x1="2733.6" y1="1343.3" x2="2575.4" y2="1343.3"/>
<line class="st5" x1="2735.8" y1="1457.3" x2="2577.7" y2="1457.3"/>
<polyline class="st5" points="2735.8,1751.1 2854.4,1751.1 2854.4,1542.1 2942.4,1542.1 2942.4,1316.5 3041.9,1316.5 "/>
<polyline class="st5" points="2420.8,1635.8 2420.8,1751.1 2262.7,1751.1 2262.7,1675.4 "/>
<g>
	<text transform="matrix(1 0 0 1 2596.2612 890.7068)"><tspan x="0" y="0" class="st0 st1 st2">Vending </tspan><tspan x="26.1" y="32.6" class="st0 st1 st2">5062</tspan></text>
</g>
<polyline class="st5" points="2607.8,231 2607.8,298.4 2673.7,298.4 2673.7,274.4 2649.6,274.4 "/>
<polyline class="st5" points="2384.7,231 2384.7,298.4 2318.8,298.4 2318.8,274.4 2342.9,274.4 "/>
<g>
	<text transform="matrix(1 0 0 1 2609.9658 1410.041)" class="st0 st1 st2">Elev D</text>
</g>
<g>
	<text transform="matrix(1 0 0 1 2296.8149 1410.041)" class="st0 st1 st2">Elev C</text>
</g>
<g>
	<text transform="matrix(1 0 0 1 2308.8394 1687.0886)"><tspan x="0" y="0" class="st0 st1 st2">Conf </tspan><tspan x="-1.2" y="32.6" class="st0 st1 st2">5030</tspan></text>
</g>
<g>
	<text transform="matrix(1 0 0 1 2623.3486 1687.0886)"><tspan x="0" y="0" class="st0 st1 st2">Conf</tspan><tspan x="0.1" y="32.6" class="st0 st1 st2">5032</tspan></text>
</g>
<rect x="2298.8" y="1585.4" class="st5" width="85.9" height="16.8"/>
</svg>
