<svg id="Layer_1" data-name="Layer 1" xmlns="http://www.w3.org/2000/svg" viewBox="0 0 2520 2160"><defs><style>.cls-1{font-size:48.88px;}.cls-1,.cls-26,.cls-32,.cls-4,.cls-43{fill:#fff;}.cls-1,.cls-26,.cls-32,.cls-4{font-family:Montserrat-SemiBold, Montserrat;font-weight:700;}.cls-2{letter-spacing:0em;}.cls-3{letter-spacing:0em;}.cls-4{font-size:36.66px;}.cls-5{letter-spacing:-0.01em;}.cls-6{letter-spacing:0em;}.cls-7{letter-spacing:-0.02em;}.cls-8{letter-spacing:0em;}.cls-9{letter-spacing:-0.01em;}.cls-10{letter-spacing:0em;}.cls-11{letter-spacing:0.01em;}.cls-12{letter-spacing:0em;}.cls-13{letter-spacing:-0.01em;}.cls-14{letter-spacing:-0.02em;}.cls-15{letter-spacing:-0.01em;}.cls-16{letter-spacing:0em;}.cls-17{letter-spacing:-0.01em;}.cls-18{letter-spacing:-0.02em;}.cls-19{letter-spacing:-0.01em;}.cls-20{letter-spacing:0em;}.cls-21{letter-spacing:0em;}.cls-22{letter-spacing:0.01em;}.cls-23{letter-spacing:-0.02em;}.cls-24{letter-spacing:0.01em;}.cls-25{letter-spacing:-0.01em;}.cls-26{font-size:28.52px;}.cls-27{letter-spacing:-0.02em;}.cls-28{letter-spacing:-0.01em;}.cls-29{letter-spacing:0em;}.cls-30{letter-spacing:0em;}.cls-31{letter-spacing:-0.01em;}.cls-32{font-size:27.16px;}.cls-33{letter-spacing:-0.01em;}.cls-34{letter-spacing:0em;}.cls-35{letter-spacing:0em;}.cls-36{letter-spacing:0em;}.cls-37{letter-spacing:0.01em;}.cls-38{letter-spacing:-0.02em;}.cls-39{letter-spacing:0em;}.cls-40{letter-spacing:-0.01em;}.cls-41{letter-spacing:0.01em;}.cls-42{letter-spacing:-0.01em;}.cls-44{fill:none;stroke:#fff;stroke-miterlimit:10;stroke-width:6px;}</style></defs><title>Lib_Floor1</title><text class="cls-1" transform="translate(431.06 309.78)">T<tspan class="cls-2" x="29.43" y="0">h</tspan><tspan x="63.16" y="0">e Studio</tspan><tspan x="0" y="58.66">1</tspan><tspan class="cls-3" x="18.62" y="58.66">0</tspan><tspan x="51.28" y="58.66">15</tspan></text><text class="cls-4" transform="translate(630.49 486.33)">Class<tspan class="cls-5" x="97.27" y="0">r</tspan><tspan x="112.3" y="0">oom</tspan><tspan x="41.76" y="44">1</tspan><tspan class="cls-6" x="55.73" y="44">0</tspan><tspan x="80.22" y="44">15</tspan><tspan class="cls-7" x="115.6" y="44">-</tspan><tspan class="cls-8" x="128.98" y="44">A</tspan></text><text class="cls-4" transform="translate(685.74 740.91)">TILE <tspan x="-53.89" y="44">Class</tspan><tspan class="cls-5" x="43.37" y="44">r</tspan><tspan x="58.4" y="44">oom</tspan><tspan x="4.64" y="87.99">1</tspan><tspan class="cls-6" x="18.61" y="87.99">0</tspan><tspan x="43.1" y="87.99">22</tspan></text><text class="cls-4" transform="translate(877.67 802.88)">Staff Offi<tspan class="cls-9" x="169.49" y="0">c</tspan><tspan x="190.5" y="0">es</tspan><tspan x="74.75" y="44">1</tspan><tspan class="cls-6" x="88.72" y="44">0</tspan><tspan class="cls-10" x="113.21" y="44">2</tspan><tspan x="134.44" y="44">6</tspan></text><text class="cls-4" transform="translate(1181.43 499.27)">Galle<tspan class="cls-11" x="94.55" y="0">r</tspan><tspan x="110.5" y="0">y</tspan><tspan x="27.29" y="44">10</tspan><tspan class="cls-6" x="65.94" y="44">0</tspan><tspan class="cls-12" x="90.43" y="44">1</tspan></text><text class="cls-4" transform="translate(1145.28 312.5)">No<tspan class="cls-11" x="53.34" y="0">r</tspan><tspan x="69.29" y="0">th </tspan><tspan class="cls-13" x="120.07" y="0">L</tspan><tspan x="141.85" y="0">ob</tspan><tspan class="cls-14" x="190.64" y="0">b</tspan><tspan x="215.24" y="0">y</tspan></text><text class="cls-4" transform="translate(1427.12 501.99)">Sham<tspan class="cls-15" x="109.03" y="0">b</tspan><tspan class="cls-16" x="133.93" y="0">augh </tspan><tspan class="cls-17" x="13.03" y="44">A</tspan><tspan x="40.13" y="44">udi</tspan><tspan class="cls-18" x="100.88" y="44">t</tspan><tspan class="cls-12" x="115.76" y="44">o</tspan><tspan class="cls-6" x="139.41" y="44">r</tspan><tspan x="154.62" y="44">ium</tspan><tspan x="83.99" y="87.99">11</tspan><tspan class="cls-10" x="111.93" y="87.99">2</tspan><tspan x="133.16" y="87.99">0</tspan></text><text class="cls-4" transform="translate(1864.04 594.37)">TILE<tspan x="-58.95" y="44">Class</tspan><tspan class="cls-17" x="38.31" y="44">r</tspan><tspan class="cls-12" x="53.34" y="44">oom</tspan><tspan x="1.39" y="87.99">1140</tspan></text><text class="cls-4" transform="translate(572.79 1132.14)">Staff<tspan x="-23.12" y="44">Offi</tspan><tspan class="cls-9" x="48.34" y="44">c</tspan><tspan x="69.35" y="44">es</tspan><tspan x="7.17" y="87.99">1</tspan><tspan class="cls-17" x="21.14" y="87.99">0</tspan><tspan class="cls-8" x="45.44" y="87.99">31</tspan></text><text class="cls-4" transform="translate(808.37 1265.71)">Re<tspan class="cls-19" x="49.6" y="0">f</tspan><tspan x="62.84" y="0">e</tspan><tspan class="cls-17" x="85.64" y="0">r</tspan><tspan x="100.67" y="0">e</tspan><tspan class="cls-20" x="123.48" y="0">n</tspan><tspan class="cls-9" x="148.78" y="0">c</tspan><tspan class="cls-21" x="169.78" y="0">e</tspan><tspan class="cls-7" x="1.28" y="44">C</tspan><tspan x="27.2" y="44">olle</tspan><tspan class="cls-22" x="94.85" y="44">c</tspan><tspan class="cls-21" x="116.4" y="44">tion</tspan></text><text class="cls-4" transform="translate(1194.23 1364.48)">Se<tspan class="cls-11" x="45.86" y="0">r</tspan><tspan class="cls-16" x="61.81" y="0">vi</tspan><tspan class="cls-9" x="93.6" y="0">c</tspan><tspan x="114.61" y="0">e</tspan><tspan class="cls-23"><tspan x="-28.6" y="44">C</tspan><tspan class="cls-12" x="-2.68" y="44">om</tspan><tspan class="cls-24" x="59.58" y="44">m</tspan><tspan class="cls-12" x="98.37" y="44">ons</tspan></tspan></text><text class="cls-4" transform="translate(1196.55 1962.61)">South <tspan class="cls-6" x="122.45" y="0">L</tspan><tspan class="cls-12" x="144.23" y="0">ob</tspan><tspan class="cls-25" x="193.03" y="0">b</tspan><tspan x="217.63" y="0">y</tspan></text><text class="cls-26" transform="translate(1523.97 1623.8)"><tspan class="cls-27">F</tspan><tspan x="17.74" y="0">ood </tspan><tspan class="cls-28" x="81.98" y="0">f</tspan><tspan class="cls-29" x="92.27" y="0">or</tspan><tspan x="-1.71" y="34.22">T</tspan><tspan class="cls-30" x="15.46" y="34.22">h</tspan><tspan x="35.13" y="34.22">ought</tspan><tspan class="cls-31" x="28.36" y="68.44">C</tspan><tspan x="48.95" y="68.44">a</tspan><tspan class="cls-28" x="66.25" y="68.44">f</tspan><tspan x="76.55" y="68.44">e</tspan></text><text class="cls-32" transform="translate(1778.73 356.06)">11<tspan class="cls-33" x="20.69" y="0">5</tspan><tspan x="36.42" y="0">3</tspan></text><text class="cls-32" transform="translate(1853.41 356.06)">11<tspan class="cls-33" x="20.69" y="0">5</tspan><tspan x="36.42" y="0">2</tspan></text><text class="cls-32" transform="translate(1781.39 514.98)">1151</text><text class="cls-32" transform="translate(1852.11 514.98)">1150</text><text class="cls-32" transform="translate(1780.06 757.99)">11<tspan class="cls-33" x="20.69" y="0">3</tspan><tspan x="36.36" y="0">3</tspan></text><text class="cls-32" transform="translate(1854.75 757.99)">11<tspan class="cls-34" x="20.69" y="0">3</tspan><tspan x="36.36" y="0">2</tspan></text><text class="cls-32" transform="translate(1780.96 924.55)">1131</text><text class="cls-32" transform="translate(1851.67 924.55)">1130</text><text class="cls-32" transform="translate(2074.99 811.85)">F</text><text class="cls-32" transform="translate(2074.54 1402.36)">E</text><text class="cls-4" transform="translate(1485.39 1074.04)"><tspan class="cls-6">L</tspan><tspan class="cls-25" x="21.78" y="0">e</tspan><tspan x="44.03" y="0">a</tspan><tspan class="cls-13" x="66.29" y="0">r</tspan><tspan x="81.5" y="0">ni</tspan><tspan class="cls-35" x="117.21" y="0">n</tspan><tspan x="142.51" y="0">g</tspan><tspan class="cls-23"><tspan x="-13.33" y="44">C</tspan><tspan class="cls-12" x="12.59" y="44">om</tspan><tspan class="cls-24" x="74.85" y="44">m</tspan><tspan class="cls-12" x="113.64" y="44">ons</tspan></tspan></text><text class="cls-32" transform="translate(1782.08 1079.72)">M<tspan class="cls-36" x="25.94" y="0">a</tspan><tspan x="42.55" y="0">dison</tspan><tspan x="-5.01" y="32.59">S</tspan><tspan class="cls-37" x="12.07" y="32.59">t</tspan><tspan x="23.86" y="32.59">. </tspan><tspan class="cls-34" x="37.98" y="32.59">L</tspan><tspan x="54.11" y="32.59">ob</tspan><tspan class="cls-38" x="90.26" y="32.59">b</tspan><tspan class="cls-39" x="108.48" y="32.59">y</tspan></text><text class="cls-32" transform="translate(1830.51 1524.57)">D</text><text class="cls-32" transform="translate(1498.32 1296.94)">C</text><text class="cls-32" transform="translate(1497.86 1433.59)">B</text><text class="cls-32" transform="translate(1014 1819.83)">A</text><text class="cls-32" transform="translate(879.32 1896.79)">11<tspan class="cls-40" x="20.69" y="0">0</tspan><tspan x="38.7" y="0">3</tspan></text><text class="cls-32" transform="translate(879.15 1978.27)">1105</text><text class="cls-32" transform="translate(1318.23 1123.51)">Se<tspan class="cls-41" x="33.97" y="0">r</tspan><tspan class="cls-39" x="45.79" y="0">vi</tspan><tspan class="cls-42" x="69.33" y="0">c</tspan><tspan x="84.89" y="0">e</tspan><tspan x="15.6" y="32.59">Desk</tspan></text><text class="cls-32" transform="translate(1780.6 1245.4)">1117</text><text class="cls-32" transform="translate(1854.69 1245.4)">1118</text><text class="cls-32" transform="translate(1780.93 1403.72)">1115</text><text class="cls-32" transform="translate(1854.32 1403.72)">1114</text><text class="cls-32" transform="translate(1780.96 1644.06)">1113</text><text class="cls-32" transform="translate(1855.64 1644.06)">1112</text><text class="cls-32" transform="translate(1783.69 1811.08)">1111</text><text class="cls-32" transform="translate(1854.4 1811.08)">1110</text><text class="cls-32" transform="translate(1098.65 1646.86)">El<tspan class="cls-40" x="26.04" y="0">e</tspan><tspan x="42.66" y="0">v C</tspan></text><text class="cls-32" transform="translate(1336.21 1646.86)">El<tspan class="cls-40" x="26.04" y="0">e</tspan><tspan x="42.66" y="0">v D</tspan></text><circle class="cls-43" cx="1417.48" cy="786.53" r="7.41"/><path class="cls-43" d="M1375.45,771.88a2.8,2.8,0,0,1-3.07,2.09l-6.37-.87a2.81,2.81,0,0,0-3.13,2.36l-.28,1.88a2.74,2.74,0,0,1-2.57,2.37l-20.39,1.22a4.11,4.11,0,0,0-3.83,4.1v2.79a4.08,4.08,0,0,0,3.83,4.1l20.39,1.22a2.74,2.74,0,0,1,2.57,2.37l.28,1.88a2.8,2.8,0,0,0,3.13,2.36l6.37-.87a2.83,2.83,0,0,1,3.07,2.09,2.78,2.78,0,0,0,3.27,2.06l26.51-5.61a2.77,2.77,0,0,0,1.74-4.21L1403.6,788a2.75,2.75,0,0,1,0-3l3.37-5.22a2.74,2.74,0,0,0-1.74-4.21L1378.72,770A2.81,2.81,0,0,0,1375.45,771.88Z"/><circle class="cls-43" cx="1471.06" cy="923.45" r="7.41"/><path class="cls-43" d="M1509.83,906.88l-26.52,5.6a2.76,2.76,0,0,0-1.74,4.22l3.38,5.22a2.75,2.75,0,0,1,0,3l-3.38,5.22a2.78,2.78,0,0,0,1.74,4.21l26.52,5.6a2.78,2.78,0,0,0,3.27-2.05,2.82,2.82,0,0,1,3.06-2.09l6.37.87a2.79,2.79,0,0,0,3.13-2.37l.28-1.87a2.76,2.76,0,0,1,2.58-2.37l20.39-1.22a4.08,4.08,0,0,0,3.83-4.11V922a4.11,4.11,0,0,0-3.83-4.11l-20.39-1.21a2.76,2.76,0,0,1-2.58-2.37l-.28-1.88a2.81,2.81,0,0,0-3.13-2.37l-6.37.87a2.78,2.78,0,0,1-3.06-2.08A2.81,2.81,0,0,0,1509.83,906.88Z"/><path class="cls-43" d="M1481.05,822.52l-.45,2a4,4,0,0,0,1.11,3.77l2.83,2.83a4,4,0,0,1,0,5.74l-2.83,2.83a4.16,4.16,0,0,0-1.11,3.77l.45,2a4.09,4.09,0,0,0,4.29,3.18l24.64-2a4.08,4.08,0,0,0,3.46-2.6h0a4.09,4.09,0,0,1,3.56-2.62l31.94-1.94a4,4,0,0,0,3.8-4v-2.77a4,4,0,0,0-3.8-4L1517,826.67a4.07,4.07,0,0,1-3.56-2.63,4,4,0,0,0-3.46-2.59l-24.64-2A3.94,3.94,0,0,0,1481.05,822.52Z"/><circle class="cls-43" cx="1471.68" cy="833.97" r="7.36"/><path class="cls-43" d="M1403.21,863l-24.64,2a4,4,0,0,0-3.46,2.6,4.08,4.08,0,0,1-3.56,2.62l-31.94,1.94a4,4,0,0,0-3.8,4V879a4,4,0,0,0,3.8,4l31.94,1.94a4.09,4.09,0,0,1,3.56,2.62h0a4.07,4.07,0,0,0,3.46,2.6l24.64,2a4.09,4.09,0,0,0,4.29-3.18l.45-2a4.19,4.19,0,0,0-1.11-3.77l-2.83-2.83a4,4,0,0,1,0-5.74l2.83-2.83a4.06,4.06,0,0,0,1.11-3.77l-.45-2A3.94,3.94,0,0,0,1403.21,863Z"/><circle class="cls-43" cx="1416.86" cy="877.55" r="7.36"/><text class="cls-32" transform="translate(1170.79 837.53)">A</text><polygon class="cls-44" points="851.08 902.79 608.11 902.79 608.11 642.05 608.11 351.67 851.08 351.67 851.08 902.79"/><line class="cls-44" x1="851.08" y1="627.23" x2="608.11" y2="627.23"/><line class="cls-44" x1="608.11" y1="784.27" x2="371.06" y2="784.27"/><polyline class="cls-44" points="851.08 378.33 1014.05 378.33 1014.05 351.67 1082.2 351.67 1082.2 378.34 1082.2 701.31 1200.72 701.31 1200.72 734.89 1200.72 767.48"/><polyline class="cls-44" points="1082.2 381.3 1415.08 381.3 1415.08 627.23"/><polyline class="cls-44" points="1082.2 627.23 1443.69 627.23 1443.69 970.95 1622.21 970.95 1622.21 864.27"/><polyline class="cls-44" points="1082.2 1036.13 1082.2 1510.22 729.6 1510.22 504.4 1510.22 504.4 1036.13 733.54 1036.13"/><line class="cls-44" x1="729.59" y1="1032.67" x2="729.59" y2="1931.34"/><line class="cls-44" x1="371.06" y1="1036.13" x2="504.4" y2="1036.13"/><line class="cls-44" x1="371.06" y1="1107.99" x2="504.4" y2="1107.99"/><line class="cls-44" x1="371.06" y1="1192.43" x2="504.4" y2="1192.43"/><line class="cls-44" x1="368.47" y1="1273.18" x2="503.17" y2="1273.18"/><line class="cls-44" x1="616.75" y1="1273.18" x2="729.59" y2="1273.18"/><line class="cls-44" x1="505.51" y1="1273.18" x2="568.11" y2="1273.18"/><line class="cls-44" x1="375.51" y1="1758.13" x2="723.17" y2="1758.13"/><rect class="cls-44" x="1082.2" y="701.31" width="118.52" height="39.51"/><polyline class="cls-44" points="1135.53 745.75 1135.53 799.09 1200.72 799.09"/><polyline class="cls-44" points="1161.21 801.8 1161.21 857.36 1141.46 877.12 1106.89 877.12"/><line class="cls-44" x1="1076.27" y1="877.11" x2="856.02" y2="877.11"/><line class="cls-44" x1="1200.72" y1="784.27" x2="1200.72" y2="820.82"/><line class="cls-44" x1="1200.72" y1="838.1" x2="1200.72" y2="874.65"/><line class="cls-44" x1="1161.21" y1="857.36" x2="1200.72" y2="857.36"/><rect class="cls-44" x="1314.3" y="740.81" width="129.39" height="89.88"/><rect class="cls-44" x="1314.3" y="832.18" width="129.39" height="89.88"/><polyline class="cls-44" points="1314.3 740.81 1314.3 701.31 1439.74 701.31"/><polyline class="cls-44" points="1314.3 922.05 1314.3 951.93 1314.3 984.52"/><polyline class="cls-44" points="1314.3 1039.46 1394.3 1039.46 1394.3 964.15 1314.3 964.15"/><polyline class="cls-44" points="1314.3 1015.88 1314.3 1082.55 1439.74 1082.55"/><line class="cls-44" x1="1443.69" y1="970.94" x2="1443.69" y2="1121.07"/><line class="cls-44" x1="1443.69" y1="1217.12" x2="1443.69" y2="1748.86"/><line class="cls-44" x1="1082.2" y1="1510.22" x2="1082.2" y2="1750.23"/><polyline class="cls-44" points="1459.24 1526.52 1505.91 1526.52 1505.91 1750.23 966.14 1750.23 966.14 1845.04"/><line class="cls-44" x1="966.14" y1="1931.34" x2="966.14" y2="2025.61"/><polyline class="cls-44" points="1082.2 1597.63 1200.72 1597.63 1200.72 1677.88 1200.72 1754.05"/><line class="cls-44" x1="1082.2" y1="1677.88" x2="1200.72" y2="1677.88"/><polyline class="cls-44" points="1440.97 1597.63 1319.73 1597.63 1319.73 1677.88 1319.73 1752.7"/><line class="cls-44" x1="1442.33" y1="1677.88" x2="1319.73" y2="1677.88"/><polyline class="cls-44" points="856.02 232.4 856.02 308.7 972.56 308.7 972.56 232.4"/><line class="cls-44" x1="1025.9" y1="231.4" x2="1025.9" y2="308.7"/><line class="cls-44" x1="1082.2" y1="225.4" x2="1082.2" y2="308.7"/><polyline class="cls-44" points="1415.08 405 1465.91 405 1465.91 360.56 1630.36 360.56 1630.36 405 1671.84 405 1671.84 793.16 1699.99 793.16 1699.99 877.12 1662.95 877.12"/><polyline class="cls-44" points="1448.87 789.09 1620.73 789.09 1620.73 832.17"/><polyline class="cls-44" points="1699.99 832.17 1586.65 832.17 1586.65 849.09"/><line class="cls-44" x1="1448.87" y1="879.46" x2="1596.28" y2="879.46"/><line class="cls-44" x1="1570.73" y1="883.53" x2="1570.73" y2="913.91"/><polygon class="cls-44" points="1916.79 381.3 1766.66 381.3 1766.66 308.7 1841.72 308.7 1916.79 308.7 1916.79 381.3"/><line class="cls-44" x1="1841.72" y1="381.3" x2="1841.72" y2="308.7"/><polygon class="cls-44" points="1916.79 540.56 1766.66 540.56 1766.66 467.97 1841.72 467.97 1916.79 467.97 1916.79 540.56"/><line class="cls-44" x1="1841.72" y1="540.56" x2="1841.72" y2="467.97"/><polygon class="cls-44" points="1916.79 782.05 1766.66 782.05 1766.66 709.46 1841.72 709.46 1916.79 709.46 1916.79 782.05"/><line class="cls-44" x1="1841.72" y1="782.05" x2="1841.72" y2="709.46"/><polygon class="cls-44" points="1916.79 950.2 1766.66 950.2 1766.66 877.61 1841.72 877.61 1916.79 877.61 1916.79 950.2"/><line class="cls-44" x1="1841.72" y1="950.2" x2="1841.72" y2="877.61"/><polygon class="cls-44" points="1916.79 1273.18 1766.66 1273.18 1766.66 1200.58 1841.72 1200.58 1916.79 1200.58 1916.79 1273.18"/><line class="cls-44" x1="1841.72" y1="1273.18" x2="1841.72" y2="1200.58"/><polygon class="cls-44" points="1916.79 1430.71 1766.66 1430.71 1766.66 1358.12 1841.72 1358.12 1916.79 1358.12 1916.79 1430.71"/><line class="cls-44" x1="1841.72" y1="1430.71" x2="1841.72" y2="1358.12"/><polygon class="cls-44" points="1916.79 1670.22 1766.66 1670.22 1766.66 1597.63 1841.72 1597.63 1916.79 1597.63 1916.79 1670.22"/><line class="cls-44" x1="1841.72" y1="1670.22" x2="1841.72" y2="1597.63"/><polygon class="cls-44" points="1916.79 1838.38 1766.66 1838.38 1766.66 1765.78 1841.72 1765.78 1916.79 1765.78 1916.79 1838.38"/><line class="cls-44" x1="1841.72" y1="1838.38" x2="1841.72" y2="1765.78"/><polyline class="cls-44" points="1620.73 1220.95 1665.92 1220.95 1665.92 1358.12"/><line class="cls-44" x1="1665.92" y1="1444.04" x2="1665.92" y2="1597.63"/><polyline class="cls-44" points="1665.92 1685.04 1665.92 1839.12 1620.73 1839.12"/><line class="cls-44" x1="1586.65" y1="1838.38" x2="1505.91" y2="1838.38"/><polyline class="cls-44" points="1438.26 1802.08 1438.26 1839.12 1082.2 1839.12 1082.2 1802.08"/><polyline class="cls-44" points="2154.44 1036.13 2002.83 1036.13 2002.83 1107.99 2154.44 1107.99"/><polyline class="cls-44" points="2002.83 1183.3 2002.83 1220.83 2154.44 1220.83"/><line class="cls-44" x1="2002.83" y1="1142.8" x2="2002.83" y2="1107.99"/><polygon class="cls-44" points="2102.88 769.24 2064.42 769.24 2045.19 802.54 2064.42 835.85 2102.88 835.85 2122.11 802.54 2102.88 769.24"/><polygon class="cls-44" points="2102.88 1361.11 2064.42 1361.11 2045.19 1394.41 2064.42 1427.72 2102.88 1427.72 2122.11 1394.41 2102.88 1361.11"/><polygon class="cls-44" points="1860.95 1483.46 1822.49 1483.46 1803.27 1516.76 1822.49 1550.07 1860.95 1550.07 1880.18 1516.76 1860.95 1483.46"/><polygon class="cls-44" points="1527.42 1254.4 1488.96 1254.4 1469.73 1287.71 1488.96 1321.02 1527.42 1321.02 1546.65 1287.71 1527.42 1254.4"/><polygon class="cls-44" points="1527.42 1390.98 1488.96 1390.98 1469.73 1424.29 1488.96 1457.59 1527.42 1457.59 1546.65 1424.29 1527.42 1390.98"/><polygon class="cls-44" points="1043.4 1778.87 1004.94 1778.87 985.71 1812.18 1004.94 1845.48 1043.4 1845.48 1062.63 1812.18 1043.4 1778.87"/><line class="cls-44" x1="1789.3" y1="709.46" x2="1789.3" y2="543.77"/><line class="cls-44" x1="2025.56" y1="712.17" x2="2025.56" y2="536.98"/><line class="cls-44" x1="2029.63" y1="540.56" x2="1865.31" y2="540.56"/><line class="cls-44" x1="2027.63" y1="709.09" x2="1865.31" y2="709.09"/><text class="cls-32" transform="translate(1325.74 996.59)">El<tspan class="cls-40" x="26.04" y="0">e</tspan><tspan x="42.66" y="0">v</tspan><tspan x="18.85" y="32.59">B</tspan></text><polyline class="cls-44" points="1196.18 2024.8 841.63 2024.8 842.32 1838.45 966.14 1839.12 966.14 1931.35 843 1931.35"/><line class="cls-44" x1="1296.23" y1="2024.8" x2="1229.73" y2="2024.8"/><polyline class="cls-44" points="2153.63 1183.3 2154.39 1461.23 2143.39 1461.23 2143.39 1951.1 1663.38 1951.1 1663.38 2024.8 1334.13 2024.8"/><polyline class="cls-44" points="1324.68 232.16 2143.39 232.16 2143.39 733.36 2152.39 733.23 2153.52 1142.8"/><line class="cls-44" x1="1229.73" y1="232.16" x2="1296.23" y2="232.16"/><polyline class="cls-44" points="839.65 1951.1 375.56 1951.1 378.31 1465.23 365.56 1465.23 365.56 733.23 375.56 733.23 375.56 232.16 1200.72 232.16"/><path d="M1114.89,134.39c-.24,0-.46.07-.7.07-34.53.36-62.62,26.61-62.62,59.17a56.12,56.12,0,0,0,8.36,29.29V223a1.59,1.59,0,0,0,.07.2,2.69,2.69,0,0,0,.19.32s0,0,.06.06l53,85.78a2.25,2.25,0,0,0,3.09.74,2.18,2.18,0,0,0,.74-.74l52.4-85.78a1.46,1.46,0,0,0,.07-.19h.06v-.07l.06-.06a2.75,2.75,0,0,0,.2-.38v-.07a56.15,56.15,0,0,0,8.29-29.16c0-32.56-28.08-58.81-62.61-59.17a1.74,1.74,0,0,0-.45-.06,1.2,1.2,0,0,0-.19,0,.06.06,0,0,0-.06,0Zm0,27.26A34.34,34.34,0,1,1,1080.55,196,34.36,34.36,0,0,1,1114.89,161.65Z"/></svg>