<svg id="Layer_1" data-name="Layer 1" xmlns="http://www.w3.org/2000/svg" viewBox="0 0 2520 2160"><defs><style>.cls-1{font-size:27.16px;}.cls-1,.cls-6,.cls-7,.cls-9{fill:#fff;}.cls-1,.cls-6,.cls-9{font-family:Montserrat-SemiBold, Montserrat;font-weight:700;}.cls-2{letter-spacing:-0.02em;}.cls-3{letter-spacing:0em;}.cls-4{letter-spacing:-0.01em;}.cls-5{fill:none;stroke:#fff;stroke-miterlimit:10;stroke-width:6px;}.cls-6{font-size:48.88px;}.cls-8{letter-spacing:-0.01em;}.cls-9{font-size:36.66px;}.cls-10{letter-spacing:-0.02em;}.cls-11{letter-spacing:-0.01em;}.cls-12{letter-spacing:0em;}.cls-13{letter-spacing:0em;}.cls-14{letter-spacing:-0.02em;}.cls-15{letter-spacing:0em;}.cls-16{letter-spacing:0em;}.cls-17{letter-spacing:-0.01em;}.cls-18{letter-spacing:-0.01em;}.cls-19{letter-spacing:0em;}.cls-20{letter-spacing:-0.02em;}.cls-21{letter-spacing:-0.02em;}.cls-22{letter-spacing:0.01em;}.cls-23{letter-spacing:-0.02em;}.cls-24{letter-spacing:0em;}.cls-25{letter-spacing:0em;}.cls-26{letter-spacing:-0.01em;}.cls-27{letter-spacing:0.02em;}.cls-28{letter-spacing:0em;}.cls-29{letter-spacing:-0.01em;}.cls-30{letter-spacing:-0.05em;}.cls-31{letter-spacing:0em;}.cls-32{letter-spacing:0em;}</style></defs><title>Lib_Floor5</title><text class="cls-1" transform="translate(1069.48 1638.63)"><tspan class="cls-2">C<tspan class="cls-3" x="19.2" y="0">onf</tspan></tspan><tspan x="-1.3" y="32.59">5</tspan><tspan class="cls-4" x="14.56" y="32.59">0</tspan><tspan x="32.56" y="32.59">30</tspan></text><polyline class="cls-5" points="100.15 355.54 100.15 1171.38 264.75 1171.38 265.16 1249.38 718.21 1249.38 718.21 1857.93 820.76 1857.93 820.75 1975.46 1498.29 1975.46"/><polyline class="cls-5" points="2255.29 358.3 2255.29 291.54 1496.22 291.54 1496.22 184.54 1023.2 184.54 1024.24 291.54 265.16 291.54 265.75 358.3"/><line class="cls-5" x1="1181.21" y1="184.54" x2="1181.21" y2="263.93"/><line class="cls-5" x1="1338.03" y1="263.93" x2="1338.03" y2="184.54"/><line class="cls-5" x1="1496.22" y1="291.54" x2="1338.03" y2="291.54"/><line class="cls-5" x1="1023.03" y1="1734.1" x2="1023.03" y2="1975.46"/><line class="cls-5" x1="685.75" y1="717.15" x2="1181.21" y2="717.15"/><polyline class="cls-5" points="1181.21 505.66 1023.03 505.66 1023.03 391.67 1023.03 291.54 1181.21 291.54 1181.21 358.3"/><polyline class="cls-5" points="1181.21 622.6 1181.21 391.67 1023.03 391.67"/><line class="cls-5" x1="1181.21" y1="669.93" x2="1181.21" y2="1131.89"/><polyline class="cls-5" points="1338.03 1358.37 1338.03 886.64 1338.03 859.64 1338.03 786.15 1434.03 786.15"/><line class="cls-5" x1="1338.03" y1="1433.37" x2="1338.03" y2="1388.38"/><line class="cls-5" x1="1338.03" y1="1529.36" x2="1338.03" y2="1461.87"/><line class="cls-5" x1="1338.03" y1="1611.94" x2="1338.03" y2="1565.37"/><polyline class="cls-5" points="1338.03 1200.66 1496.22 1200.66 1496.22 1704.6 1338.03 1704.6 1338.03 1628.6"/><line class="cls-5" x1="1338.03" y1="720.24" x2="1338.03" y2="677.21"/><line class="cls-5" x1="1496.22" y1="717.15" x2="1338.03" y2="717.15"/><polyline class="cls-5" points="1338.03 643.21 1338.03 391.67 1496.22 391.67 1496.22 291.54 1338.03 291.54 1338.03 358.3"/><polyline class="cls-5" points="1338.03 601.88 1496.22 601.88 1496.22 736.15"/><polyline class="cls-5" points="2240.75 801.54 2240.75 822.89 2421.75 822.89"/><polyline class="cls-5" points="2240.75 744.88 2240.75 723.53 2421.75 723.53"/><line class="cls-5" x1="2240.75" y1="761.88" x2="2240.75" y2="784.54"/><polyline class="cls-5" points="316.54 751.86 316.54 801.54 102.25 801.54"/><line class="cls-5" x1="280.75" y1="702.17" x2="102.25" y2="702.17"/><polyline class="cls-5" points="316.54 751.86 316.54 702.17 303.25 702.17"/><polyline class="cls-5" points="1802.25 1249.38 1802.25 1169.75 2418.53 1169.75 2420.31 355.54"/><line class="cls-5" x1="2383.75" y1="773.21" x2="2287.75" y2="773.21"/><line class="cls-5" x1="257.4" y1="751.86" x2="161.4" y2="751.86"/><line class="cls-5" x1="2421.75" y1="358.3" x2="1496.22" y2="358.3"/><line class="cls-5" x1="1025.68" y1="358.3" x2="100.15" y2="358.3"/><text class="cls-6" transform="translate(1651.18 819.15)">A</text><polygon class="cls-7" points="1685.65 897.64 1669.47 913.82 1653.3 897.64 1653.3 886.98 1665.6 899.28 1665.6 852.11 1673.44 852.11 1673.44 899.19 1685.67 886.96 1685.65 897.64"/><text class="cls-6" transform="translate(1649.3 984.15)">D</text><circle class="cls-7" cx="1463.4" cy="343.4" r="8.64"/><path class="cls-7" d="M1418.22,324.1l30.9,6.53a3.2,3.2,0,0,1,2,4.9l-3.93,6.09a3.2,3.2,0,0,0,0,3.49l3.93,6.08a3.24,3.24,0,0,1-2,4.91l-30.9,6.53a3.25,3.25,0,0,1-3.82-2.4,3.28,3.28,0,0,0-3.57-2.43l-7.42,1a3.26,3.26,0,0,1-3.65-2.75l-.32-2.19a3.21,3.21,0,0,0-3-2.76l-23.77-1.42a4.76,4.76,0,0,1-4.46-4.79v-3.24a4.78,4.78,0,0,1,4.46-4.79l23.77-1.42a3.21,3.21,0,0,0,3-2.76l.32-2.19a3.27,3.27,0,0,1,3.65-2.75l7.42,1a3.24,3.24,0,0,0,3.57-2.43A3.28,3.28,0,0,1,1418.22,324.1Z"/><path class="cls-7" d="M1068.73,330l-.53,2.34a4.71,4.71,0,0,0,1.29,4.39l3.3,3.3a4.71,4.71,0,0,1,0,6.69l-3.3,3.31a4.85,4.85,0,0,0-1.29,4.39l.53,2.33a4.75,4.75,0,0,0,5,3.71l28.72-2.38a4.74,4.74,0,0,0,4-3h0a4.79,4.79,0,0,1,4.15-3.06l37.23-2.26a4.72,4.72,0,0,0,4.43-4.71v-3.22a4.7,4.7,0,0,0-4.43-4.72l-37.23-2.25a4.77,4.77,0,0,1-4.15-3.06,4.68,4.68,0,0,0-4-3l-28.72-2.37A4.58,4.58,0,0,0,1068.73,330Z"/><circle class="cls-7" cx="1057.81" cy="343.29" r="8.58"/><circle class="cls-7" cx="1449.22" cy="1249.42" r="8.64"/><path class="cls-7" d="M1404,1230.12l30.91,6.53a3.21,3.21,0,0,1,2,4.91l-3.94,6.08a3.2,3.2,0,0,0,0,3.49l3.94,6.08a3.24,3.24,0,0,1-2,4.91l-30.91,6.53a3.25,3.25,0,0,1-3.81-2.39,3.3,3.3,0,0,0-3.57-2.44l-7.42,1a3.26,3.26,0,0,1-3.65-2.76l-.33-2.19a3.2,3.2,0,0,0-3-2.76l-23.77-1.42a4.76,4.76,0,0,1-4.46-4.78v-3.25a4.8,4.8,0,0,1,4.46-4.79l23.77-1.41a3.21,3.21,0,0,0,3-2.76l.33-2.19a3.27,3.27,0,0,1,3.65-2.76l7.42,1a3.25,3.25,0,0,0,3.57-2.43A3.28,3.28,0,0,1,1404,1230.12Z"/><path class="cls-7" d="M1065.59,1238.25l-.53,2.34a4.71,4.71,0,0,0,1.29,4.39l3.31,3.3a4.73,4.73,0,0,1,0,6.69l-3.31,3.3a4.86,4.86,0,0,0-1.29,4.39l.53,2.34a4.74,4.74,0,0,0,5,3.7l28.73-2.37a4.74,4.74,0,0,0,4-3h0a4.77,4.77,0,0,1,4.15-3.06l37.23-2.26a4.72,4.72,0,0,0,4.43-4.71v-3.23a4.69,4.69,0,0,0-4.43-4.71l-37.23-2.26a4.77,4.77,0,0,1-4.15-3.06,4.67,4.67,0,0,0-4-3l-28.73-2.38A4.58,4.58,0,0,0,1065.59,1238.25Z"/><circle class="cls-7" cx="1054.67" cy="1251.58" r="8.58"/><text class="cls-1" transform="translate(1373.86 671.25)">El<tspan class="cls-8" x="26.04" y="0">e</tspan><tspan x="42.66" y="0">v B</tspan></text><text class="cls-9" transform="translate(370.83 337.41)">Res<tspan class="cls-10" x="68.49" y="0">e</tspan><tspan x="90.74" y="0">a</tspan><tspan class="cls-11" x="112.99" y="0">r</tspan><tspan class="cls-12" x="128.02" y="0">c</tspan><tspan x="149.14" y="0">h Studies 5</tspan><tspan class="cls-12" x="356.94" y="0">0</tspan><tspan x="381.44" y="0">16 – 50</tspan><tspan class="cls-12" x="503.04" y="0">0</tspan><tspan class="cls-13" x="527.53" y="0">1</tspan></text><text class="cls-9" transform="translate(1597.67 337.41)">Res<tspan class="cls-10" x="68.49" y="0">e</tspan><tspan x="90.74" y="0">a</tspan><tspan class="cls-11" x="112.99" y="0">r</tspan><tspan class="cls-12" x="128.02" y="0">c</tspan><tspan x="149.14" y="0">h Studies 5085 – 5</tspan><tspan class="cls-12" x="486.91" y="0">0</tspan><tspan class="cls-14" x="511.4" y="0">7</tspan><tspan class="cls-13" x="532.96" y="0">0</tspan></text><text class="cls-6" transform="translate(1161.23 1838.33)"><tspan class="cls-15">A</tspan><tspan class="cls-16" x="36.37" y="0">dminist</tspan><tspan class="cls-17" x="229.07" y="0">r</tspan><tspan x="249.21" y="0">ation</tspan><tspan x="51.77" y="58.66">Offi</tspan><tspan class="cls-17" x="147.04" y="58.66">c</tspan><tspan x="175.05" y="58.66">e 5</tspan><tspan class="cls-18" x="247.5" y="58.66">0</tspan><tspan x="279.9" y="58.66">31</tspan></text><text class="cls-9" transform="translate(1843.5 1223.09)">Studies 50<tspan class="cls-19" x="197.24" y="0">4</tspan><tspan x="221.95" y="0">9 – 5058</tspan></text><polyline class="cls-5" points="1022.17 1975.46 1669.48 1975.46 1669.48 1861.93 1802.25 1861.93 1802.25 1249.38 2255.29 1249.38 2255.29 1169.75"/><text class="cls-6" transform="translate(435.9 469.09)"><tspan class="cls-20">F</tspan><tspan x="30.41" y="0">olios E – F</tspan></text><text class="cls-9" transform="translate(148.13 974.92)"><tspan class="cls-21">C</tspan><tspan x="25.92" y="0">onse</tspan><tspan class="cls-22" x="116.37" y="0">r</tspan><tspan class="cls-23" x="132.31" y="0">v</tspan><tspan x="152.88" y="0">ation</tspan><tspan class="cls-24" x="44.1" y="44">L</tspan><tspan x="66.25" y="44">ab 5</tspan><tspan class="cls-12" x="145.18" y="44">0</tspan><tspan class="cls-13" x="169.67" y="44">17</tspan></text><text class="cls-9" transform="translate(981.72 1007.37)">Staff<tspan x="-23.12" y="44">Offi</tspan><tspan class="cls-17" x="48.34" y="44">c</tspan><tspan x="69.35" y="44">es</tspan><tspan x="-1.94" y="87.99">5</tspan><tspan class="cls-12" x="19.47" y="87.99">0</tspan><tspan class="cls-25" x="43.96" y="87.99">2</tspan><tspan class="cls-13" x="65.19" y="87.99">0</tspan></text><line class="cls-5" x1="357.75" y1="717.15" x2="649.09" y2="717.15"/><line class="cls-5" x1="449.75" y1="717.15" x2="449.75" y2="1101.27"/><line class="cls-5" x1="449.75" y1="1151.93" x2="449.75" y2="1249.38"/><text class="cls-6" transform="translate(452.67 603.31)">G<tspan class="cls-26" x="37.74" y="0">o</tspan><tspan class="cls-27" x="68.53" y="0">v</tspan><tspan class="cls-28" x="97.52" y="0">’</tspan><tspan x="109.69" y="0">t In</tspan><tspan class="cls-29" x="192.99" y="0">f</tspan><tspan x="210.63" y="0">o</tspan></text><polyline class="cls-5" points="1496.22 775.21 1496.22 909.21 1338.03 909.21"/><line class="cls-5" x1="1271.72" y1="1589.36" x2="1498.29" y2="1589.36"/><polyline class="cls-5" points="1181.21 1178.38 1181.21 1200.66 1181.21 1358.38"/><polyline class="cls-5" points="1023.03 1601.36 1023.03 1298.38 1023.03 1200.66 1181.21 1200.66"/><line class="cls-5" x1="1181.21" y1="1296.88" x2="1023.03" y2="1296.88"/><line class="cls-5" x1="1181.21" y1="1388.37" x2="1181.21" y2="1433.37"/><polyline class="cls-5" points="1181.21 1461.87 1181.21 1506.87 1023.03 1506.87"/><line class="cls-5" x1="1181.21" y1="1529.37" x2="1181.21" y2="1565.36"/><line class="cls-5" x1="1239.68" y1="1589.36" x2="1025.09" y2="1589.36"/><line class="cls-5" x1="1025.09" y1="1410.87" x2="1181.21" y2="1410.87"/><line class="cls-5" x1="1493.94" y1="1296.88" x2="1335.75" y2="1296.88"/><line class="cls-5" x1="1496.22" y1="1410.87" x2="1338.03" y2="1410.87"/><polyline class="cls-5" points="1496.22 1704.6 1614.75 1704.6 1614.75 1495.62 1702.75 1495.62 1702.75 1270.06 1802.25 1270.06"/><polyline class="cls-5" points="1181.21 1589.36 1181.21 1704.6 1023.09 1704.6 1023.09 1628.93"/><text class="cls-1" transform="translate(1357.24 844.25)"><tspan class="cls-30">V</tspan><tspan x="18.3" y="0">e</tspan><tspan class="cls-31" x="35.2" y="0">n</tspan><tspan x="53.93" y="0">di</tspan><tspan class="cls-31" x="80.44" y="0">n</tspan><tspan class="cls-3" x="99.18" y="0">g</tspan><tspan x="25.53" y="32.59">5062</tspan></text><polyline class="cls-5" points="1368.21 184.54 1368.21 251.93 1434.03 251.93 1434.03 227.93 1409.95 227.93"/><polyline class="cls-5" points="1145.03 184.54 1145.03 251.93 1079.21 251.93 1079.21 227.93 1103.29 227.93"/><text class="cls-1" transform="translate(1370.47 1363.58)">El<tspan class="cls-8" x="26.04" y="0">e</tspan><tspan x="42.66" y="0">v D</tspan></text><text class="cls-1" transform="translate(1057.32 1363.58)">El<tspan class="cls-8" x="26.04" y="0">e</tspan><tspan x="42.66" y="0">v C</tspan></text><text class="cls-1" transform="translate(1069.48 1640.63)"><tspan class="cls-2">C<tspan class="cls-3" x="19.2" y="0">onf</tspan></tspan><tspan x="-1.3" y="32.59">5</tspan><tspan class="cls-4" x="14.56" y="32.59">0</tspan><tspan x="32.56" y="32.59">30</tspan></text><text class="cls-1" transform="translate(1383.99 1640.63)"><tspan class="cls-2">C<tspan class="cls-3" x="19.2" y="0">onf</tspan></tspan><tspan x="0" y="32.59">5</tspan><tspan class="cls-4" x="15.86" y="32.59">0</tspan><tspan class="cls-32" x="33.86" y="32.59">3</tspan><tspan x="49.53" y="32.59">2</tspan></text><rect class="cls-5" x="1059.18" y="1538.97" width="85.89" height="16.79"/></svg>