<svg id="Layer_1" data-name="Layer 1" xmlns="http://www.w3.org/2000/svg" viewBox="0 0 2520 2160"><defs><style>.cls-1{fill:none;stroke:#fff;stroke-miterlimit:10;stroke-width:6px;}.cls-2{font-size:48.88px;}.cls-2,.cls-22,.cls-5,.cls-6,.cls-8{fill:#fff;}.cls-2,.cls-22,.cls-6,.cls-8{font-family:Montserrat-SemiBold, Montserrat;font-weight:700;}.cls-3{letter-spacing:-0.01em;}.cls-4{letter-spacing:0em;}.cls-6{font-size:27.16px;}.cls-7{letter-spacing:-0.01em;}.cls-8{font-size:48.88px;}.cls-9{letter-spacing:-0.02em;}.cls-10{letter-spacing:0em;}.cls-11{letter-spacing:0em;}.cls-12{letter-spacing:0em;}.cls-13{letter-spacing:-0.01em;}.cls-14{letter-spacing:0em;}.cls-15{letter-spacing:-0.01em;}.cls-16{letter-spacing:-0.01em;}.cls-17{letter-spacing:0em;}.cls-18{letter-spacing:-0.02em;}.cls-19{letter-spacing:0em;}.cls-20{letter-spacing:-0.02em;}.cls-21{letter-spacing:-0.03em;}.cls-22{font-size:36.66px;}.cls-23{letter-spacing:-0.01em;}.cls-24{letter-spacing:-0.02em;}</style></defs><title>Lib_Floor6</title><polyline class="cls-1" points="1022.17 1975.46 1802.25 1975.46 1802.25 1249.38 2420.31 1249.38 2420.31 291.54 1496.22 291.54 1496.22 184.54 1023.2 184.54 1024.24 291.54 100.15 291.54 100.15 1249.38 718.21 1249.38 718.21 1975.46 1498.29 1975.46 1498.29 1744.18 1498.29 1720.6"/><line class="cls-1" x1="1234.53" y1="184.54" x2="1234.53" y2="298.67"/><line class="cls-1" x1="1285.53" y1="184.54" x2="1285.53" y2="298.67"/><line class="cls-1" x1="1234.53" y1="280.41" x2="1285.53" y2="280.41"/><line class="cls-1" x1="1496.22" y1="291.54" x2="1338.03" y2="291.54"/><polyline class="cls-1" points="1498.29 1744.18 1404.02 1744.18 1234.54 1744.18"/><polyline class="cls-1" points="1197.51 1744.18 1131.94 1744.18 1023.03 1744.18"/><line class="cls-1" x1="1181.21" y1="1716.1" x2="1181.21" y2="1975.46"/><line class="cls-1" x1="1023.03" y1="1716.1" x2="1023.03" y2="1975.46"/><polyline class="cls-1" points="1023.03 1675.84 1023.03 1245.12 1181.21 1245.12"/><polyline class="cls-1" points="1181.21 886.64 1181.21 1657.6 1023.03 1657.6"/><line class="cls-1" x1="1023.03" y1="1341.12" x2="1181.21" y2="1341.12"/><line class="cls-1" x1="1023.03" y1="1473.65" x2="1181.21" y2="1473.65"/><line class="cls-1" x1="1023.03" y1="1558.61" x2="1181.21" y2="1558.61"/><polyline class="cls-1" points="1181.21 930.49 1023.03 930.49 1023.03 814.64 1181.21 814.64"/><line class="cls-1" x1="1181.21" y1="786.15" x2="1181.21" y2="859.64"/><polyline class="cls-1" points="1181.21 744.15 1181.21 727.24 1181.21 321.17"/><line class="cls-1" x1="1023.03" y1="717.15" x2="1181.21" y2="717.15"/><polyline class="cls-1" points="1181.21 505.66 1023.03 505.66 1023.03 391.67 1023.03 291.54 1181.21 291.54"/><line class="cls-1" x1="1181.21" y1="391.67" x2="1023.03" y2="391.67"/><polyline class="cls-1" points="1496.22 1675.84 1496.22 1245.12 1338.03 1245.12"/><line class="cls-1" x1="1496.22" y1="1341.12" x2="1338.03" y2="1341.12"/><line class="cls-1" x1="1496.22" y1="1473.65" x2="1338.03" y2="1473.65"/><line class="cls-1" x1="1496.22" y1="1558.61" x2="1338.03" y2="1558.61"/><polyline class="cls-1" points="1496.22 1657.6 1338.03 1657.6 1338.03 886.64 1338.03 859.64 1338.03 786.15 1434.03 786.15"/><line class="cls-1" x1="1338.03" y1="643.21" x2="1338.03" y2="321.17"/><line class="cls-1" x1="1338.03" y1="720.24" x2="1338.03" y2="677.21"/><line class="cls-1" x1="1496.22" y1="717.15" x2="1338.03" y2="717.15"/><polyline class="cls-1" points="1338.03 391.67 1496.22 391.67 1496.22 291.54 1338.03 291.54"/><polyline class="cls-1" points="1465.52 786.15 1496.22 786.15 1496.22 1245.12"/><polyline class="cls-1" points="1338.03 601.88 1496.22 601.88 1496.22 744.15"/><polyline class="cls-1" points="2240.75 801.54 2240.75 822.89 2421.75 822.89"/><polyline class="cls-1" points="2240.75 744.88 2240.75 723.53 2421.75 723.53"/><line class="cls-1" x1="2240.75" y1="761.88" x2="2240.75" y2="784.54"/><polyline class="cls-1" points="280.15 801.54 280.15 822.89 99.15 822.89"/><polyline class="cls-1" points="280.15 744.88 280.15 723.53 99.15 723.53"/><line class="cls-1" x1="280.15" y1="761.88" x2="280.15" y2="784.54"/><polyline class="cls-1" points="1802.25 1249.38 1802.25 1169.75 2421.75 1169.75"/><polyline class="cls-1" points="717.75 1249.38 717.75 1169.75 98.25 1169.75"/><line class="cls-1" x1="2383.75" y1="773.21" x2="2287.75" y2="773.21"/><line class="cls-1" x1="237.65" y1="773.21" x2="141.65" y2="773.21"/><rect class="cls-1" x="1331.03" y="226.54" width="119.72" height="19.06"/><rect class="cls-1" x="1068.79" y="226.54" width="119.72" height="19.06"/><line class="cls-1" x1="2421.75" y1="358.3" x2="1496.22" y2="358.3"/><line class="cls-1" x1="1025.68" y1="358.3" x2="100.15" y2="358.3"/><text class="cls-2" transform="translate(722.13 819.15)">PS <tspan class="cls-3" x="79.73" y="0">3</tspan><tspan class="cls-4" x="107.69" y="0">515</tspan></text><polygon class="cls-5" points="830 897.64 813.82 913.82 797.65 897.64 797.65 886.98 809.95 899.28 809.95 852.11 817.79 852.11 817.79 899.19 830.02 886.96 830 897.64"/><text class="cls-2" transform="translate(796.09 984.15)">P</text><text class="cls-2" transform="translate(1653.11 819.15)">E</text><polygon class="cls-5" points="1685.65 897.64 1669.47 913.82 1653.3 897.64 1653.3 886.98 1665.6 899.28 1665.6 852.11 1673.44 852.11 1673.44 899.19 1685.67 886.96 1685.65 897.64"/><text class="cls-2" transform="translate(1649.69 984.15)">N</text><circle class="cls-5" cx="1463.4" cy="343.4" r="8.64"/><path class="cls-5" d="M1418.22,324.1l30.9,6.53a3.2,3.2,0,0,1,2,4.9l-3.93,6.09a3.2,3.2,0,0,0,0,3.49l3.93,6.08a3.24,3.24,0,0,1-2,4.91l-30.9,6.53a3.25,3.25,0,0,1-3.82-2.4,3.28,3.28,0,0,0-3.57-2.43l-7.42,1a3.26,3.26,0,0,1-3.65-2.75l-.32-2.19a3.21,3.21,0,0,0-3-2.76l-23.77-1.42a4.76,4.76,0,0,1-4.46-4.79v-3.24a4.78,4.78,0,0,1,4.46-4.79l23.77-1.42a3.21,3.21,0,0,0,3-2.76l.32-2.19a3.27,3.27,0,0,1,3.65-2.75l7.42,1a3.24,3.24,0,0,0,3.57-2.43A3.28,3.28,0,0,1,1418.22,324.1Z"/><path class="cls-5" d="M1068.73,330l-.53,2.34a4.71,4.71,0,0,0,1.29,4.39l3.3,3.3a4.71,4.71,0,0,1,0,6.69l-3.3,3.31a4.85,4.85,0,0,0-1.29,4.39l.53,2.33a4.75,4.75,0,0,0,5,3.71l28.72-2.38a4.74,4.74,0,0,0,4-3h0a4.79,4.79,0,0,1,4.15-3.06l37.23-2.26a4.72,4.72,0,0,0,4.43-4.71v-3.22a4.7,4.7,0,0,0-4.43-4.72l-37.23-2.25a4.77,4.77,0,0,1-4.15-3.06,4.68,4.68,0,0,0-4-3l-28.72-2.37A4.58,4.58,0,0,0,1068.73,330Z"/><circle class="cls-5" cx="1057.81" cy="343.29" r="8.58"/><circle class="cls-5" cx="1462.8" cy="1410.62" r="8.64"/><path class="cls-5" d="M1417.62,1391.31l30.9,6.53a3.2,3.2,0,0,1,2,4.91l-3.93,6.08a3.2,3.2,0,0,0,0,3.49l3.93,6.09a3.23,3.23,0,0,1-2,4.9l-30.9,6.53a3.25,3.25,0,0,1-3.82-2.39,3.26,3.26,0,0,0-3.56-2.43l-7.43,1a3.27,3.27,0,0,1-3.65-2.76l-.32-2.19a3.21,3.21,0,0,0-3-2.76l-23.77-1.41a4.77,4.77,0,0,1-4.46-4.79v-3.25a4.78,4.78,0,0,1,4.46-4.78l23.77-1.42a3.2,3.2,0,0,0,3-2.76l.32-2.19a3.29,3.29,0,0,1,3.65-2.76l7.43,1a3.24,3.24,0,0,0,3.56-2.44A3.29,3.29,0,0,1,1417.62,1391.31Z"/><path class="cls-5" d="M1068.13,1397.17l-.53,2.34a4.71,4.71,0,0,0,1.29,4.39l3.3,3.3a4.71,4.71,0,0,1,0,6.69l-3.3,3.3a4.86,4.86,0,0,0-1.29,4.39l.53,2.34a4.75,4.75,0,0,0,5,3.71l28.72-2.38a4.74,4.74,0,0,0,4-3h0a4.79,4.79,0,0,1,4.15-3.06l37.23-2.26a4.73,4.73,0,0,0,4.43-4.71V1409a4.7,4.7,0,0,0-4.43-4.71L1110,1402a4.78,4.78,0,0,1-4.15-3.07,4.67,4.67,0,0,0-4-3l-28.72-2.37A4.56,4.56,0,0,0,1068.13,1397.17Z"/><circle class="cls-5" cx="1057.21" cy="1410.51" r="8.58"/><rect class="cls-1" x="1058.41" y="1600.99" width="87.42" height="11.94"/><text class="cls-6" transform="translate(1373.86 671.25)">El<tspan class="cls-7" x="26.04" y="0">e</tspan><tspan x="42.66" y="0">v B</tspan></text><text class="cls-6" transform="translate(1060.32 1526.86)">El<tspan class="cls-7" x="26.04" y="0">e</tspan><tspan x="42.66" y="0">v C</tspan></text><text class="cls-6" transform="translate(1370.98 1526.86)">El<tspan class="cls-7" x="26.04" y="0">e</tspan><tspan x="42.66" y="0">v D</tspan></text><text class="cls-8" transform="translate(1404.85 1171.61) rotate(-90)">Boo<tspan class="cls-9" x="100.25" y="0">k</tspan><tspan x="130.51" y="0">st</tspan><tspan class="cls-10" x="176.41" y="0">a</tspan><tspan class="cls-11" x="206.32" y="0">c</tspan><tspan class="cls-9" x="234.47" y="0">k</tspan><tspan class="cls-12" x="264.73" y="0">s</tspan><tspan x="-2.93" y="58.66">Offi</tspan><tspan class="cls-13" x="92.33" y="58.66">c</tspan><tspan class="cls-14" x="120.34" y="58.66">e 4068</tspan></text><text class="cls-2" transform="translate(188.37 342.41)">Res<tspan class="cls-15" x="91.31" y="0">e</tspan><tspan x="120.99" y="0">a</tspan><tspan class="cls-16" x="150.66" y="0">r</tspan><tspan class="cls-17" x="170.7" y="0">c</tspan><tspan x="198.86" y="0">h Studies 4</tspan><tspan class="cls-17" x="480.57" y="0">0</tspan><tspan x="513.22" y="0">22 – 4005</tspan></text><text class="cls-2" transform="translate(1584.61 342.41)">Res<tspan class="cls-18" x="91.31" y="0">e</tspan><tspan class="cls-4" x="120.99" y="0">a</tspan><tspan class="cls-3" x="150.66" y="0">r</tspan><tspan class="cls-17" x="170.7" y="0">c</tspan><tspan x="198.86" y="0">h Studies 40</tspan><tspan class="cls-16" x="513.47" y="0">9</tspan><tspan class="cls-19" x="543.63" y="0">3 – 4</tspan><tspan class="cls-17" x="656.69" y="0">0</tspan><tspan class="cls-20" x="689.35" y="0">7</tspan><tspan x="718.09" y="0">6</tspan></text><text class="cls-2" transform="translate(1354.61 1625.88)">40<tspan class="cls-21" x="66.09" y="0">4</tspan><tspan x="98.06" y="0">1</tspan></text><text class="cls-2" transform="translate(1040.48 1883.33)">4<tspan class="cls-3" x="33.19" y="0">03</tspan><tspan x="93.56" y="0">7</tspan></text><text class="cls-22" transform="translate(1228.5 1831.26)">Humanities<tspan x="64.47" y="44">I</tspan><tspan class="cls-23" x="76.17" y="44">o</tspan><tspan class="cls-24" x="99.26" y="44">w</tspan><tspan x="132.33" y="44">a</tspan><tspan x="62.77" y="87.99">4</tspan><tspan class="cls-16" x="87.66" y="87.99">0</tspan><tspan x="111.97" y="87.99">39</tspan></text><text class="cls-2" transform="translate(1866.09 1225.09)">Studies 40<tspan class="cls-17" x="267.63" y="0">5</tspan><tspan x="295.94" y="0">3 – 4064</tspan></text><text class="cls-2" transform="translate(153.74 1225.09)">Studies 4<tspan class="cls-17" x="234.74" y="0">0</tspan><tspan class="cls-19" x="267.39" y="0">25 – 4</tspan><tspan class="cls-16" x="409" y="0">0</tspan><tspan class="cls-19" x="441.41" y="0">36</tspan></text></svg>